<svg width="116" height="122" viewBox="0 0 116 122" fill="none" xmlns="http://www.w3.org/2000/svg">
<path fill-rule="evenodd" clip-rule="evenodd" d="M83.7297 13.1528C91.5665 4.9297 101.105 -2.32479 108.472 0.701086C120.843 5.78194 114.526 38.5425 111.839 50.2168C112.811 54.0565 113.325 57.9331 113.325 61.7499C113.325 88.2 88.6258 113.041 58.158 113.041C27.6902 113.041 2.99112 88.2 2.99112 61.7499C2.99112 58.2545 3.42247 54.7088 4.24149 51.1873C1.71436 40.486 -5.35139 5.9308 7.38179 0.701086C14.8013 -2.34622 24.4227 5.03293 32.2905 13.3276C40.0055 8.73702 48.8102 5.97683 58.158 5.97683C67.3865 5.97683 76.0857 8.66705 83.7297 13.1528Z" fill="#807D8A"/>
<path fill-rule="evenodd" clip-rule="evenodd" d="M62.3111 112.338C62.7024 112.663 63.2108 112.814 63.7171 112.763C86.9525 110.438 105.939 93.7695 111.6 73.8996C111.669 73.6563 111.69 73.4004 111.66 73.1492C109.395 53.8313 96.0832 39 80 39C72.4572 39 65.5238 42.2622 60.0537 47.7194C59.2012 48.5699 57.7988 48.5699 56.9462 47.7194C51.4762 42.2622 44.5429 39 37 39C20.4331 39 6.80663 54.7369 5.1657 74.9043C5.145 75.1588 5.17498 75.4162 5.25446 75.6588C11.5653 94.9248 30.4019 110.802 53.2348 112.823C53.7322 112.867 54.2298 112.718 54.6149 112.4C55.4181 111.736 56.1961 111.029 56.9464 110.28C57.799 109.43 59.201 109.43 60.0536 110.28C60.7809 111.006 61.534 111.693 62.3111 112.338Z" fill="#FAFAFA"/>
<path fill-rule="evenodd" clip-rule="evenodd" d="M31.3601 106.203C18.2648 99.0947 8.44792 87.15 4.67795 73.7658C8.30275 70.7878 12.9426 69 18 69C29.598 69 39 78.402 39 90C39 96.5228 36.0261 102.351 31.3601 106.203Z" fill="#FFD9D9"/>
<path fill-rule="evenodd" clip-rule="evenodd" d="M111.761 73.3206C108.123 86.7431 98.4022 98.7624 85.3697 105.976C80.8594 102.124 78 96.396 78 90C78 78.402 87.402 69 99 69C103.8 69 108.224 70.6105 111.761 73.3206Z" fill="#FFD9D9"/>
<path d="M7.81767 36.9406C6.43015 30.1087 3.34696 11.7097 9.5 8C15.8593 4.16595 27.2696 14.8312 30.8015 18.3894C31.3565 18.9485 31.2032 19.8659 30.518 20.2548C22.1013 25.0313 15.4505 30.4956 9.96122 37.4137C9.31883 38.2233 8.02338 37.9534 7.81767 36.9406Z" fill="#DCDDDD"/>
<path d="M108.376 36.8396C109.585 29.9292 112.123 11.6915 106 8C99.6389 4.16487 88.7482 14.8372 85.3894 18.3924C84.8572 18.9557 85.0188 19.8526 85.693 20.2349C94.0968 24.9992 100.741 30.4475 106.227 37.3406C106.88 38.1611 108.195 37.8725 108.376 36.8396Z" fill="#DCDDDD"/>
<circle cx="37.1413" cy="61.1872" r="7" fill="#323232"/>
<circle cx="39.7663" cy="59.4372" r="1.75" fill="white"/>
<circle cx="7" cy="7" r="7" transform="matrix(-1 0 0 1 86.1413 54.1872)" fill="#323232"/>
<circle cx="1.75" cy="1.75" r="1.75" transform="matrix(-1 0 0 1 78.2663 57.6872)" fill="white"/>
<path d="M64.9207 73.1964C64.9207 74.999 62.0577 76.4603 58.5261 76.4603C54.9945 76.4603 52.1315 74.999 52.1315 73.1964C52.1315 71.3938 54.9945 69 58.5261 69C62.0577 69 64.9207 71.3938 64.9207 73.1964Z" fill="#323232"/>
<circle cx="55.3288" cy="72.1973" r="1.06576" fill="white"/>
<path d="M58.5261 72.0105V78.4051C58.5261 80.7595 56.6175 82.6682 54.2631 82.6682H52.6644C51.1929 82.6682 50 81.4753 50 80.0038V80.0038" stroke="#323232" stroke-width="1.91837" stroke-linecap="round" stroke-linejoin="round"/>
<path d="M58.5261 72.0106V78.4051C58.5261 80.7596 60.4347 82.6682 62.7892 82.6682H64.3878C65.8593 82.6682 67.0522 81.4753 67.0522 80.0038V80.0038" stroke="#323232" stroke-width="1.91837" stroke-linecap="round" stroke-linejoin="round"/>
<rect x="27.1413" y="105.541" width="63" height="8" rx="3" fill="#ED653B"/>
<circle cx="58.1413" cy="113.541" r="8" fill="#FFCE05"/>
<path d="M55.0058 116.571C54.5298 116.571 54.1158 116.485 53.7638 116.313C53.4118 116.137 53.1418 115.889 52.9538 115.569C52.7658 115.249 52.6718 114.877 52.6718 114.453C52.6718 113.865 52.7818 113.343 53.0018 112.887C53.2258 112.431 53.5278 112.079 53.9078 111.831C54.2878 111.579 54.7098 111.453 55.1738 111.453C55.6058 111.453 55.9338 111.565 56.1578 111.789C56.3818 112.009 56.4938 112.301 56.4938 112.665C56.4938 112.909 56.4498 113.105 56.3618 113.253C56.2778 113.401 56.1558 113.475 55.9958 113.475C55.8838 113.475 55.7958 113.449 55.7318 113.397C55.6678 113.345 55.6358 113.269 55.6358 113.169C55.6358 113.133 55.6438 113.067 55.6598 112.971C55.6838 112.851 55.6958 112.755 55.6958 112.683C55.6958 112.319 55.5018 112.137 55.1138 112.137C54.8498 112.137 54.5978 112.223 54.3578 112.395C54.1178 112.567 53.9238 112.821 53.7758 113.157C53.6278 113.489 53.5538 113.885 53.5538 114.345C53.5538 114.825 53.6878 115.197 53.9558 115.461C54.2238 115.721 54.6198 115.851 55.1438 115.851C55.4038 115.851 55.6658 115.819 55.9298 115.755C56.1978 115.687 56.4938 115.585 56.8178 115.449C56.8778 115.425 56.9278 115.413 56.9678 115.413C57.0318 115.413 57.0798 115.437 57.1118 115.485C57.1438 115.533 57.1598 115.595 57.1598 115.671C57.1598 115.915 57.0278 116.095 56.7638 116.211C56.4798 116.335 56.1838 116.427 55.8758 116.487C55.5718 116.543 55.2818 116.571 55.0058 116.571ZM57.3011 116.571C57.1211 116.571 56.9731 116.489 56.8571 116.325C56.7451 116.157 56.6891 115.949 56.6891 115.701C56.6891 115.401 56.7091 115.127 56.7491 114.879C56.7891 114.627 56.8551 114.361 56.9471 114.081C56.9871 113.961 57.0431 113.875 57.1151 113.823C57.1871 113.771 57.3011 113.745 57.4571 113.745C57.5451 113.745 57.6051 113.759 57.6371 113.787C57.6731 113.815 57.6911 113.857 57.6911 113.913C57.6911 113.945 57.6691 114.053 57.6251 114.237C57.5851 114.385 57.5531 114.519 57.5291 114.639C57.4491 115.059 57.4091 115.339 57.4091 115.479C57.4091 115.563 57.4191 115.623 57.4391 115.659C57.4591 115.691 57.4911 115.707 57.5351 115.707C57.5951 115.707 57.6691 115.647 57.7571 115.527C57.8491 115.407 57.9451 115.225 58.0451 114.981C58.1491 114.737 58.2491 114.437 58.3451 114.081C58.3771 113.961 58.4251 113.875 58.4891 113.823C58.5571 113.771 58.6571 113.745 58.7891 113.745C58.8811 113.745 58.9451 113.757 58.9811 113.781C59.0171 113.801 59.0351 113.841 59.0351 113.901C59.0351 114.001 58.9851 114.275 58.8851 114.723C58.7731 115.235 58.7171 115.551 58.7171 115.671C58.7171 115.747 58.7331 115.807 58.7651 115.851C58.7971 115.891 58.8391 115.911 58.8911 115.911C58.9711 115.911 59.0651 115.863 59.1731 115.767C59.2851 115.667 59.4331 115.507 59.6171 115.287C59.6651 115.231 59.7191 115.203 59.7791 115.203C59.8311 115.203 59.8711 115.227 59.8991 115.275C59.9311 115.323 59.9471 115.389 59.9471 115.473C59.9471 115.633 59.9091 115.757 59.8331 115.845C59.6611 116.057 59.4751 116.231 59.2751 116.367C59.0791 116.503 58.8551 116.571 58.6031 116.571C58.4111 116.571 58.2691 116.497 58.1771 116.349C58.0891 116.201 58.0451 115.993 58.0451 115.725C57.9771 115.997 57.8751 116.207 57.7391 116.355C57.6031 116.499 57.4571 116.571 57.3011 116.571ZM62.1365 115.203C62.1885 115.203 62.2285 115.227 62.2565 115.275C62.2885 115.323 62.3045 115.389 62.3045 115.473C62.3045 115.633 62.2665 115.757 62.1905 115.845C62.0185 116.057 61.8305 116.231 61.6265 116.367C61.4225 116.503 61.1885 116.571 60.9245 116.571C60.1085 116.571 59.7005 115.997 59.7005 114.849C59.7005 114.673 59.7065 114.495 59.7185 114.315H59.4845C59.3645 114.315 59.2825 114.293 59.2385 114.249C59.1985 114.205 59.1785 114.135 59.1785 114.039C59.1785 113.815 59.2685 113.703 59.4485 113.703H59.7905C59.8585 113.263 59.9625 112.861 60.1025 112.497C60.2425 112.133 60.4105 111.843 60.6065 111.627C60.8065 111.411 61.0205 111.303 61.2485 111.303C61.4165 111.303 61.5485 111.377 61.6445 111.525C61.7405 111.673 61.7885 111.859 61.7885 112.083C61.7885 112.703 61.5285 113.243 61.0085 113.703H61.6805C61.7445 113.703 61.7905 113.717 61.8185 113.745C61.8465 113.773 61.8605 113.825 61.8605 113.901C61.8605 114.177 61.6345 114.315 61.1825 114.315H60.4505C60.4425 114.515 60.4385 114.671 60.4385 114.783C60.4385 115.199 60.4865 115.491 60.5825 115.659C60.6825 115.827 60.8385 115.911 61.0505 115.911C61.2225 115.911 61.3745 115.859 61.5065 115.755C61.6385 115.651 61.7945 115.495 61.9745 115.287C62.0225 115.231 62.0765 115.203 62.1365 115.203ZM61.0865 111.879C61.0265 111.879 60.9585 111.955 60.8825 112.107C60.8105 112.255 60.7405 112.463 60.6725 112.731C60.6085 112.995 60.5545 113.289 60.5105 113.613C60.7465 113.409 60.9225 113.181 61.0385 112.929C61.1585 112.673 61.2185 112.441 61.2185 112.233C61.2185 111.997 61.1745 111.879 61.0865 111.879ZM63.964 115.383C64.016 115.383 64.056 115.407 64.084 115.455C64.116 115.503 64.132 115.569 64.132 115.653C64.132 115.797 64.098 115.921 64.03 116.025C63.918 116.197 63.77 116.331 63.586 116.427C63.406 116.523 63.19 116.571 62.938 116.571C62.554 116.571 62.256 116.457 62.044 116.229C61.832 115.997 61.726 115.685 61.726 115.293C61.726 115.017 61.784 114.761 61.9 114.525C62.016 114.285 62.176 114.095 62.38 113.955C62.588 113.815 62.822 113.745 63.082 113.745C63.314 113.745 63.5 113.815 63.64 113.955C63.78 114.091 63.85 114.277 63.85 114.513C63.85 114.789 63.75 115.027 63.55 115.227C63.354 115.423 63.018 115.579 62.542 115.695C62.638 115.879 62.8 115.971 63.028 115.971C63.192 115.971 63.326 115.933 63.43 115.857C63.538 115.781 63.662 115.653 63.802 115.473C63.85 115.413 63.904 115.383 63.964 115.383ZM62.98 114.333C62.832 114.333 62.706 114.419 62.602 114.591C62.502 114.763 62.452 114.971 62.452 115.215V115.227C62.688 115.171 62.874 115.087 63.01 114.975C63.146 114.863 63.214 114.733 63.214 114.585C63.214 114.509 63.192 114.449 63.148 114.405C63.108 114.357 63.052 114.333 62.98 114.333Z" fill="#AC8F17" fill-opacity="0.8"/>
<path d="M48.4643 58.7857C48.4643 71.1805 37.9475 81.3214 24.8571 81.3214C11.7668 81.3214 1.25 71.1805 1.25 58.7857C1.25 46.3909 11.7668 36.25 24.8571 36.25C37.9475 36.25 48.4643 46.3909 48.4643 58.7857Z" stroke="#323232" stroke-width="2.5"/>
<path d="M114.75 58.7857C114.75 71.1805 104.233 81.3214 91.1429 81.3214C78.0525 81.3214 67.5357 71.1805 67.5357 58.7857C67.5357 46.3909 78.0525 36.25 91.1429 36.25C104.233 36.25 114.75 46.3909 114.75 58.7857Z" stroke="#323232" stroke-width="2.5"/>
<path d="M48.6095 57.0382C55.6834 55.8336 59.8348 55.8553 67.3905 57.0382V61.4286C60.1753 60.3306 56.0612 60.3152 48.6095 61.4286V57.0382Z" fill="#242424"/>
</svg>
