<svg width="30" height="34" viewBox="0 0 30 34" fill="none" xmlns="http://www.w3.org/2000/svg">
<path d="M11.9558 3.9358C11.656 3.38768 10.9949 3.15795 10.407 3.36921L9.91166 3.54722C9.08296 3.84502 8.7928 4.85114 9.2225 5.61976C9.64653 6.37823 9.90661 7.09785 10.0632 7.95221C10.2223 8.81973 11.0875 9.41346 11.9175 9.11519L12.4159 8.93612C13.0004 8.72605 13.3643 8.13334 13.2485 7.52306C12.9888 6.1543 12.6234 5.15659 11.9558 3.9358Z" fill="#3F2B1F"/>
<path d="M22.4668 12.26C20.2862 8.58014 15.7255 7.39608 11.7 8.84877V8.84877C7.60797 10.3255 4.82488 14.2547 5.58005 18.541C6.39742 23.1804 8.1486 28.5978 11.8982 30.0382C17.331 32.1252 22.2599 30.3164 25.1271 25.2341C27.1293 21.685 24.8867 16.3438 22.4668 12.26Z" fill="#9F784E"/>
<g style="mix-blend-mode:multiply">
<path fill-rule="evenodd" clip-rule="evenodd" d="M25.9003 22.0831C25.8913 23.2218 25.659 24.2912 25.1271 25.2341C22.2599 30.3164 17.331 32.1252 11.8982 30.0382C8.1486 28.5978 6.39741 23.1803 5.58004 18.541C5.31097 17.0138 5.49109 15.5319 6.01956 14.1901C6.01689 14.6199 6.04861 15.0562 6.11712 15.4969C6.84501 20.1781 8.50331 25.6824 12.278 27.1325C17.7108 29.2195 22.9434 27.3312 25.8106 22.2489C25.8415 22.1941 25.8714 22.1388 25.9003 22.0831Z" fill="#9F784E" fill-opacity="0.6"/>
</g>
<path d="M3.69093 16.2747C3.44762 13.4127 6.37638 10.3399 11.5509 8.48039C15.4787 7.06896 18.7524 6.73913 20.9824 7.8696C22.1365 8.33806 23.1659 9.41469 23.6862 10.8624C24.5421 13.2443 23.6956 15.7287 21.7955 16.4115C20.9818 16.7039 20.1069 16.6185 19.3052 16.2383C18.9289 17.0418 18.3085 17.6645 17.4949 17.9569C16.8248 18.1977 16.1132 18.1823 15.4352 17.957C15.1016 18.995 14.4052 19.8163 13.4327 20.1658C12.5412 20.4861 11.5763 20.353 10.7146 19.8755C10.3325 20.5749 9.7525 21.1137 9.01286 21.3795C7.11274 22.0623 4.87852 20.6849 4.02261 18.3031C3.7773 17.6204 3.67183 16.9294 3.69093 16.2747Z" fill="#322318"/>
<path d="M3.27945 15.1297C3.03614 12.2677 5.9649 9.19485 11.1395 7.33538C15.0672 5.92394 18.3409 5.59411 20.5709 6.72458C21.725 7.19304 22.7544 8.26967 23.2747 9.7174C24.1306 12.0992 23.2841 14.5836 21.384 15.2665C20.5703 15.5588 19.6955 15.4735 18.8938 15.0933C18.5175 15.8968 17.897 16.5195 17.0834 16.8119C16.4133 17.0526 15.7018 17.0372 15.0237 16.812C14.6902 17.85 13.9937 18.6713 13.0212 19.0208C12.1298 19.3411 11.1648 19.208 10.3031 18.7305C9.92099 19.4299 9.34103 19.9687 8.60139 20.2345C6.70126 20.9173 4.46705 19.5399 3.61114 17.1581C3.36583 16.4754 3.26035 15.7844 3.27945 15.1297Z" fill="#5E4030"/>
</svg>
