<svg width="123" height="122" viewBox="0 0 123 122" fill="none" xmlns="http://www.w3.org/2000/svg">
<path fill-rule="evenodd" clip-rule="evenodd" d="M80.3062 14.8445C92.0274 5.47724 107.222 -3.73067 116.93 1.53941C130.101 8.68938 118.025 40.5248 111.024 56.27C111.124 57.381 111.175 58.4901 111.175 59.5946C111.175 83.0144 88.1889 102 61.7021 102C35.2153 102 11.7242 83.0144 11.7242 59.5946C11.7242 58.301 11.7959 57.001 11.9358 55.6992C4.9023 39.768 -6.73114 8.60401 6.28258 1.53941C16.0022 -3.73697 31.2214 5.49927 42.9483 14.8781C48.8118 12.1822 55.1657 10.6263 61.7021 10.6263C68.2113 10.6263 74.5091 12.1693 80.3062 14.8445Z" fill="white"/>
<path fill-rule="evenodd" clip-rule="evenodd" d="M17.3157 78.7651C42.2032 78.159 62.2069 56.021 62.2069 28.8C62.2069 22.4194 61.1079 16.3181 59.1044 10.7079C53.4842 11.0603 48.0319 12.5408 42.9482 14.878C31.2213 5.49925 16.0022 -3.73696 6.28258 1.53941C-6.73114 8.604 4.9023 39.768 11.9358 55.6992C11.7959 57.001 11.7242 58.301 11.7242 59.5945C11.7242 66.4935 13.7627 73.0077 17.3157 78.7651Z" fill="#FED402"/>
<path fill-rule="evenodd" clip-rule="evenodd" d="M67.2271 10.9951C71.7719 11.6012 76.1667 12.9342 80.3063 14.8445C92.0275 5.47722 107.222 -3.73066 116.93 1.53941C130.101 8.68937 118.025 40.5247 111.024 56.27C111.124 57.3809 111.175 58.4901 111.175 59.5945C111.175 66.4104 109.228 72.8507 105.815 78.5567C82.4838 76.1723 64.2263 54.8057 64.2263 28.8C64.2263 22.5282 65.2882 16.5261 67.2271 10.9951Z" fill="#FED402"/>
<g style="mix-blend-mode:multiply">
<path d="M9.59631 9.38445C2.82001 13.7735 9.52006 32.6448 12.7977 40.7392C13.4186 42.2727 15.5116 42.3548 16.3606 40.9349C21.4148 32.4816 26.6842 27.3921 35.1279 20.0637C36.078 19.2391 36.0466 17.7667 35.0212 17.0379C30.0135 13.4789 16.5786 4.86196 9.59631 9.38445Z" fill="#FED402" fill-opacity="0.5"/>
<path d="M113.808 9.38445C120.584 13.7735 113.884 32.6448 110.607 40.7392C109.986 42.2727 107.893 42.3548 107.044 40.9349C101.989 32.4816 96.72 27.3921 88.2763 20.0637C87.3262 19.2391 87.3576 17.7667 88.383 17.0379C93.3907 13.4789 106.826 4.86196 113.808 9.38445Z" fill="#FED402" fill-opacity="0.5"/>
</g>
<ellipse cx="41.5091" cy="50.5076" rx="5.5531" ry="7.06758" fill="#56392B"/>
<ellipse cx="43.5283" cy="49.4979" rx="1.51448" ry="2.01931" fill="white"/>
<ellipse cx="5.5531" cy="7.06758" rx="5.5531" ry="7.06758" transform="matrix(-1 0 0 1 89.4676 43.4401)" fill="#56392B"/>
<ellipse cx="1.51448" cy="2.01931" rx="1.51448" ry="2.01931" transform="matrix(-1 0 0 1 83.4096 47.4786)" fill="white"/>
<path d="M70.2841 64.1379C70.2841 66.0896 67.1199 67.6717 63.2166 67.6717C59.3132 67.6717 56.149 66.0896 56.149 64.1379C56.149 62.1863 59.3132 59.5945 63.2166 59.5945C67.1199 59.5945 70.2841 62.1863 70.2841 64.1379Z" fill="#56392B"/>
<circle cx="66.2455" cy="62.6234" r="1.00965" fill="white"/>
<path d="M63.2165 62.6234V68.6813C63.2165 70.9118 61.4084 72.72 59.1779 72.72H57.6634C56.2694 72.72 55.1393 71.5899 55.1393 70.1958V70.1958" stroke="#56392B" stroke-width="2" stroke-linecap="round" stroke-linejoin="round"/>
<path d="M63.2166 62.6234V68.6813C63.2166 70.9118 65.0247 72.72 67.2552 72.72H68.7697C70.1637 72.72 71.2938 71.5899 71.2938 70.1958V70.1958" stroke="#56392B" stroke-width="2" stroke-linecap="round" stroke-linejoin="round"/>
<ellipse cx="36.9656" cy="64.6428" rx="8.07723" ry="5.04827" fill="#FEB1AA"/>
<ellipse cx="89.4676" cy="64.6428" rx="8.07723" ry="5.04827" fill="#FEB1AA"/>
<path fill-rule="evenodd" clip-rule="evenodd" d="M54.2183 106.056C56.2607 106.056 58.1165 105.347 59.5926 104.516C59.2093 106.616 59.2412 108.502 59.2714 110.284L59.2779 110.678C59.3221 113.51 59.2892 116.132 57.6876 119.381C57.4099 119.944 57.6415 120.626 58.2049 120.904C58.7683 121.182 59.4501 120.95 59.7279 120.387C61.5797 116.63 61.5977 113.55 61.5523 110.642L61.5469 110.307C61.5088 107.988 61.4727 105.788 62.2327 103.241C63.6304 105.484 64.2782 107.689 64.9284 109.912L64.9458 109.971C65.7018 112.555 66.487 115.24 68.6334 117.648C69.0513 118.117 69.7703 118.158 70.2392 117.74C70.7081 117.322 70.7494 116.603 70.3314 116.134C68.5551 114.141 67.8861 111.92 67.1116 109.273L67.0921 109.206C66.7202 107.935 66.3248 106.583 65.755 105.182C66.9545 105.693 68.3204 106.056 69.7817 106.056C72.1457 106.056 74.3417 105.597 75.9892 104.804C77.5558 104.05 79 102.788 79 101.028C79 99.2682 77.5558 98.0065 75.9892 97.2522C74.3417 96.459 72.1457 96 69.7817 96C66.3632 96 63.4674 97.9862 62 99.2083C60.5326 97.9862 57.6368 96 54.2183 96C51.8543 96 49.6583 96.459 48.0108 97.2522C46.4442 98.0065 45 99.2682 45 101.028C45 102.788 46.4442 104.05 48.0108 104.804C49.6583 105.597 51.8543 106.056 54.2183 106.056ZM48.9976 99.3017C47.6395 99.9556 47.2746 100.639 47.2746 101.028C47.2746 101.417 47.6395 102.101 48.9976 102.755C50.2749 103.37 52.1193 103.782 54.2183 103.782C56.8814 103.782 59.2855 102.154 60.5784 101.071L60.6041 101.006C59.3175 99.9239 56.8992 98.2746 54.2183 98.2746C52.1193 98.2746 50.2749 98.6867 48.9976 99.3017ZM63.6533 101.261C63.5852 101.163 63.5157 101.064 63.4447 100.966C64.743 99.8829 67.1343 98.2746 69.7817 98.2746C71.8807 98.2746 73.7252 98.6867 75.0024 99.3017C76.3605 99.9556 76.7254 100.639 76.7254 101.028C76.7254 101.417 76.3605 102.101 75.0024 102.755C73.7252 103.37 71.8807 103.782 69.7817 103.782C67.2703 103.782 64.9893 102.334 63.6533 101.261Z" fill="#ED653B"/>
</svg>
