<svg width="120" height="120" viewBox="0 0 120 120" fill="none" xmlns="http://www.w3.org/2000/svg">
<path fill-rule="evenodd" clip-rule="evenodd" d="M116.193 72.2702C118.588 69.1064 120 65.2202 120 61.0195C120 50.3948 110.97 41.7819 99.8319 41.7819C94.9856 41.7819 90.5386 43.4123 87.0608 46.1296C83.812 43.994 79.8742 42.7436 75.6303 42.7436C72.3658 42.7436 69.2825 43.4834 66.5546 44.7968C63.8267 43.4834 60.7434 42.7436 57.4789 42.7436C50.2074 42.7436 43.8347 46.4143 40.2863 51.9191C36.6903 45.8878 29.5779 41.7819 21.3913 41.7819C9.57721 41.7819 0 50.3328 0 60.8808C0 65.307 1.68635 69.3815 4.51671 72.6201C2.30892 75.3588 1 78.7667 1 82.4605C1 90.708 7.52554 97.5304 16.0122 98.6597C16.0041 98.8738 16 99.089 16 99.3051C16 108.608 23.6112 116.15 33 116.15C37.3714 116.15 41.3574 114.515 44.3692 111.829C47.7179 116.771 53.2466 120 59.5 120C59.8355 120 60.1688 119.991 60.4999 119.972C60.831 119.991 61.1645 120 61.5 120C67.7534 120 73.2822 116.771 76.6308 111.829C79.6426 114.515 83.6286 116.15 88 116.15C97.3888 116.15 105 108.608 105 99.3051C105 99.089 104.996 98.8739 104.988 98.6597C113.474 97.5304 120 90.708 120 82.4605C120 78.6077 118.576 75.0659 116.193 72.2702ZM85.0022 82.7216C85.0007 82.6347 85 82.5477 85 82.4605C85 81.1997 85.1525 79.9722 85.4412 78.7932C82.5373 80.3384 79.1916 81.2189 75.6303 81.2189C72.3658 81.2189 69.2825 80.4791 66.5546 79.1656C63.8267 80.4791 60.7434 81.2189 57.4789 81.2189C49.7154 81.2189 42.9765 77.0346 39.6054 70.9014C38.2672 72.8362 36.5531 74.5419 34.554 75.937C35.4842 77.9356 36 80.1417 36 82.4605C36 82.5476 35.9993 82.6347 35.9978 82.7215C39.789 83.3899 43.1454 85.3033 45.621 88.02C49.011 84.0207 53.9724 81.498 59.5 81.498C59.8356 81.498 60.1691 81.5073 60.5002 81.5256C60.8313 81.5073 61.1646 81.498 61.5 81.498C67.0276 81.498 71.989 84.0207 75.379 88.02C77.8546 85.3033 81.211 83.3899 85.0022 82.7216Z" fill="#F8F5F5"/>
<path fill-rule="evenodd" clip-rule="evenodd" d="M100.489 96.979C108.127 95.9645 114 89.8357 114 82.4266C114 78.9655 112.718 75.7838 110.574 73.2723C112.73 70.4302 114 66.9391 114 63.1654C114 53.6209 105.873 45.8835 95.8487 45.8835C91.487 45.8835 87.4847 47.3483 84.3547 49.7893C81.4308 47.8708 77.8868 46.7476 74.0672 46.7476C71.1292 46.7476 68.3542 47.4122 65.8991 48.5921C63.444 47.4122 60.669 46.7476 57.731 46.7476C51.1867 46.7476 45.4512 50.0451 42.2576 54.9902C39.0213 49.5721 32.6201 45.8835 25.2522 45.8835C14.6195 45.8835 5.99998 53.5651 5.99998 63.0408C5.99998 67.017 7.5177 70.6773 10.065 73.5867C8.07801 76.0469 6.89998 79.1084 6.89998 82.4266C6.89998 89.8357 12.773 95.9645 20.411 96.979C20.4037 97.1714 20.4 97.3646 20.4 97.5588C20.4 105.916 27.25 112.691 35.7 112.691C39.6342 112.691 43.2216 111.222 45.9323 108.809C48.9461 113.249 53.9219 116.15 59.55 116.15C59.8519 116.15 60.152 116.141 60.45 116.125C60.748 116.141 61.048 116.15 61.35 116.15C66.978 116.15 71.9539 113.249 74.9676 108.809C77.6783 111.222 81.2657 112.691 85.2 112.691C93.6499 112.691 100.5 105.916 100.5 97.5588C100.5 97.3646 100.496 97.1714 100.489 96.979ZM41.6448 72.0428C40.4404 73.7809 38.8978 75.3131 37.0986 76.5664C37.9358 78.3618 38.4 80.3436 38.4 82.4266C38.4 82.5049 38.3993 82.5831 38.398 82.6611C41.81 83.2615 44.8308 84.9805 47.0589 87.4209C50.1099 83.8281 54.5751 81.5619 59.55 81.5619C59.8519 81.5619 60.152 81.5703 60.45 81.5868C60.748 81.5703 61.048 81.5619 61.35 81.5619C66.3248 81.5619 70.7901 83.8281 73.8411 87.4209C76.0692 84.9805 79.0899 83.2615 82.5019 82.6611C82.5006 82.5831 82.5 82.5049 82.5 82.4266C82.5 81.294 82.6372 80.1914 82.897 79.1323C80.2835 80.5204 77.2724 81.3113 74.0672 81.3113C71.1292 81.3113 68.3542 80.6468 65.8991 79.4668C63.444 80.6468 60.669 81.3113 57.731 81.3113C50.7438 81.3113 44.6787 77.5525 41.6448 72.0428Z" fill="#FAFAFA"/>
<path d="M3.52188 36.1913C3.22815 35.1374 3.87522 34.1195 4.95573 33.9358C8.28251 33.3702 15.4132 32.7145 21.3161 35.9664C29.3101 40.3703 32.025 50.2733 32.025 50.2733C32.025 50.2733 21.0258 54.3027 13.0318 49.8988C7.06716 46.6128 4.4608 39.5603 3.52188 36.1913Z" fill="#FFECD4"/>
<path d="M114.073 36.1913C114.367 35.1374 113.72 34.1195 112.639 33.9358C109.313 33.3702 102.182 32.7145 96.2791 35.9664C88.2851 40.3703 85.5702 50.2733 85.5702 50.2733C85.5702 50.2733 96.5694 54.3027 104.563 49.8988C110.528 46.6128 113.134 39.5603 114.073 36.1913Z" fill="#FFECD4"/>
<g style="mix-blend-mode:multiply">
<path d="M8.34765 38.8452C8.02104 37.8003 8.67065 36.7797 9.75674 36.628C12.1664 36.2915 16.4544 36.0976 20.0578 38.0827C25.3998 41.0256 27.2141 47.6434 27.2141 47.6434C27.2141 47.6434 19.8638 50.3361 14.5217 47.3931C10.8684 45.3805 9.10039 41.2534 8.34765 38.8452Z" fill="#FFECD4" fill-opacity="0.8"/>
</g>
<g style="mix-blend-mode:multiply">
<path d="M109.664 39.2112C109.991 38.1663 109.341 37.1458 108.255 36.9941C105.845 36.6576 101.557 36.4637 97.9539 38.4488C92.6118 41.3917 90.7976 48.0095 90.7976 48.0095C90.7976 48.0095 98.1478 50.7022 103.49 47.7592C107.143 45.7466 108.911 41.6195 109.664 39.2112Z" fill="#FFECD4" fill-opacity="0.8"/>
</g>
<path d="M20.6445 67.0583C19.2198 84.6906 33.1449 99.7863 50.8346 99.7863H67.1503C84.8456 99.7863 98.7725 84.6816 97.3393 67.0445L94.6566 34.0332C93.6982 22.2396 83.8474 13.1568 72.0149 13.1568H45.9548C34.1184 13.1568 24.2656 22.2455 23.3123 34.0435L20.6445 67.0583Z" fill="url(#paint0_linear_205_6)"/>
<ellipse cx="40" cy="70.4285" rx="4" ry="4.33147" fill="#3A211F"/>
<ellipse cx="41.75" cy="68.744" rx="0.75" ry="0.721912" fill="#FAFAFA"/>
<ellipse cx="4" cy="4.33147" rx="4" ry="4.33147" transform="matrix(-1 0 0 1 84 66.097)" fill="#3A211F"/>
<ellipse cx="0.75" cy="0.721912" rx="0.75" ry="0.721912" transform="matrix(-1 0 0 1 82.5 68.0221)" fill="#FAFAFA"/>
<rect x="60.9924" y="78.74" width="1.66414" height="6.94119" rx="0.832068" fill="#3A211F"/>
<path d="M67.714 76.1258C67.714 74.6313 65.0918 73.4198 61.857 73.4198C58.6223 73.4198 56 74.6313 56 76.1258C56 77.6203 58.6223 81.1715 61.8571 81.1715C65.0918 81.1715 67.714 77.6203 67.714 76.1258Z" fill="#3A211F"/>
<ellipse cx="58.5625" cy="75.8863" rx="1.09818" ry="1.05706" fill="#FAFAFA"/>
<path fill-rule="evenodd" clip-rule="evenodd" d="M59.1328 6.83078C60.9099 3.72755 64.4989 1.6062 68.637 1.6062C73.1125 1.6062 76.9456 4.08749 78.539 7.60862C79.7737 7.15933 81.1226 6.912 82.5356 6.912C88.1976 6.912 92.8317 10.8835 93.2028 15.9076C98.3798 17.3926 102 20.7967 102 24.7586C102 27.4547 100.324 29.8925 97.621 31.6429C98.3031 32.913 98.6855 34.3384 98.6855 35.8444C98.6855 41.1722 93.8989 45.4912 87.9943 45.4912C86.5813 45.4912 85.2323 45.2439 83.9976 44.7946C82.4042 48.3156 78.5711 50.7968 74.0957 50.7968C71.361 50.7968 68.8661 49.8703 66.9755 48.3462C65.0633 49.9647 62.4913 50.9559 59.6627 50.9559C56.5953 50.9559 53.8296 49.7903 51.8799 47.9232C49.9412 49.6972 47.2465 50.7968 44.2672 50.7968C39.717 50.7968 35.8307 48.2319 34.2872 44.617C32.9315 45.1782 31.4233 45.4911 29.8341 45.4911C23.9295 45.4911 19.1429 41.172 19.1429 35.8443C19.1429 34.3017 19.5442 32.8436 20.2577 31.5505C17.0068 29.8234 15 27.4503 15 24.8312C15 21.2075 18.8418 18.0545 24.5052 16.4321C24.5804 11.1627 29.3378 6.91203 35.1955 6.91203C36.7847 6.91203 38.2929 7.22489 39.6486 7.78607C41.192 4.17115 45.0783 1.60622 49.6286 1.60622C53.7667 1.60622 57.3557 3.72756 59.1328 6.83078Z" fill="#F8F5F5"/>
<path fill-rule="evenodd" clip-rule="evenodd" d="M59.0548 9.22845C60.6128 6.50778 63.7594 4.64795 67.3873 4.64795C71.3111 4.64795 74.6717 6.82337 76.0687 9.91044C77.1512 9.51652 78.3338 9.29968 79.5726 9.29968C84.5367 9.29968 88.5995 12.7816 88.9249 17.1864C93.4637 18.4883 96.6375 21.4728 96.6375 24.9463C96.6375 27.31 95.1678 29.4472 92.7985 30.9819C93.3964 32.0953 93.7316 33.3449 93.7316 34.6652C93.7316 39.3362 89.5351 43.1228 84.3584 43.1228C83.1196 43.1228 81.9369 42.9059 80.8545 42.512C79.4575 45.599 76.0969 47.7744 72.1732 47.7744C69.7756 47.7744 67.5882 46.9622 65.9307 45.626C64.2542 47.0449 61.9992 47.914 59.5193 47.914C56.8301 47.914 54.4054 46.8921 52.6961 45.2553C50.9963 46.8105 48.6338 47.7746 46.0218 47.7746C42.0324 47.7746 38.6251 45.5258 37.272 42.3565C36.0834 42.8485 34.7611 43.1228 33.3678 43.1228C28.1911 43.1228 23.9945 39.3362 23.9945 34.6652C23.9945 33.3128 24.3463 32.0346 24.9718 30.9009C22.1218 29.3867 20.3624 27.3061 20.3624 25.01C20.3624 21.8329 23.7306 19.0686 28.6958 17.6462C28.7616 13.0264 32.9326 9.29968 38.0682 9.29968C39.4616 9.29968 40.7839 9.57399 41.9725 10.066C43.3256 6.89671 46.7329 4.64795 50.7222 4.64795C54.3502 4.64795 57.4968 6.50778 59.0548 9.22845Z" fill="#FAFAFA"/>
<ellipse cx="36" cy="82.4604" rx="5" ry="4.81275" fill="#FFC6AD"/>
<ellipse cx="85" cy="82.4604" rx="5" ry="4.81275" fill="#FFC6AD"/>
<path d="M47.3564 22.2336C51.7225 19.4937 53.4975 11.9169 53.4975 11.9169C53.4975 11.9169 45.579 10.4233 41.2129 13.1632C36.8468 15.9031 35.0718 23.4798 35.0718 23.4798C35.0718 23.4798 42.9903 24.9735 47.3564 22.2336Z" fill="#34876F"/>
<path d="M76.3233 30.6669C71.9377 26.8318 63.0622 26.82 63.0622 26.82C63.0622 26.82 63.9234 35.3229 68.309 39.158C72.6945 42.9931 81.5701 43.0049 81.5701 43.0049C81.5701 43.0049 80.7089 34.502 76.3233 30.6669Z" fill="#34876F"/>
<path d="M63.5629 84.553C58.4537 83.5613 51.891 86.7135 51.891 86.7135C51.891 86.7135 56.6717 92.0674 61.7809 93.0591C66.8901 94.0508 73.4528 90.8986 73.4528 90.8986C73.4528 90.8986 68.6721 85.5447 63.5629 84.553Z" fill="#34876F"/>
<path d="M74.1306 102.777C75.6142 105.465 80.2865 106.902 80.2865 106.902C80.2865 106.902 81.6649 102.371 80.1813 99.6829C78.6976 96.9948 74.0253 95.5579 74.0253 95.5579C74.0253 95.5579 72.647 100.089 74.1306 102.777Z" fill="#34876F"/>
<path d="M48.3862 38.0135C48.5101 37.945 48.6317 37.8702 48.7508 37.7891C50.7853 36.4032 51.2753 33.7027 49.8451 31.7575C48.4149 29.8123 45.6062 29.3589 43.5716 30.7449C43.3741 30.8794 43.1911 31.0264 43.0231 31.1838C42.8979 29.5079 41.7946 27.9798 40.0857 27.376C37.7741 26.5592 35.2298 27.7432 34.4028 30.0206C33.962 31.2346 34.0982 32.5143 34.6718 33.5684C34.4883 33.5467 34.3016 33.5352 34.1124 33.5347C31.6061 33.528 29.5999 35.4438 29.6313 37.8138C29.6627 40.1839 31.72 42.1107 34.2263 42.1174C34.3616 42.1178 34.4954 42.1125 34.6275 42.1019C34.5732 42.2183 34.5235 42.3381 34.4789 42.461C33.6519 44.7383 34.8555 47.2466 37.1671 48.0634C39.4788 48.8802 42.0231 47.6962 42.8501 45.4189C42.9235 45.2166 42.9809 45.0125 43.023 44.808C43.8418 45.5191 44.9307 45.9553 46.121 45.9585C48.6272 45.9652 50.6335 44.0494 50.6021 41.6793C50.5815 40.1309 49.6963 38.7717 48.3862 38.0135Z" fill="#FFCE05"/>
<g style="mix-blend-mode:multiply">
<ellipse cx="3.30515" cy="3.33261" rx="3.30515" ry="3.33261" transform="matrix(0.188772 0.967914 -0.997288 0.180205 43.7555 34.2438)" fill="#FED402"/>
</g>
<defs>
<linearGradient id="paint0_linear_205_6" x1="57.7454" y1="99.7863" x2="57.521" y2="42.9647" gradientUnits="userSpaceOnUse">
<stop stop-color="#FFECD5"/>
<stop offset="1" stop-color="#FFE9CF"/>
</linearGradient>
</defs>
</svg>
