<svg width="123" height="120" viewBox="0 0 123 120" fill="none" xmlns="http://www.w3.org/2000/svg">
<path fill-rule="evenodd" clip-rule="evenodd" d="M6.64324 1.52642C16.2809 -3.70543 31.3716 5.45287 42.9995 14.7525C48.8135 12.0794 55.1138 10.5367 61.5951 10.5367C68.0493 10.5367 74.2939 12.0666 80.0421 14.7192C91.6644 5.43101 106.731 -3.69918 116.357 1.52642C129.417 8.61603 117.443 40.1826 110.501 55.795C110.6 56.8966 110.651 57.9965 110.651 59.0916C110.651 82.3138 87.8583 101.139 61.5951 101.139C35.3318 101.139 12.039 82.3138 12.039 59.0916C12.039 57.809 12.1101 56.52 12.2487 55.2292C5.27464 39.4325 -6.26067 8.5314 6.64324 1.52642Z" fill="#FFF7DE"/>
<path fill-rule="evenodd" clip-rule="evenodd" d="M17.5833 78.1003C42.2607 77.4994 62.0957 55.5481 62.0957 28.5569C62.0957 22.2302 61.0059 16.1804 59.0194 10.6175C53.4465 10.967 48.0402 12.4349 42.9994 14.7525C31.3715 5.45283 16.2808 -3.70542 6.64324 1.52642C-6.26065 8.53139 5.27461 39.4324 12.2487 55.2291C12.11 56.5199 12.039 57.8089 12.039 59.0915C12.039 65.9323 14.0602 72.3915 17.5833 78.1003Z" fill="#FED402"/>
<path fill-rule="evenodd" clip-rule="evenodd" d="M67.0734 10.9023C71.5798 11.5033 75.9376 12.825 80.0422 14.7192C91.6645 5.43099 106.731 -3.69918 116.357 1.52642C129.417 8.61604 117.443 40.1827 110.5 55.7951C110.6 56.8967 110.651 57.9964 110.651 59.0915C110.651 65.8499 108.72 72.2358 105.335 77.8937C82.2013 75.5294 64.0978 54.3432 64.0978 28.5569C64.0978 22.338 65.1508 16.3867 67.0734 10.9023Z" fill="#FED402"/>
<g style="mix-blend-mode:multiply">
<path d="M9.92902 9.30527C3.21834 13.6519 9.83679 32.3224 13.0911 40.3652C13.7117 41.8988 15.8041 41.9798 16.6537 40.5602C21.6569 32.2008 26.876 27.1587 35.2298 19.9077C36.1799 19.0831 36.1486 17.6111 35.123 16.8826C30.1448 13.3465 16.8448 4.82585 9.92902 9.30527Z" fill="#FED402" fill-opacity="0.5"/>
<path d="M113.261 9.30527C119.972 13.6519 113.353 32.3224 110.099 40.3652C109.479 41.8988 107.386 41.9798 106.536 40.5602C101.533 32.2008 96.3142 27.1587 87.9603 19.9077C87.0103 19.0831 87.0415 17.6111 88.0671 16.8826C93.0454 13.3465 106.345 4.82585 113.261 9.30527Z" fill="#FED402" fill-opacity="0.5"/>
</g>
<ellipse cx="41.5724" cy="50.0814" rx="5.50623" ry="7.00793" fill="#56392B"/>
<ellipse cx="43.5746" cy="49.0801" rx="1.5017" ry="2.00226" fill="white"/>
<ellipse cx="5.50623" cy="7.00793" rx="5.50623" ry="7.00793" transform="matrix(-1 0 0 1 89.1262 43.0734)" fill="#56392B"/>
<ellipse cx="1.5017" cy="2.00226" rx="1.5017" ry="2.00226" transform="matrix(-1 0 0 1 83.1194 47.0778)" fill="white"/>
<path d="M70.1046 63.5966C70.1046 65.5318 66.967 67.1006 63.0967 67.1006C59.2263 67.1006 56.0887 65.5318 56.0887 63.5966C56.0887 61.6615 59.2263 59.0916 63.0967 59.0916C66.967 59.0916 70.1046 61.6615 70.1046 63.5966Z" fill="#56392B"/>
<circle cx="66.1001" cy="62.0949" r="1.00113" fill="white"/>
<path d="M63.0967 62.0949V68.1017C63.0967 70.3133 61.3038 72.1062 59.0922 72.1062H57.5905C56.2082 72.1062 55.0876 70.9857 55.0876 69.6034V69.6034" stroke="#56392B" stroke-width="2" stroke-linecap="round" stroke-linejoin="round"/>
<path d="M63.0968 62.0949V68.1017C63.0968 70.3133 64.8897 72.1062 67.1013 72.1062H68.603C69.9853 72.1062 71.1058 70.9857 71.1058 69.6034V69.6034" stroke="#56392B" stroke-width="2" stroke-linecap="round" stroke-linejoin="round"/>
<ellipse cx="37.0673" cy="64.0972" rx="8.00906" ry="5.00566" fill="#FEB1AA"/>
<ellipse cx="89.1262" cy="64.0972" rx="8.00906" ry="5.00566" fill="#FEB1AA"/>
<path fill-rule="evenodd" clip-rule="evenodd" d="M54.1745 105.161C56.1996 105.161 58.0398 104.458 59.5034 103.634C59.1233 105.716 59.155 107.587 59.1849 109.353L59.1913 109.744C59.2352 112.552 59.2025 115.152 57.6145 118.373C57.3391 118.932 57.5687 119.608 58.1274 119.884C58.686 120.159 59.3621 119.929 59.6375 119.371C61.4737 115.646 61.4915 112.591 61.4465 109.709L61.4411 109.376C61.4034 107.077 61.3676 104.895 62.1212 102.369C63.5071 104.594 64.1494 106.78 64.7942 108.984L64.8114 109.043C65.561 111.605 66.3395 114.267 68.4679 116.655C68.8823 117.12 69.5951 117.161 70.0601 116.746C70.525 116.332 70.566 115.619 70.1515 115.154C68.3903 113.178 67.7269 110.976 66.9589 108.351L66.9395 108.284C66.5709 107.024 66.1788 105.684 65.6137 104.295C66.8032 104.801 68.1575 105.161 69.6065 105.161C71.9505 105.161 74.128 104.706 75.7616 103.92C77.315 103.172 78.747 101.921 78.747 100.175C78.747 98.4304 77.315 97.1793 75.7616 96.4314C74.128 95.6449 71.9505 95.1898 69.6065 95.1898C66.2168 95.1898 63.3455 97.1592 61.8905 98.371C60.4354 97.1592 57.5641 95.1898 54.1745 95.1898C51.8304 95.1898 49.6529 95.6449 48.0193 96.4314C46.4659 97.1793 45.0339 98.4304 45.0339 100.175C45.0339 101.921 46.4659 103.172 48.0193 103.92C49.6529 104.706 51.8304 105.161 54.1745 105.161ZM48.9978 98.4636C47.6511 99.1119 47.2894 99.7899 47.2894 100.175C47.2894 100.561 47.6511 101.239 48.9978 101.887C50.2643 102.497 52.0931 102.906 54.1745 102.906C56.8151 102.906 59.1988 101.292 60.4808 100.218L60.5063 100.154C59.2306 99.0805 56.8327 97.4452 54.1745 97.4452C52.0931 97.4452 50.2643 97.8538 48.9978 98.4636ZM63.5298 100.407C63.4622 100.309 63.3933 100.211 63.3229 100.113C64.6103 99.0399 66.9814 97.4452 69.6065 97.4452C71.6878 97.4452 73.5166 97.8538 74.7831 98.4636C76.1298 99.1119 76.4915 99.7899 76.4915 100.175C76.4915 100.561 76.1298 101.239 74.7831 101.887C73.5166 102.497 71.6878 102.906 69.6065 102.906C67.1163 102.906 64.8545 101.471 63.5298 100.407Z" fill="#ED653B"/>
</svg>
