<svg width="123" height="120" viewBox="0 0 123 120" fill="none" xmlns="http://www.w3.org/2000/svg">
<path d="M31.1185 19.6869C24.176 21.3182 21.1918 55.03 21.1918 55.03L52.8861 48.1533C52.8861 48.1533 37.6753 18.1462 31.1185 19.6869Z" fill="#C4C4C4"/>
<g style="mix-blend-mode:multiply">
<path d="M32.5704 25.5202C27.4019 26.7346 25.1803 51.8319 25.1803 51.8319L48.7756 46.7124C48.7756 46.7124 37.4517 24.3732 32.5704 25.5202Z" fill="#C4C4C4"/>
</g>
<path d="M88.344 19.6869C95.2866 21.3182 98.2708 55.03 98.2708 55.03L66.5764 48.1533C66.5764 48.1533 81.7872 18.1462 88.344 19.6869Z" fill="#C4C4C4"/>
<g style="mix-blend-mode:multiply">
<path d="M86.8922 25.5202C92.0606 26.7346 94.2823 51.8319 94.2823 51.8319L70.6869 46.7124C70.6869 46.7124 82.0108 24.3732 86.8922 25.5202Z" fill="#C4C4C4"/>
</g>
<path d="M63.527 11.6943C54.6571 22.7623 53.1055 29.2324 51.7095 44.6089" stroke="#5EA985" stroke-width="1.10842" stroke-linecap="round"/>
<path d="M59.6723 21.1961C57.8039 21.4845 55.91 22.9727 55.91 22.9727C55.91 22.9727 58.1645 23.8208 60.0329 23.5324C61.9013 23.2441 63.7952 21.7558 63.7952 21.7558C63.7952 21.7558 61.5408 20.9077 59.6723 21.1961Z" fill="#5EA985"/>
<path d="M53.4192 19.8451C54.184 21.574 56.114 23.0151 56.114 23.0151C56.114 23.0151 56.346 20.6176 55.5811 18.8887C54.8163 17.1597 52.8863 15.7186 52.8863 15.7186C52.8863 15.7186 52.6544 18.1161 53.4192 19.8451Z" fill="#5EA985"/>
<path d="M57.4948 27.2111C55.6507 27.6276 53.8639 29.2429 53.8639 29.2429C53.8639 29.2429 56.1715 29.9335 58.0156 29.5171C59.8597 29.1006 61.6465 27.4853 61.6465 27.4853C61.6465 27.4853 59.3389 26.7947 57.4948 27.2111Z" fill="#5EA985"/>
<path d="M55.965 33.1079C54.2257 33.8489 52.7582 35.7589 52.7582 35.7589C52.7582 35.7589 55.1523 36.0238 56.8916 35.2827C58.6309 34.5417 60.0984 32.6317 60.0984 32.6317C60.0984 32.6317 57.7043 32.3669 55.965 33.1079Z" fill="#5EA985"/>
<path d="M50.9152 26.0751C51.7298 27.7812 53.7007 29.1658 53.7007 29.1658C53.7007 29.1658 53.8631 26.7626 53.0485 25.0565C52.2339 23.3504 50.263 21.9658 50.263 21.9658C50.263 21.9658 50.1006 24.369 50.9152 26.0751Z" fill="#5EA985"/>
<path d="M49.4535 33.2782C50.4574 34.8803 52.5734 36.031 52.5734 36.031C52.5734 36.031 52.4606 33.625 51.4567 32.023C50.4528 30.4209 48.3368 29.2702 48.3368 29.2702C48.3368 29.2702 48.4496 31.6762 49.4535 33.2782Z" fill="#5EA985"/>
<path fill-rule="evenodd" clip-rule="evenodd" d="M60.5834 16.0374C60.6384 15.7883 60.7011 15.5474 60.7697 15.3173C60.5772 15.4608 60.3724 15.6023 60.1573 15.7395C58.5377 16.7727 56.9456 17.1726 56.6012 16.6327C56.2568 16.0928 57.2905 14.8176 58.9102 13.7844C59.1252 13.6472 59.3397 13.5212 59.5509 13.4071C59.3134 13.3724 59.0686 13.3277 58.8196 13.2726C56.9437 12.8579 55.5351 12.0149 55.6734 11.3896C55.8116 10.7643 57.4443 10.5936 59.3201 11.0083C59.5692 11.0634 59.8101 11.126 60.0402 11.1946C59.8968 11.0021 59.7553 10.7973 59.6181 10.5822C58.5849 8.96257 58.1849 7.37041 58.7248 7.02601C59.2647 6.68162 60.5399 7.71539 61.5731 9.33501C61.7103 9.55008 61.8363 9.76466 61.9505 9.97591C61.9852 9.73834 62.0299 9.49357 62.085 9.2445C62.4997 7.36868 63.3427 5.96007 63.968 6.09829C64.5933 6.23651 64.764 7.86922 64.3493 9.74505C64.2943 9.99404 64.2317 10.2348 64.1631 10.4648C64.3556 10.3214 64.5603 10.1799 64.7753 10.0428C66.395 9.00957 67.9871 8.60965 68.3315 9.14953C68.6759 9.6894 67.6421 10.9646 66.0225 11.9978C65.8074 12.135 65.5928 12.2611 65.3816 12.3752C65.6192 12.41 65.864 12.4547 66.1131 12.5098C67.989 12.9244 69.3976 13.7675 69.2593 14.3928C69.1211 15.018 67.4884 15.1888 65.6126 14.7741C65.3634 14.719 65.1226 14.6564 64.8924 14.5877C65.0359 14.7803 65.1774 14.9851 65.3146 15.2002C66.3478 16.8198 66.7477 18.412 66.2079 18.7564C65.668 19.1008 64.3928 18.067 63.3596 16.4474C63.2224 16.2323 63.0964 16.0177 62.9822 15.8065C62.9475 16.0441 62.9028 16.2889 62.8477 16.5379C62.433 18.4138 61.59 19.8224 60.9647 19.6841C60.3394 19.5459 60.1687 17.9132 60.5834 16.0374Z" fill="white"/>
<circle cx="62.4664" cy="12.8911" r="1.59431" transform="rotate(-167.535 62.4664 12.8911)" fill="#FFCE05"/>
<path d="M73.2128 18.8799C65.4346 30.7405 64.5048 37.3288 64.5761 52.7684" stroke="#5EA985" stroke-width="1.10842" stroke-linecap="round"/>
<path d="M70.2783 28.7047C68.4457 29.1693 66.7019 30.8308 66.7019 30.8308C66.7019 30.8308 69.0267 31.4608 70.8593 30.9962C72.6919 30.5317 74.4357 28.8702 74.4357 28.8702C74.4357 28.8702 72.1109 28.2401 70.2783 28.7047Z" fill="#5EA985"/>
<path d="M63.9251 27.9541C64.8508 29.6026 66.909 30.8538 66.909 30.8538C66.909 30.8538 66.9121 28.4451 65.9864 26.7966C65.0608 25.1482 63.0026 23.897 63.0026 23.897C63.0026 23.897 62.9995 26.3057 63.9251 27.9541Z" fill="#5EA985"/>
<path d="M68.6822 34.8996C66.886 35.4894 65.2608 37.2672 65.2608 37.2672C65.2608 37.2672 67.6235 37.7355 69.4197 37.1457C71.2159 36.5559 72.8411 34.7781 72.8411 34.7781C72.8411 34.7781 70.4784 34.3098 68.6822 34.8996Z" fill="#5EA985"/>
<path d="M62.0244 34.394C62.9974 36.0149 65.091 37.206 65.091 37.206C65.091 37.206 65.0243 34.7982 64.0513 33.1773C63.0783 31.5564 60.9847 30.3653 60.9847 30.3653C60.9847 30.3653 61.0514 32.773 62.0244 34.394Z" fill="#5EA985"/>
<path fill-rule="evenodd" clip-rule="evenodd" d="M70.6951 23.4831C70.7263 23.2299 70.7657 22.9842 70.8122 22.7486C70.6341 22.9097 70.4438 23.07 70.2427 23.227C68.7286 24.4094 67.1816 24.9588 66.7875 24.4541C66.3933 23.9494 67.3013 22.5817 68.8154 21.3993C69.0165 21.2423 69.2182 21.0964 69.4176 20.9627C69.1778 20.9507 68.9298 20.9294 68.6766 20.8983C66.7698 20.6637 65.2875 19.9583 65.3657 19.3227C65.4439 18.6872 67.053 18.3621 68.9597 18.5966C69.213 18.6278 69.4587 18.6672 69.6943 18.7137C69.5332 18.5357 69.3729 18.3453 69.2158 18.1441C68.0334 16.63 67.484 15.0831 67.9888 14.6889C68.4935 14.2948 69.8611 15.2027 71.0436 16.7169C71.2006 16.9179 71.3464 17.1195 71.4801 17.319C71.4921 17.0792 71.5134 16.8313 71.5445 16.5782C71.7791 14.6715 72.4845 13.1891 73.1201 13.2673C73.7556 13.3455 74.0807 14.9546 73.8462 16.8613C73.815 17.1146 73.7756 17.3603 73.7291 17.5959C73.9071 17.4348 74.0975 17.2745 74.2986 17.1175C75.8127 15.9351 77.3596 15.3857 77.7538 15.8904C78.1479 16.3951 77.24 17.7628 75.7259 18.9452C75.5249 19.1022 75.3233 19.248 75.1239 19.3816C75.3637 19.3936 75.6116 19.4149 75.8647 19.446C77.7714 19.6806 79.2538 20.386 79.1756 21.0216C79.0974 21.6572 77.4883 21.9822 75.5815 21.7477C75.3283 21.7165 75.0826 21.6771 74.847 21.6306C75.0081 21.8087 75.1684 21.999 75.3254 22.2001C76.5078 23.7142 77.0572 25.2612 76.5525 25.6553C76.0478 26.0494 74.6801 25.1415 73.4977 23.6274C73.3407 23.4263 73.1949 23.2247 73.0612 23.0253C73.0492 23.2651 73.0279 23.513 72.9968 23.7662C72.7622 25.6729 72.0568 27.1553 71.4212 27.0771C70.7856 26.9989 70.4606 25.3898 70.6951 23.4831Z" fill="white"/>
<circle cx="72.2707" cy="20.1721" r="1.59431" transform="rotate(-172.987 72.2707 20.1721)" fill="#FFCE05"/>
<path d="M15.6109 61.9805C15.5659 62.094 15.4791 62.1852 15.3692 62.2346C7.59331 65.7317 1.14887 73.1702 0.0228188 76.4106C-0.0718512 76.683 0.140881 76.9419 0.424176 76.9421C5.15064 76.9443 6.28336 77.0078 10.0371 78.7717C10.33 78.9093 10.392 79.3075 10.1549 79.5305L6.49868 82.9688C6.18305 83.2656 6.41105 83.841 6.83925 83.8715C8.56409 83.9943 10.6965 84.5216 13.0129 85.2979C13.1705 85.3507 13.2867 85.4886 13.3173 85.6549C16.9221 105.207 33.7462 120 53.9565 120H65.7717C85.5462 120 102.079 105.839 106.159 86.9133C106.192 86.762 106.296 86.6358 106.437 86.5791C110.058 85.1251 113.512 84.0536 116.07 83.8715C116.498 83.841 116.726 83.2656 116.411 82.9688L112.754 79.5305C112.517 79.3075 112.579 78.9093 112.872 78.7717C116.626 77.0078 117.759 76.9443 122.485 76.9421C122.768 76.9419 122.982 76.6858 122.887 76.4134C121.592 72.6773 113.214 63.3498 103.88 60.9323C103.742 60.8966 103.628 60.7989 103.57 60.6667C97.1308 45.9056 82.6292 35.6139 65.7717 35.6139H53.9565C36.6033 35.6139 21.7465 46.5198 15.6109 61.9805Z" fill="#CFCFCE"/>
<path fill-rule="evenodd" clip-rule="evenodd" d="M104.139 61.0013C101.282 60.384 98.3866 60.2177 95.535 60.5409C79.5339 60.5409 66.1746 75.8676 61.0694 96.9156C55.3791 75.7917 40.1802 61.3191 23.9903 61.3191C20.8495 61.3191 17.8105 61.6845 14.9223 62.4406C7.34754 66.0161 1.12723 73.2325 0.0228188 76.4106C-0.0718512 76.683 0.140881 76.9419 0.424176 76.9421C5.15064 76.9444 6.28336 77.0079 10.0371 78.7717C10.33 78.9093 10.392 79.3075 10.1549 79.5305L6.49868 82.9688C6.18305 83.2657 6.41105 83.841 6.83925 83.8715C8.56409 83.9943 10.6965 84.5216 13.0129 85.2979C13.1705 85.3507 13.2867 85.4886 13.3173 85.6549C15.7832 99.03 24.435 110.178 36.1251 115.887C36.1838 115.915 36.2426 115.944 36.3015 115.972C41.6558 118.555 47.6408 120 53.9565 120L58.9494 120H65.7717C71.9371 120 77.7874 118.623 83.0434 116.155C94.645 110.706 103.351 99.938 106.159 86.9134C106.192 86.7621 106.296 86.6358 106.437 86.5791C110.058 85.1252 113.512 84.0536 116.07 83.8715C116.498 83.841 116.726 83.2657 116.411 82.9688L112.754 79.5305C112.517 79.3075 112.579 78.9093 112.872 78.7717C116.626 77.0079 117.759 76.9444 122.485 76.9421C122.768 76.942 122.982 76.6859 122.887 76.4134C121.604 72.712 113.369 63.5223 104.139 61.0013Z" fill="#F4F4F4"/>
<ellipse cx="33.4793" cy="92.758" rx="5.04482" ry="3.02689" fill="#FFC7AF"/>
<ellipse cx="87.5964" cy="92.758" rx="5.04482" ry="3.02689" fill="#FFC7AF"/>
<circle cx="5.96206" cy="5.96206" r="5.96206" transform="matrix(-1 0 0 1 44.0275 76.8897)" fill="#282828"/>
<circle cx="2.06379" cy="2.06379" r="2.06379" transform="matrix(-1 0 0 1 38.0655 79.6415)" fill="white"/>
<circle cx="1.37586" cy="1.37586" r="1.37586" transform="matrix(-1 0 0 1 40.3586 83.3105)" fill="white"/>
<circle cx="5.96206" cy="5.96206" r="5.96206" transform="matrix(-1 0 0 1 88.9723 76.8897)" fill="#282828"/>
<circle cx="2.06379" cy="2.06379" r="2.06379" transform="matrix(-1 0 0 1 83.0102 79.6415)" fill="white"/>
<circle cx="1.37586" cy="1.37586" r="1.37586" transform="matrix(-1 0 0 1 85.3033 83.3105)" fill="white"/>
<rect x="60.7795" y="94.8378" width="1.77317" height="7.66008" rx="0.886583" fill="#282828"/>
<ellipse cx="61.6306" cy="92.7775" rx="6.02876" ry="3.96355" fill="#282828"/>
<circle cx="58.5453" cy="91.048" r="0.95751" fill="white"/>
<path d="M55.493 99.8208C58.6847 102.693 64.684 102.693 67.8757 99.8208" stroke="#282828" stroke-width="1.93315" stroke-linecap="round"/>
<path d="M19.8667 55.3565C21.5097 55.9554 23.6807 55.4812 24.9416 55.1001C25.5029 54.9305 25.7324 54.3007 25.412 53.8097C24.6921 52.7066 23.3356 50.9465 21.6925 50.3476C20.0495 49.7486 17.8785 50.2229 16.6176 50.6039C16.0563 50.7735 15.8268 51.4033 16.1472 51.8943C16.8671 52.9974 18.2237 54.7575 19.8667 55.3565Z" fill="#5EA985"/>
<path d="M33.1916 54.2001C31.7055 55.1219 29.4834 55.101 28.1713 54.9854C27.5872 54.934 27.2339 54.3644 27.4473 53.8182C27.9267 52.5914 28.8953 50.5914 30.3814 49.6695C31.8675 48.7477 34.0896 48.7686 35.4017 48.8842C35.9858 48.9356 36.3391 49.5052 36.1257 50.0514C35.6463 51.2782 34.6777 53.2782 33.1916 54.2001Z" fill="#5EA985"/>
<path d="M94.9455 51.6525C96.7545 53.2288 100.154 53.279 101.772 53.202C102.285 53.1776 102.662 52.7449 102.616 52.2339C102.471 50.6209 101.956 47.2599 100.147 45.6836C98.3376 44.1073 94.9379 44.057 93.3202 44.1341C92.8076 44.1585 92.4307 44.5911 92.4766 45.1022C92.6216 46.7152 93.1365 50.0761 94.9455 51.6525Z" fill="#5EA985"/>
<path d="M64.1682 91.7712C62.7611 91.089 61.7097 89.4153 61.1494 88.3357C60.8807 87.8179 61.172 87.2171 61.7449 87.1074C62.9396 86.8787 64.9048 86.6676 66.3119 87.3498C67.719 88.032 68.7704 89.7057 69.3307 90.7854C69.5994 91.3032 69.3081 91.9039 68.7352 92.0136C67.5405 92.2424 65.5753 92.4535 64.1682 91.7712Z" fill="#5EA985"/>
<path d="M99.2034 71.5249C97.0244 72.5295 93.7475 71.6226 92.2166 71.0941C91.7315 70.9267 91.4913 70.4056 91.6789 69.928C92.2713 68.4207 93.7097 65.3398 95.8887 64.3352C98.0677 63.3305 101.345 64.2375 102.876 64.7659C103.361 64.9333 103.601 65.4544 103.413 65.932C102.821 67.4393 101.382 70.5202 99.2034 71.5249Z" fill="#5EA985"/>
<path fill-rule="evenodd" clip-rule="evenodd" d="M23.8392 50.7238C23.8943 50.4747 23.9569 50.2338 24.0256 50.0037C23.833 50.1471 23.6282 50.2886 23.4132 50.4258C21.7935 51.459 20.2014 51.8589 19.857 51.319C19.5126 50.7792 20.5464 49.5039 22.166 48.4707C22.381 48.3335 22.5956 48.2075 22.8069 48.0934C22.5693 48.0586 22.3245 48.0139 22.0754 47.9588C20.1996 47.5442 18.791 46.7011 18.9292 46.0759C19.0674 45.4506 20.7001 45.2799 22.5759 45.6945C22.825 45.7496 23.0659 45.8122 23.296 45.8809C23.1526 45.6883 23.0111 45.4836 22.8739 45.2685C21.8407 43.6489 21.4408 42.0567 21.9806 41.7123C22.5205 41.3679 23.7957 42.4017 24.8289 44.0213C24.9661 44.2364 25.0922 44.451 25.2063 44.6622C25.241 44.4246 25.2858 44.1799 25.3408 43.9308C25.7555 42.055 26.5985 40.6464 27.2238 40.7846C27.8491 40.9228 28.0198 42.5555 27.6052 44.4313C27.5501 44.6804 27.4875 44.9212 27.4188 45.1513C27.6114 45.0078 27.8161 44.8664 28.0312 44.7292C29.6508 43.696 31.2429 43.2961 31.5873 43.836C31.9317 44.3758 30.898 45.6511 29.2783 46.6842C29.0633 46.8215 28.8487 46.9475 28.6374 47.0616C28.875 47.0964 29.1198 47.1411 29.3689 47.1962C31.2448 47.6108 32.6534 48.4539 32.5152 49.0792C32.3769 49.7044 30.7442 49.8752 28.8684 49.4605C28.6193 49.4054 28.3784 49.3428 28.1483 49.2741C28.2918 49.4667 28.4333 49.6715 28.5705 49.8865C29.6037 51.5062 30.0036 53.0983 29.4637 53.4427C28.9238 53.7871 27.6486 52.7533 26.6154 51.1337C26.4782 50.9187 26.3522 50.7041 26.238 50.4929C26.2033 50.7304 26.1586 50.9752 26.1035 51.2243C25.6888 53.1002 24.8458 54.5088 24.2205 54.3705C23.5953 54.2323 23.4245 52.5996 23.8392 50.7238Z" fill="white"/>
<circle cx="25.7222" cy="47.5775" r="1.59431" transform="rotate(-167.535 25.7222 47.5775)" fill="#FFCE05"/>
</svg>
