<svg width="120" height="120" viewBox="0 0 120 120" fill="none" xmlns="http://www.w3.org/2000/svg">
<path d="M30.3817 19.6869C23.6036 21.3182 20.69 55.03 20.69 55.03L51.6339 48.1533C51.6339 48.1533 36.7833 18.1462 30.3817 19.6869Z" fill="#C4C4C4"/>
<g style="mix-blend-mode:multiply">
<path d="M31.7992 25.5201C26.7531 26.7346 24.5841 51.8318 24.5841 51.8318L47.6208 46.7123C47.6208 46.7123 36.565 24.3731 31.7992 25.5201Z" fill="#C4C4C4"/>
</g>
<path d="M86.2523 19.6869C93.0305 21.3182 95.9441 55.03 95.9441 55.03L65.0001 48.1533C65.0001 48.1533 79.8508 18.1462 86.2523 19.6869Z" fill="#C4C4C4"/>
<g style="mix-blend-mode:multiply">
<path d="M84.8348 25.5201C89.8809 26.7346 92.05 51.8318 92.05 51.8318L69.0133 46.7123C69.0133 46.7123 80.0691 24.3731 84.8348 25.5201Z" fill="#C4C4C4"/>
</g>
<path d="M62.0229 11.6943C53.363 22.7623 51.8481 29.2324 50.4852 44.6089" stroke="#5EA985" stroke-width="1.10842" stroke-linecap="round"/>
<path d="M58.2595 21.1961C56.4353 21.4845 54.5863 22.9727 54.5863 22.9727C54.5863 22.9727 56.7873 23.8208 58.6115 23.5324C60.4357 23.2441 62.2847 21.7558 62.2847 21.7558C62.2847 21.7558 60.0837 20.9077 58.2595 21.1961Z" fill="#5EA985"/>
<path d="M52.1544 19.8451C52.9011 21.574 54.7854 23.0151 54.7854 23.0151C54.7854 23.0151 55.0119 20.6176 54.2651 18.8887C53.5184 17.1597 51.6341 15.7186 51.6341 15.7186C51.6341 15.7186 51.4077 18.1161 52.1544 19.8451Z" fill="#5EA985"/>
<path d="M56.1335 27.2112C54.3331 27.6277 52.5886 29.2429 52.5886 29.2429C52.5886 29.2429 54.8415 29.9336 56.642 29.5171C58.4424 29.1007 60.1869 27.4854 60.1869 27.4854C60.1869 27.4854 57.934 26.7947 56.1335 27.2112Z" fill="#5EA985"/>
<path d="M54.6399 33.1079C52.9418 33.8489 51.5091 35.7589 51.5091 35.7589C51.5091 35.7589 53.8465 36.0238 55.5446 35.2827C57.2427 34.5417 58.6754 32.6317 58.6754 32.6317C58.6754 32.6317 56.338 32.3669 54.6399 33.1079Z" fill="#5EA985"/>
<path d="M49.7097 26.0751C50.505 27.7812 52.4293 29.1658 52.4293 29.1658C52.4293 29.1658 52.5878 26.7626 51.7925 25.0565C50.9972 23.3504 49.0729 21.9658 49.0729 21.9658C49.0729 21.9658 48.9144 24.369 49.7097 26.0751Z" fill="#5EA985"/>
<path d="M48.2826 33.2782C49.2627 34.8802 51.3286 36.0309 51.3286 36.0309C51.3286 36.0309 51.2185 33.6249 50.2383 32.0229C49.2582 30.4209 47.1923 29.2701 47.1923 29.2701C47.1923 29.2701 47.3025 31.6762 48.2826 33.2782Z" fill="#5EA985"/>
<path fill-rule="evenodd" clip-rule="evenodd" d="M59.1489 16.0374C59.2027 15.7883 59.2638 15.5475 59.3309 15.3174C59.1429 15.4609 58.943 15.6023 58.733 15.7395C57.1517 16.7727 55.5973 17.1727 55.261 16.6328C54.9248 16.0929 55.9341 14.8177 57.5154 13.7845C57.7253 13.6473 57.9348 13.5213 58.141 13.4072C57.9091 13.3724 57.6701 13.3277 57.4269 13.2726C55.5955 12.858 54.2202 12.0149 54.3552 11.3896C54.4901 10.7644 56.0842 10.5936 57.9156 11.0083C58.1589 11.0634 58.3941 11.126 58.6187 11.1947C58.4786 11.0021 58.3405 10.7973 58.2065 10.5821C57.1978 8.96252 56.8073 7.37036 57.3344 7.02596C57.8615 6.68156 59.1065 7.71534 60.1153 9.33496C60.2492 9.55004 60.3723 9.76463 60.4837 9.97588C60.5176 9.73834 60.5613 9.49358 60.615 9.24454C61.0199 7.36871 61.843 5.96011 62.4534 6.09833C63.0639 6.23655 63.2306 7.86926 62.8257 9.74509C62.772 9.99413 62.7109 10.2349 62.6439 10.465C62.8318 10.3215 63.0317 10.1801 63.2417 10.0429C64.8229 9.00971 66.3774 8.60979 66.7137 9.14967C67.0499 9.68954 66.0406 10.9648 64.4593 11.998C64.2494 12.1351 64.0399 12.2611 63.8337 12.3753C64.0657 12.41 64.3046 12.4547 64.5478 12.5098C66.3792 12.9244 67.7544 13.7675 67.6195 14.3928C67.4845 15.018 65.8905 15.1888 64.0591 14.7741C63.8159 14.719 63.5807 14.6564 63.356 14.5877C63.4961 14.7803 63.6342 14.9851 63.7682 15.2002C64.7769 16.8198 65.1674 18.412 64.6403 18.7564C64.1132 19.1008 62.8682 18.067 61.8594 16.4474C61.7255 16.2323 61.6024 16.0177 61.491 15.8065C61.4571 16.0441 61.4134 16.2889 61.3597 16.5379C60.9548 18.4138 60.1317 19.8224 59.5213 19.6841C58.9108 19.5459 58.7441 17.9132 59.1489 16.0374Z" fill="white"/>
<ellipse cx="1.56555" cy="1.58547" rx="1.56555" ry="1.58547" transform="matrix(-0.970817 -0.219812 0.211911 -0.981866 62.1712 14.792)" fill="#FFCE05"/>
<path d="M71.4794 18.88C63.8854 30.7407 62.9775 37.3289 63.0471 52.7685" stroke="#5EA985" stroke-width="1.10842" stroke-linecap="round"/>
<path d="M68.6144 28.7049C66.8252 29.1694 65.1226 30.8309 65.1226 30.8309C65.1226 30.8309 67.3923 31.461 69.1815 30.9964C70.9707 30.5318 72.6733 28.8703 72.6733 28.8703C72.6733 28.8703 70.4036 28.2403 68.6144 28.7049Z" fill="#5EA985"/>
<path d="M62.4116 27.9542C63.3153 29.6027 65.3248 30.8539 65.3248 30.8539C65.3248 30.8539 65.3278 28.4452 64.4241 26.7968C63.5203 25.1483 61.5109 23.8971 61.5109 23.8971C61.5109 23.8971 61.5079 26.3058 62.4116 27.9542Z" fill="#5EA985"/>
<path d="M67.056 34.8998C65.3024 35.4896 63.7156 37.2673 63.7156 37.2673C63.7156 37.2673 66.0224 37.7356 67.7761 37.1458C69.5298 36.556 71.1165 34.7782 71.1165 34.7782C71.1165 34.7782 68.8097 34.31 67.056 34.8998Z" fill="#5EA985"/>
<path d="M60.5559 34.3941C61.5059 36.0151 63.5499 37.2061 63.5499 37.2061C63.5499 37.2061 63.4848 34.7984 62.5348 33.1774C61.5848 31.5565 59.5408 30.3654 59.5408 30.3654C59.5408 30.3654 59.6059 32.7732 60.5559 34.3941Z" fill="#5EA985"/>
<path fill-rule="evenodd" clip-rule="evenodd" d="M69.0213 23.4831C69.0517 23.2299 69.0902 22.9842 69.1356 22.7486C68.9618 22.9097 68.7759 23.07 68.5796 23.227C67.1013 24.4094 65.591 24.9588 65.2062 24.4541C64.8214 23.9493 65.7078 22.5817 67.1861 21.3993C67.3824 21.2423 67.5792 21.0964 67.7739 20.9627C67.5398 20.9508 67.2977 20.9295 67.0506 20.8983C65.189 20.6638 63.7417 19.9584 63.8181 19.3228C63.8944 18.6872 65.4654 18.3621 67.327 18.5967C67.5743 18.6279 67.8143 18.6673 68.0444 18.7138C67.887 18.5357 67.7304 18.3452 67.577 18.144C66.4226 16.6299 65.8862 15.0829 66.379 14.6888C66.8718 14.2947 68.2071 15.2026 69.3615 16.7167C69.5148 16.9178 69.6572 17.1194 69.7877 17.3189C69.7994 17.0791 69.8202 16.8313 69.8506 16.5782C70.0796 14.6714 70.7683 13.1891 71.3888 13.2673C72.0093 13.3455 72.3267 14.9546 72.0977 16.8613C72.0673 17.1145 72.0288 17.3603 71.9834 17.5959C72.1572 17.4348 72.3431 17.2745 72.5394 17.1175C74.0177 15.9351 75.528 15.3857 75.9128 15.8904C76.2976 16.3951 75.4112 17.7628 73.9329 18.9452C73.7367 19.1022 73.5399 19.248 73.3452 19.3816C73.5793 19.3936 73.8213 19.4149 74.0685 19.4461C75.9301 19.6806 77.3773 20.386 77.301 21.0216C77.2246 21.6572 75.6536 21.9823 73.792 21.7477C73.5449 21.7166 73.305 21.6771 73.075 21.6306C73.2323 21.8087 73.3887 21.999 73.542 22.2C74.6964 23.7141 75.2328 25.2611 74.74 25.6552C74.2472 26.0494 72.9119 25.1414 71.7575 23.6273C71.6042 23.4262 71.4619 23.2246 71.3313 23.0252C71.3196 23.265 71.2988 23.513 71.2684 23.7662C71.0394 25.6729 70.3507 27.1553 69.7302 27.0771C69.1097 26.9989 68.7923 25.3898 69.0213 23.4831Z" fill="white"/>
<ellipse cx="1.56648" cy="1.58456" rx="1.56648" ry="1.58456" transform="matrix(-0.986233 -0.124265 0.119938 -0.998623 71.9144 21.9491)" fill="#FFCE05"/>
<path d="M15.2413 61.9805C15.1973 62.094 15.1126 62.1852 15.0053 62.2346C7.41352 65.7317 1.12167 73.1702 0.0222785 76.4106C-0.07015 76.683 0.137545 76.9419 0.414133 76.9421C5.02869 76.9443 6.13459 77.0078 9.79946 78.7717C10.0854 78.9093 10.1459 79.3075 9.91444 79.5305L6.34481 82.9688C6.03665 83.2656 6.25925 83.841 6.67732 83.8715C8.36132 83.9943 10.4433 84.5216 12.7048 85.2979C12.8587 85.3507 12.9721 85.4886 13.002 85.6549C16.5214 105.207 32.9472 120 52.679 120H64.2145C83.5207 120 99.662 105.839 103.646 86.9133C103.678 86.762 103.779 86.6358 103.917 86.5791C107.452 85.1251 110.825 84.0536 113.322 83.8715C113.74 83.841 113.963 83.2656 113.654 82.9688L110.085 79.5305C109.853 79.3075 109.914 78.9093 110.2 78.7717C113.865 77.0078 114.971 76.9443 119.585 76.9421C119.862 76.9419 120.07 76.6858 119.978 76.4134C118.713 72.6773 110.534 63.3498 101.42 60.9323C101.286 60.8966 101.174 60.7989 101.118 60.6667C94.8311 45.9056 80.6728 35.6139 64.2145 35.6139H52.679C35.7366 35.6139 21.2317 46.5198 15.2413 61.9805Z" fill="#CFCFCE"/>
<path fill-rule="evenodd" clip-rule="evenodd" d="M101.673 61.0012C98.8836 60.384 96.0569 60.2178 93.273 60.541C77.6507 60.541 64.6078 75.8677 59.6234 96.9157C54.0679 75.7918 39.2288 61.3192 23.4222 61.3192C20.3558 61.3192 17.3888 61.6846 14.569 62.4407C7.17354 66.0162 1.10054 73.2325 0.0222785 76.4107C-0.07015 76.6831 0.137545 76.942 0.414133 76.9421C5.02869 76.9444 6.13459 77.0079 9.79946 78.7718C10.0854 78.9094 10.1459 79.3076 9.91444 79.5306L6.34481 82.9689C6.03665 83.2657 6.25925 83.8411 6.67732 83.8716C8.36133 83.9944 10.4433 84.5217 12.7048 85.2979C12.8587 85.3508 12.9721 85.4886 13.002 85.655C15.4095 99.0301 23.8565 110.178 35.2698 115.887C35.2698 115.887 35.2698 115.887 35.2698 115.887C40.5411 118.524 46.445 120 52.679 120H57.5536H64.2145C70.2339 120 75.9456 118.623 81.0771 116.155C92.4041 110.706 100.904 99.9381 103.646 86.9135C103.678 86.7621 103.779 86.6359 103.917 86.5792C107.452 85.1253 110.825 84.0537 113.322 83.8716C113.74 83.8411 113.963 83.2658 113.654 82.9689L110.085 79.5306C109.853 79.3076 109.914 78.9094 110.2 78.7718C113.865 77.008 114.971 76.9445 119.585 76.9422C119.862 76.942 120.07 76.686 119.978 76.4135C118.724 72.712 110.685 63.522 101.673 61.0012Z" fill="#F4F4F4"/>
<ellipse cx="32.6866" cy="92.758" rx="4.92537" ry="3.02689" fill="#FFC7AF"/>
<ellipse cx="85.5224" cy="92.758" rx="4.92537" ry="3.02689" fill="#FFC7AF"/>
<ellipse cx="5.8209" cy="5.96206" rx="5.8209" ry="5.96206" transform="matrix(-1 0 0 1 42.9851 76.8898)" fill="#282828"/>
<ellipse cx="2.01493" cy="2.06379" rx="2.01493" ry="2.06379" transform="matrix(-1 0 0 1 37.1642 79.6415)" fill="white"/>
<ellipse cx="1.34328" cy="1.37586" rx="1.34328" ry="1.37586" transform="matrix(-1 0 0 1 39.403 83.3104)" fill="white"/>
<ellipse cx="5.8209" cy="5.96206" rx="5.8209" ry="5.96206" transform="matrix(-1 0 0 1 86.8657 76.8898)" fill="#282828"/>
<ellipse cx="2.01493" cy="2.06379" rx="2.01493" ry="2.06379" transform="matrix(-1 0 0 1 81.0448 79.6415)" fill="white"/>
<ellipse cx="1.34328" cy="1.37586" rx="1.34328" ry="1.37586" transform="matrix(-1 0 0 1 83.2836 83.3105)" fill="white"/>
<rect x="59.3404" y="94.8378" width="1.73118" height="7.66008" rx="0.865592" fill="#282828"/>
<ellipse cx="60.1714" cy="92.7774" rx="5.88602" ry="3.96355" fill="#282828"/>
<ellipse cx="57.1591" cy="91.048" rx="0.934839" ry="0.95751" fill="white"/>
<path d="M54.1791 99.8207C57.2952 102.693 63.1525 102.693 66.2687 99.8207" stroke="#282828" stroke-width="1.93315" stroke-linecap="round"/>
<path d="M19.3963 55.3566C21.0025 55.9563 23.1255 55.4801 24.3558 55.0988C24.9048 54.9286 25.1263 54.3062 24.813 53.8141C24.1109 52.7113 22.7851 50.9474 21.1789 50.3477C19.5728 49.748 17.4497 50.2242 16.2194 50.6055C15.6704 50.7756 15.4489 51.3981 15.7622 51.8902C16.4643 52.993 17.7901 54.7569 19.3963 55.3566Z" fill="#5EA985"/>
<path d="M32.4057 54.2001C30.9558 55.1213 28.7881 55.1011 27.5067 54.9857C26.933 54.9341 26.5886 54.3654 26.7983 53.816C27.2667 52.5889 28.2121 50.5908 29.662 49.6696C31.112 48.7484 33.2797 48.7687 34.5611 48.884C35.1348 48.9357 35.4792 49.5043 35.2695 50.0538C34.8011 51.2808 33.8557 53.2789 32.4057 54.2001Z" fill="#5EA985"/>
<path d="M92.6975 51.6525C94.461 53.2264 97.7727 53.2789 99.355 53.2023C99.8602 53.1779 100.231 52.7423 100.185 52.2264C100.043 50.6105 99.539 47.2575 97.7755 45.6836C96.0121 44.1097 92.7003 44.0572 91.118 44.1337C90.6128 44.1582 90.2422 44.5938 90.2877 45.1097C90.4302 46.7256 90.9341 50.0786 92.6975 51.6525Z" fill="#5EA985"/>
<path d="M62.6489 91.7713C61.2745 91.0888 60.2477 89.4139 59.7009 88.3343C59.4376 87.8145 59.72 87.218 60.2815 87.1078C61.4477 86.8789 63.3675 86.6673 64.7419 87.3499C66.1163 88.0324 67.143 89.7072 67.6898 90.7868C67.9531 91.3066 67.6708 91.9032 67.1092 92.0134C65.943 92.2422 64.0233 92.4538 62.6489 91.7713Z" fill="#5EA985"/>
<path d="M96.8546 71.525C94.7257 72.5303 91.5234 71.6214 90.0301 71.0932C89.5563 70.9255 89.3238 70.4091 89.5071 69.9312C90.0847 68.4251 91.4895 65.3406 93.6184 64.3353C95.7472 63.33 98.9496 64.2388 100.443 64.7671C100.917 64.9347 101.149 65.4511 100.966 65.929C100.388 67.4352 98.9835 70.5197 96.8546 71.525Z" fill="#5EA985"/>
<path fill-rule="evenodd" clip-rule="evenodd" d="M23.2748 50.7239C23.3285 50.4748 23.3897 50.2339 23.4567 50.0038C23.2687 50.1473 23.0688 50.2887 22.8588 50.4259C21.2775 51.4591 19.7231 51.8591 19.3868 51.3192C19.0506 50.7793 20.0599 49.5041 21.6412 48.4709C21.8512 48.3337 22.0607 48.2076 22.267 48.0935C22.035 48.0587 21.7959 48.014 21.5527 47.9589C19.7213 47.5442 18.3461 46.7012 18.481 46.0759C18.616 45.4507 20.21 45.2799 22.0414 45.6946C22.2846 45.7496 22.5197 45.8123 22.7443 45.8809C22.6043 45.6884 22.4662 45.4837 22.3323 45.2687C21.3236 43.649 20.9331 42.0569 21.4602 41.7125C21.9873 41.3681 23.2323 42.4019 24.2411 44.0215C24.375 44.2365 24.4981 44.4511 24.6095 44.6624C24.6434 44.4248 24.6871 44.18 24.7408 43.9309C25.1457 42.0551 25.9688 40.6465 26.5792 40.7847C27.1897 40.923 27.3564 42.5557 26.9515 44.4315C26.8978 44.6805 26.8367 44.9213 26.7697 45.1514C26.9576 45.0079 27.1575 44.8665 27.3675 44.7293C28.9488 43.6961 30.5032 43.2962 30.8395 43.8361C31.1757 44.3759 30.1664 45.6512 28.5851 46.6844C28.3751 46.8216 28.1656 46.9476 27.9594 47.0618C28.1914 47.0965 28.4304 47.1412 28.6736 47.1963C30.505 47.611 31.8803 48.454 31.7453 49.0793C31.6104 49.7046 30.0163 49.8753 28.1849 49.4606C27.9417 49.4055 27.7065 49.3429 27.4818 49.2743C27.6219 49.4668 27.76 49.6716 27.894 49.8867C28.9027 51.5063 29.2932 53.0985 28.7661 53.4429C28.239 53.7873 26.994 52.7535 25.9852 51.1339C25.8513 50.9188 25.7282 50.7043 25.6168 50.493C25.5829 50.7306 25.5392 50.9754 25.4855 51.2245C25.0806 53.1003 24.2575 54.5089 23.6471 54.3707C23.0366 54.2324 22.8699 52.5997 23.2748 50.7239Z" fill="white"/>
<ellipse cx="1.55834" cy="1.59257" rx="1.55834" ry="1.59257" transform="matrix(-0.975312 -0.220829 0.210967 -0.977493 26.2971 49.4785)" fill="#FFCE05"/>
</svg>
