<svg width="120" height="125" viewBox="0 0 120 125" fill="none" xmlns="http://www.w3.org/2000/svg">
<path fill-rule="evenodd" clip-rule="evenodd" d="M40.2502 73.7348C38.9228 75.7288 37.2225 77.4865 35.2394 78.9243C36.1621 80.984 36.6738 83.2576 36.6738 85.6472C36.6738 85.737 36.6731 85.8267 36.6716 85.9162C40.4324 86.605 43.7618 88.577 46.2176 91.3766C49.5804 87.255 54.502 84.6552 59.9853 84.6552C60.3181 84.6552 60.6488 84.6648 60.9772 84.6837C61.3057 84.6648 61.6364 84.6552 61.9692 84.6552C67.4525 84.6552 72.3741 87.255 75.7369 91.3766C78.1927 88.5769 81.5222 86.605 85.2829 85.9162C85.2815 85.8267 85.2808 85.737 85.2808 85.6472C85.2808 84.3479 85.432 83.0829 85.7184 81.8679C82.8378 83.4603 79.5189 84.3677 75.9862 84.3677C72.7479 84.3677 69.6893 83.6053 66.9833 82.2517C64.2772 83.6053 61.2187 84.3677 57.9804 84.3677C50.2792 84.3677 43.5943 80.0555 40.2502 73.7348ZM105.108 102.342C113.527 101.178 120 94.1469 120 85.6472C120 81.6766 118.587 78.0266 116.224 75.1454C118.6 71.8849 120 67.8798 120 63.5507C120 52.6012 111.043 43.7249 99.9937 43.7249C95.1863 43.7249 90.7749 45.4053 87.325 48.2056C84.1023 46.0047 80.1961 44.7161 75.9862 44.7161C72.7479 44.7161 69.6893 45.4785 66.9833 46.8321C64.2772 45.4785 61.2187 44.7161 57.9804 44.7161C50.7672 44.7161 44.4457 48.499 40.9257 54.172C37.3586 47.9564 30.3032 43.7249 22.1823 43.7249C10.4629 43.7249 0.962555 52.5372 0.962555 63.4078C0.962555 67.9693 2.63538 72.1684 5.44302 75.506C3.25295 78.3284 1.95454 81.8405 1.95454 85.6472C1.95454 94.1469 8.42773 101.178 16.8464 102.342C16.8383 102.562 16.8342 102.784 16.8342 103.007C16.8342 112.594 24.3843 120.366 33.6979 120.366C38.0342 120.366 41.9882 118.682 44.9759 115.913C48.2977 121.007 53.7821 124.334 59.9853 124.334C60.3181 124.334 60.6489 124.325 60.9774 124.306C61.3058 124.325 61.6365 124.334 61.9692 124.334C68.1725 124.334 73.6569 121.007 76.9786 115.913C79.9664 118.682 83.9204 120.366 88.2567 120.366C97.5702 120.366 105.12 112.594 105.12 103.007C105.12 102.784 105.116 102.562 105.108 102.342Z" fill="#F8F5F5"/>
<path fill-rule="evenodd" clip-rule="evenodd" d="M100.645 100.61C108.222 99.564 114.048 93.2478 114.048 85.6122C114.048 82.0453 112.777 78.7663 110.65 76.1781C112.788 73.249 114.048 69.6512 114.048 65.7622C114.048 55.9258 105.987 47.9519 96.0425 47.9519C91.7158 47.9519 87.7455 49.4614 84.6406 51.9771C81.7402 49.9999 78.2246 48.8424 74.4357 48.8424C71.5212 48.8424 68.7685 49.5273 66.3331 50.7433C63.8976 49.5273 61.1449 48.8424 58.2305 48.8424C51.7386 48.8424 46.0492 52.2407 42.8813 57.337C39.6709 51.7532 33.321 47.9519 26.0122 47.9519C15.4648 47.9519 6.91443 55.8683 6.91443 65.6338C6.91443 69.7315 8.41997 73.5037 10.9469 76.502C8.97578 79.0375 7.80721 82.1925 7.80721 85.6122C7.80721 93.2478 13.6331 99.564 21.2099 100.61C21.2026 100.808 21.1989 101.007 21.1989 101.207C21.1989 109.82 27.994 116.802 36.3762 116.802C40.2789 116.802 43.8375 115.288 46.5265 112.801C49.5161 117.377 54.452 120.366 60.0349 120.366C60.3344 120.366 60.6321 120.358 60.9277 120.341C61.2233 120.358 61.5209 120.366 61.8205 120.366C67.4034 120.366 72.3393 117.377 75.3289 112.801C78.0178 115.288 81.5765 116.802 85.4791 116.802C93.8613 116.802 100.656 109.82 100.656 101.207C100.656 101.007 100.653 100.808 100.645 100.61ZM42.2733 74.9109C41.0786 76.7022 39.5483 78.2812 37.7636 79.5728C38.5941 81.4231 39.0545 83.4655 39.0545 85.6122C39.0545 85.693 39.0539 85.7735 39.0526 85.8539C42.4372 86.4727 45.4338 88.2442 47.644 90.7592C50.6705 87.0566 55.0999 84.7211 60.0349 84.7211C60.3344 84.7211 60.6321 84.7297 60.9277 84.7467C61.2233 84.7297 61.5209 84.7211 61.8205 84.7211C66.7554 84.7211 71.1849 87.0566 74.2114 90.7592C76.4216 88.2442 79.4181 86.4727 82.8028 85.8539C82.8015 85.7735 82.8008 85.693 82.8008 85.6122C82.8008 84.445 82.9369 83.3086 83.1947 82.2172C80.6021 83.6477 77.6151 84.4629 74.4357 84.4629C71.5212 84.4629 68.7685 83.778 66.3331 82.562C63.8976 83.778 61.1449 84.4629 58.2305 84.4629C51.2994 84.4629 45.2829 80.5891 42.2733 74.9109Z" fill="#FAFAFA"/>
<path d="M4.44441 37.9195C4.1618 36.8599 4.8143 35.8264 5.89433 35.6363C9.20116 35.054 16.2615 34.3857 22.1077 37.7317C30.0376 42.2703 32.7306 52.476 32.7306 52.476C32.7306 52.476 21.8197 56.6286 13.8898 52.0901C7.9479 48.6893 5.36567 41.3737 4.44441 37.9195Z" fill="#FFECD4"/>
<path d="M114.133 37.9195C114.415 36.8599 113.763 35.8264 112.683 35.6363C109.376 35.054 102.316 34.3857 96.4694 37.7317C88.5395 42.2703 85.8464 52.476 85.8464 52.476C85.8464 52.476 96.7573 56.6286 104.687 52.0901C110.629 48.6893 113.211 41.3737 114.133 37.9195Z" fill="#FFECD4"/>
<g style="mix-blend-mode:multiply">
<path d="M9.22993 40.6541C8.91618 39.6033 9.57146 38.568 10.6569 38.4113C13.0501 38.0659 17.2929 37.8715 20.8594 39.9127C26.1587 42.9457 27.9583 49.7658 27.9583 49.7658C27.9583 49.7658 20.667 52.5408 15.3678 49.5079C11.7221 47.4213 9.96899 43.1293 9.22993 40.6541Z" fill="#FFECD4" fill-opacity="0.8"/>
</g>
<g style="mix-blend-mode:multiply">
<path d="M109.76 41.0313C110.074 39.9805 109.419 38.9452 108.333 38.7886C105.94 38.4432 101.697 38.2487 98.1307 40.29C92.8315 43.3229 91.0318 50.143 91.0318 50.143C91.0318 50.143 98.3231 52.9181 103.622 49.8851C107.268 47.7985 109.021 43.5066 109.76 41.0313Z" fill="#FFECD4" fill-opacity="0.8"/>
</g>
<path d="M21.3566 70.8656C19.9877 88.466 33.9003 103.503 51.5539 103.503H67.4103C85.0691 103.503 98.9836 88.4574 97.6065 70.8523L94.8153 35.1695C93.8905 23.3468 84.027 14.2247 72.1682 14.2247H46.7801C34.9174 14.2247 25.0521 23.3525 24.1322 35.1795L21.3566 70.8656Z" fill="url(#paint0_linear_205_6)"/>
<ellipse cx="40.6417" cy="73.2474" rx="3.96792" ry="4.4639" fill="#3A211F"/>
<circle cx="42.3777" cy="71.5114" r="0.743984" fill="#FAFAFA"/>
<ellipse cx="3.96792" cy="4.4639" rx="3.96792" ry="4.4639" transform="matrix(-1 0 0 1 84.2888 68.7834)" fill="#3A211F"/>
<circle cx="0.743984" cy="0.743984" r="0.743984" transform="matrix(-1 0 0 1 82.8008 70.7675)" fill="#FAFAFA"/>
<rect x="61.4657" y="81.8132" width="1.65079" height="7.15341" rx="0.825394" fill="#3A211F"/>
<path d="M68.1334 79.119C68.1334 77.5788 65.5322 76.3302 62.3234 76.3302C59.1146 76.3302 56.5134 77.5788 56.5134 79.119C56.5134 80.6592 59.1147 84.319 62.3234 84.319C65.5322 84.319 68.1334 80.6592 68.1334 79.119Z" fill="#3A211F"/>
<circle cx="59.0553" cy="78.8722" r="1.08938" fill="#FAFAFA"/>
<path fill-rule="evenodd" clip-rule="evenodd" d="M50.1931 2.32104C45.6794 2.32104 41.8243 4.96429 40.2932 8.68961C38.9484 8.11125 37.4522 7.78881 35.8758 7.78881C30.065 7.78881 25.3458 12.1695 25.2712 17.6C19.6532 19.272 15.8422 22.5214 15.8422 26.2559C15.8422 28.9551 17.8329 31.4008 21.0578 33.1807C20.35 34.5134 19.9519 36.016 19.9519 37.6058C19.9519 43.0965 24.7001 47.5476 30.5574 47.5476C32.1338 47.5476 33.6299 47.2251 34.9748 46.6468C36.5058 50.3721 40.361 53.0155 44.8747 53.0155C47.8301 53.0155 50.5032 51.8822 52.4264 50.054C54.3604 51.9782 57.1039 53.1794 60.1466 53.1794C62.9525 53.1794 65.504 52.1579 67.4008 50.49C69.2762 52.0607 71.7511 53.0155 74.4639 53.0155C78.9034 53.0155 82.7058 50.4584 84.2864 46.8296C85.5112 47.2927 86.8494 47.5476 88.251 47.5476C94.1083 47.5476 98.8565 43.0965 98.8565 37.6058C98.8565 36.0538 98.4771 34.5848 97.8005 33.2759C100.481 31.472 102.144 28.9597 102.144 26.1812C102.144 22.0981 98.5533 18.5899 93.4178 17.0595C93.0497 11.8818 88.4528 7.78882 82.8361 7.78882C81.4345 7.78882 80.0963 8.04372 78.8715 8.50677C77.2909 4.8781 73.4885 2.32105 69.049 2.32105C64.9441 2.32105 61.3839 4.50726 59.6211 7.70537C57.8582 4.50726 54.298 2.32104 50.1931 2.32104Z" fill="#F8F5F5"/>
<path fill-rule="evenodd" clip-rule="evenodd" d="M51.2779 5.45569C47.3206 5.45569 43.9407 7.77318 42.5984 11.0394C41.4193 10.5323 40.1076 10.2496 38.7255 10.2496C33.631 10.2496 29.4935 14.0902 29.4282 18.8513C24.5028 20.3171 21.1616 23.166 21.1616 26.4401C21.1616 28.8065 22.9069 30.9507 25.7341 32.5112C25.1136 33.6795 24.7646 34.9969 24.7646 36.3907C24.7646 41.2045 28.9275 45.1068 34.0627 45.1068C35.4449 45.1068 36.7565 44.8241 37.9356 44.3171C39.2779 47.5833 42.6578 49.9008 46.6152 49.9008C49.2062 49.9008 51.5498 48.9073 53.2359 47.3044C54.9315 48.9913 57.3368 50.0444 60.0044 50.0444C62.4645 50.0444 64.7014 49.1489 66.3644 47.6865C68.0086 49.0636 70.1784 49.9007 72.5568 49.9007C76.4491 49.9007 79.7828 47.6588 81.1685 44.4774C82.2423 44.8833 83.4154 45.1068 84.6443 45.1068C89.7795 45.1068 93.9424 41.2044 93.9424 36.3906C93.9424 35.0299 93.6098 33.7421 93.0167 32.5947C95.367 31.0131 96.8249 28.8105 96.8249 26.3745C96.8249 22.7948 93.6765 19.7191 89.1742 18.3774C88.8514 13.838 84.8212 10.2496 79.8969 10.2496C78.668 10.2496 77.4948 10.4731 76.4211 10.8791C75.0353 7.69765 71.7016 5.45575 67.8094 5.45575C64.2105 5.45575 61.0892 7.37242 59.5437 10.1762C57.9982 7.37239 54.8768 5.45569 51.2779 5.45569Z" fill="#FAFAFA"/>
<circle cx="36.6738" cy="85.6471" r="4.95989" fill="#FFC6AD"/>
<circle cx="85.2807" cy="85.6471" r="4.95989" fill="#FFC6AD"/>
<path d="M47.9391 23.5789C52.2702 20.7553 54.031 12.9469 54.031 12.9469C54.031 12.9469 46.1759 11.4075 41.8449 14.2312C37.5138 17.0549 35.753 24.8633 35.753 24.8633C35.753 24.8633 43.6081 26.4026 47.9391 23.5789Z" fill="#34876F"/>
<path d="M76.6737 32.27C72.3233 28.3177 63.5189 28.3055 63.5189 28.3055C63.5189 28.3055 64.3732 37.0683 68.7236 41.0207C73.074 44.9731 81.8784 44.9852 81.8784 44.9852C81.8784 44.9852 81.0241 36.2224 76.6737 32.27Z" fill="#34876F"/>
<path d="M64.0156 87.8037C58.9474 86.7817 52.4374 90.0303 52.4374 90.0303C52.4374 90.0303 57.1797 95.5479 62.2479 96.5699C67.3162 97.5919 73.8262 94.3433 73.8262 94.3433C73.8262 94.3433 69.0838 88.8257 64.0156 87.8037Z" fill="#34876F"/>
<path d="M74.4985 106.585C75.9702 109.355 80.6051 110.836 80.6051 110.836C80.6051 110.836 81.9724 106.167 80.5007 103.396C79.0289 100.626 74.3941 99.1452 74.3941 99.1452C74.3941 99.1452 73.0268 103.815 74.4985 106.585Z" fill="#34876F"/>
<path d="M48.9606 39.8414C49.0835 39.7707 49.2042 39.6937 49.3223 39.6101C51.3405 38.1818 51.8266 35.3988 50.4078 33.3941C48.9891 31.3894 46.2029 30.9222 44.1847 32.3505C43.9887 32.4892 43.8072 32.6406 43.6405 32.8028C43.5164 31.0757 42.4219 29.5009 40.7268 28.8786C38.4337 28.0369 35.9098 29.2571 35.0894 31.604C34.6521 32.8552 34.7873 34.1741 35.3562 35.2604C35.1742 35.2379 34.9891 35.2261 34.8013 35.2256C32.3152 35.2187 30.325 37.1931 30.3562 39.6356C30.3874 42.0781 32.4281 44.0638 34.9143 44.0707C35.0485 44.0711 35.1812 44.0657 35.3123 44.0548C35.2584 44.1747 35.2092 44.2981 35.1649 44.4248C34.3446 46.7718 35.5385 49.3568 37.8316 50.1985C40.1247 51.0403 42.6486 49.8201 43.4689 47.4731C43.5418 47.2647 43.5987 47.0544 43.6405 46.8436C44.4527 47.5764 45.5329 48.0259 46.7136 48.0292C49.1998 48.0362 51.1899 46.0618 51.1587 43.6192C51.1383 42.0235 50.2603 40.6228 48.9606 39.8414Z" fill="#FFCE05"/>
<g style="mix-blend-mode:multiply">
<circle cx="41.6891" cy="39.8721" r="3.3545" transform="rotate(79.3678 41.6891 39.8721)" fill="#FED402"/>
</g>
<defs>
<linearGradient id="paint0_linear_205_6" x1="58.2447" y1="103.503" x2="58.0045" y2="44.944" gradientUnits="userSpaceOnUse">
<stop stop-color="#FFECD5"/>
<stop offset="1" stop-color="#FFE9CF"/>
</linearGradient>
</defs>
</svg>
