<svg width="114" height="121" viewBox="0 0 114 121" fill="none" xmlns="http://www.w3.org/2000/svg">
<path d="M84.5472 7.2188C83.7064 5.77699 81.622 6.03916 81.1666 7.64491C78.5015 17.0412 78.3828 22.1323 61.8805 25.7252L87.5599 40.6784C92.4727 27.1165 91.037 18.3468 84.5472 7.2188Z" fill="#56392B"/>
<path d="M29.672 7.2188C30.5129 5.77699 32.5972 6.03916 33.0527 7.64491C35.7177 17.0412 35.8365 22.1323 52.3387 25.7252L26.6593 40.6784C21.7465 27.1165 23.1822 18.3468 29.672 7.2188Z" fill="#56392B"/>
<ellipse cx="16.9854" cy="10.0375" rx="16.9854" ry="10.0375" transform="matrix(0.96549 -0.260439 0.269145 0.9631 0 36.057)" fill="#525151"/>
<ellipse cx="16.9854" cy="10.0375" rx="16.9854" ry="10.0375" transform="matrix(-0.96549 -0.260439 -0.269145 0.9631 114 36.057)" fill="#525151"/>
<rect x="16.5201" y="14.5767" width="82.601" height="102.036" rx="41.3005" fill="white"/>
<path fill-rule="evenodd" clip-rule="evenodd" d="M37.6354 19.837C34.4656 26.4604 31.9424 34.4968 37.4134 35.9557C42.1983 37.2317 46.1455 33.0627 48.2926 30.0481C48.8684 29.2397 50.4147 29.5227 50.6259 30.4926C51.6261 35.0865 54.0897 42.8175 59.2784 42.2723C63.2833 41.8514 65.4874 36.9792 66.5902 33.2943C66.8931 32.2824 68.7706 32.1022 69.2849 33.0247C71.0074 36.1145 73.933 39.6573 77.7421 37.8993C83.5727 35.2082 80.4766 26.1965 76.9678 19.2737C71.2444 16.2737 64.7307 14.5767 57.8206 14.5767C50.4892 14.5767 43.6039 16.487 37.6354 19.837Z" fill="#525151"/>
<ellipse cx="29.1532" cy="66.4695" rx="3.8871" ry="2.33226" fill="#ED653B" fill-opacity="0.6"/>
<ellipse cx="86.4881" cy="66.4695" rx="3.8871" ry="2.33226" fill="#ED653B" fill-opacity="0.6"/>
<ellipse cx="7.77421" cy="9.71776" rx="7.77421" ry="9.71776" transform="matrix(-1 0 0 1 43.73 45.6736)" fill="#525151"/>
<ellipse cx="2.91533" cy="3.40122" rx="2.91533" ry="3.40122" transform="matrix(-1 0 0 1 40.8146 48.5887)" fill="white"/>
<circle cx="1.45766" cy="1.45766" r="1.45766" transform="matrix(-1 0 0 1 34.984 55.3912)" fill="white"/>
<ellipse cx="79.6857" cy="55.3913" rx="7.77421" ry="9.71776" fill="#525151"/>
<ellipse cx="77.7421" cy="51.99" rx="2.91533" ry="3.40122" fill="white"/>
<circle cx="82.115" cy="56.8489" r="1.45766" fill="white"/>
<ellipse cx="57.3349" cy="92.8047" rx="44.7017" ry="26.7238" fill="#FFCEB9"/>
<ellipse cx="37.8993" cy="83.0869" rx="2.91533" ry="4.37299" fill="#525151"/>
<ellipse cx="79.6857" cy="83.0869" rx="2.91533" ry="4.37299" fill="#525151"/>
<path d="M90.0834 105.173C87.7419 101.562 81.7718 99.823 80.0312 99.3821C79.7636 99.3144 79.5034 99.4831 79.4561 99.755C79.1482 101.524 78.2993 107.684 80.6408 111.295C82.9823 114.907 88.9523 116.646 90.693 117.087C90.9605 117.155 91.2208 116.986 91.2681 116.714C91.5759 114.945 92.4249 108.785 90.0834 105.173Z" fill="#00B5AD"/>
<path d="M78.3124 112.021C79.5106 108.546 77.5842 103.634 76.9285 102.134C76.8179 101.881 76.5241 101.78 76.2811 101.911C74.8401 102.688 70.2962 105.369 69.098 108.844C67.8997 112.319 69.8262 117.23 70.4819 118.731C70.5924 118.984 70.8863 119.085 71.1292 118.954C72.5702 118.177 77.1141 115.496 78.3124 112.021Z" fill="#00B5AD"/>
<path d="M34.984 96.2058C43.73 110.297 74.8268 110.297 83.0869 96.2058" stroke="#525151" stroke-width="2.5" stroke-linecap="round" stroke-linejoin="round"/>
<path d="M57.8159 46.002C60.5275 33.5194 64.2533 28.6139 74.4577 18.4638" stroke="#00B5AD" stroke-width="1.24764" stroke-linecap="round"/>
<path d="M55.0449 50.0758C55.3822 47.6698 57.9077 45.2442 57.9077 45.2442C57.9077 45.2442 59.3949 48.0642 59.0576 50.4703C58.7203 52.8764 56.4842 55.3983 56.4842 55.3983C56.4842 55.3983 54.7075 52.4819 55.0449 50.0758Z" fill="#00B5AD"/>
<path d="M60.0614 43.5211C59.1674 42.1182 59.119 39.9783 59.119 39.9783C59.119 39.9783 61.0553 40.9529 61.9492 42.3558C62.8432 43.7587 62.8916 45.8986 62.8916 45.8986C62.8916 45.8986 60.9553 44.924 60.0614 43.5211Z" fill="#00B5AD"/>
<path d="M55.5213 41.0733C57.0492 40.1705 59.2846 40.0571 59.2846 40.0571C59.2846 40.0571 58.1279 41.9483 56.6 42.8511C55.0721 43.7539 52.8367 43.8673 52.8367 43.8673C52.8367 43.8673 53.9934 41.9761 55.5213 41.0733Z" fill="#00B5AD"/>
<path d="M62.3588 37.7606C61.4649 36.3577 61.4165 34.2178 61.4165 34.2178C61.4165 34.2178 63.3528 35.1924 64.2467 36.5953C65.1407 37.9982 65.1891 40.1381 65.1891 40.1381C65.1891 40.1381 63.2528 39.1635 62.3588 37.7606Z" fill="#00B5AD"/>
<path d="M57.7063 34.4561C59.3968 33.9216 61.5672 34.3267 61.5672 34.3267C61.5672 34.3267 59.9846 35.9186 58.2941 36.4532C56.6037 36.9878 54.4332 36.5827 54.4332 36.5827C54.4332 36.5827 56.0159 34.9907 57.7063 34.4561Z" fill="#00B5AD"/>
<path d="M65.3898 32.7162C64.602 31.2525 64.7078 29.1068 64.7078 29.1068C64.7078 29.1068 66.5624 30.2109 67.3502 31.6746C68.138 33.1384 68.0322 35.2841 68.0322 35.2841C68.0322 35.2841 66.1775 34.18 65.3898 32.7162Z" fill="#00B5AD"/>
<path d="M60.6989 29.0676C62.4022 28.5795 64.5563 29.0455 64.5563 29.0455C64.5563 29.0455 62.9285 30.5951 61.2252 31.0832C59.5218 31.5713 57.3678 31.1054 57.3678 31.1054C57.3678 31.1054 58.9955 29.5557 60.6989 29.0676Z" fill="#00B5AD"/>
<path d="M69.3156 27.3884C68.6624 25.8598 68.9554 23.7209 68.9554 23.7209C68.9554 23.7209 70.6987 24.9757 71.3519 26.5043C72.0051 28.0329 71.7121 30.1718 71.7121 30.1718C71.7121 30.1718 69.9689 28.917 69.3156 27.3884Z" fill="#00B5AD"/>
<path d="M65.3394 23.6773C67.0427 23.1892 69.1968 23.6551 69.1968 23.6551C69.1968 23.6551 67.569 25.2048 65.8657 25.6928C64.1623 26.1809 62.0083 25.715 62.0083 25.715C62.0083 25.715 63.636 24.1654 65.3394 23.6773Z" fill="#00B5AD"/>
</svg>
