<svg width="118" height="120" viewBox="0 0 118 120" fill="none" xmlns="http://www.w3.org/2000/svg">
<path d="M56.9807 13.1394C56.945 11.1272 58.261 9.4608 59.9201 9.41749C61.5792 9.37417 62.9531 10.9703 62.9888 12.9825L63.0395 15.8381L63.8375 13.1791C64.4051 11.2877 66.1293 10.3126 67.6888 11.001C69.2482 11.6893 70.0522 13.7806 69.4846 15.6719L66.7441 24.804C66.1765 26.6953 64.4523 27.6705 62.8929 26.9821C62.3936 26.7617 61.9717 26.3975 61.6476 25.9421C61.2265 26.2343 60.741 26.4068 60.2219 26.4203C59.7965 26.4314 59.3898 26.3348 59.0197 26.1509C58.7428 27.1787 58.0932 28.0474 57.1905 28.4459C55.631 29.1342 53.9068 28.1591 53.3392 26.2678L50.5987 17.1357C50.0311 15.2444 50.8351 13.1531 52.3946 12.4647C53.954 11.7763 55.6782 12.7515 56.2458 14.6428L57.0552 17.34L56.9807 13.1394Z" fill="#9B7963"/>
<circle cx="12.8333" cy="46.0833" r="12.8333" fill="#9B7963"/>
<circle cx="12.8333" cy="46.0833" r="9.16667" fill="#3B2F1E"/>
<circle cx="104.5" cy="46.0833" r="12.8333" fill="#9B7963"/>
<circle cx="104.5" cy="46.0833" r="9.16667" fill="#3B2F1E"/>
<ellipse cx="58.6667" cy="66.25" rx="50.4167" ry="46.75" fill="#9B7963"/>
<path fill-rule="evenodd" clip-rule="evenodd" d="M10.9199 81.3012C15.7884 72.8698 25.1206 67.1667 35.8333 67.1667C41.5035 67.1667 46.787 68.7644 51.2265 71.5188C55.9882 74.4732 63.1785 74.4732 67.9403 71.5189C72.3798 68.7645 77.6632 67.1667 83.3334 67.1667C93.2283 67.1667 101.946 72.0324 107.055 79.4194C100.922 98.8268 81.5795 113 58.6667 113C36.5011 113 17.6764 99.7362 10.9199 81.3012Z" fill="#F5E8CF"/>
<path d="M52.25 83.2084L55.4583 84.125L60.0417 81.8334L64.1667 84.125L67.8333 83.2084L67.5122 86.9009C67.1753 90.7759 63.9313 93.75 60.0417 93.75V93.75C56.152 93.75 52.908 90.7759 52.5711 86.9009L52.25 83.2084Z" fill="#FEB1AA"/>
<path d="M60.0416 71.2336V79.3724C60.0416 82.0303 62.1963 84.185 64.8541 84.185H65.5265C67.813 84.185 69.6667 82.3313 69.6667 80.0448V80.0448" stroke="#3B2F1E" stroke-width="2.5" stroke-linecap="round" stroke-linejoin="round"/>
<path d="M60.0417 71.2336V79.3724C60.0417 82.0303 57.887 84.185 55.2292 84.185H54.5568C52.2703 84.185 50.4167 82.3313 50.4167 80.0448V80.0448" stroke="#3B2F1E" stroke-width="2.5" stroke-linecap="round" stroke-linejoin="round"/>
<path d="M69.4633 71.9619C69.4633 74.994 65.1995 77.4519 59.94 77.4519C54.6804 77.4519 50.4167 74.994 50.4167 71.9619C50.4167 68.9299 54.6804 64.4166 59.94 64.4166C65.1995 64.4166 69.4633 68.9299 69.4633 71.9619Z" fill="#3B2F1E"/>
<ellipse cx="55" cy="69.4583" rx="1.83333" ry="1.375" transform="rotate(-25.5447 55 69.4583)" fill="white"/>
<circle cx="31.625" cy="63.9584" r="6.875" fill="#3B2F1E"/>
<circle cx="28.875" cy="62.125" r="2.29167" fill="white"/>
<circle cx="31.625" cy="65.7916" r="1.375" fill="white"/>
<circle cx="85.7083" cy="63.9584" r="6.875" fill="#3B2F1E"/>
<circle cx="82.9583" cy="62.125" r="2.29167" fill="white"/>
<circle cx="85.7083" cy="65.7916" r="1.375" fill="white"/>
<path d="M27.2571 78.1176L7.09041 76.2843M27.9566 82.2183L7.0904 83.6176M28.9136 86.1475L8.00706 90.9509" stroke="#3B2F1E" stroke-width="2" stroke-linecap="round"/>
<circle cx="80.2083" cy="39.2084" r="3.375" stroke="white" stroke-width="1.5"/>
<circle cx="88.9167" cy="25.9166" r="4.5" stroke="white" stroke-width="2"/>
<circle cx="97.625" cy="9.875" r="5.625" stroke="white" stroke-width="2.5"/>
<path d="M90.9929 78.1176L111.16 76.2843M90.2934 82.2183L111.16 83.6176M89.3364 86.1475L110.243 90.9509" stroke="#3B2F1E" stroke-width="2" stroke-linecap="round"/>
<path d="M11.6969 0.990845C12.2072 0.69066 12.6842 0.358451 13.125 -6.31809e-06C14.3983 0.581988 15.8707 0.912727 17.4097 0.912727C18.6704 0.912727 19.8816 0.700634 20.9777 0.307003C18.0334 4.3439 12.6872 13.9393 18.7827 24.3067C25.4979 35.7282 20.0968 45.8286 17.2464 49.8817C17.0807 50.1174 16.6176 49.9696 16.7162 49.7125C18.2108 45.8186 18.4547 36.6807 11.6969 25.8772C5.61807 16.1592 8.54894 6.9476 9.93455 1.85192C10.5474 1.60665 11.1369 1.32011 11.6969 0.990845Z" fill="#017B4E"/>
<path d="M20.819 1.53912C21.1579 4.94276 22.0899 8.92061 24.1705 13.0851C29.2814 23.3145 22.2049 36.7225 20.2794 40.0343C20.1726 40.2182 19.882 40.1341 19.8976 39.9238C20.1215 36.8736 20.4836 26.3422 15.9826 16.2344C14.0051 11.7935 14.3738 7.04256 15.5764 2.87633C17.4382 2.79418 19.218 2.33154 20.819 1.53912V1.53912Z" fill="#09A76D"/>
<path d="M107.527 119.381C107.133 119.568 106.765 119.776 106.424 120C105.441 119.636 104.305 119.43 103.117 119.43C102.143 119.43 101.208 119.562 100.362 119.808C102.635 117.285 106.762 111.288 102.056 104.809C96.8722 97.6706 101.042 91.358 103.243 88.8249C103.371 88.6776 103.728 88.77 103.652 88.9307C102.498 91.3643 102.31 97.0753 107.527 103.827C112.22 109.901 109.957 115.658 108.888 118.843C108.414 118.996 107.959 119.175 107.527 119.381Z" fill="#017B4E"/>
<path d="M101.113 119.031C100.662 119.233 100.24 119.457 99.8507 119.699C98.7255 119.307 97.4246 119.084 96.0647 119.084C94.9508 119.084 93.8806 119.227 92.912 119.492C95.5136 116.771 100.238 110.304 94.8515 103.317C88.918 95.6188 93.6904 88.8114 96.209 86.0797C96.3554 85.9209 96.7646 86.0205 96.6775 86.1938C95.3568 88.8182 95.1413 94.9769 101.113 102.258C106.484 108.808 103.894 115.016 102.67 118.451C102.128 118.616 101.607 118.809 101.113 119.031Z" fill="#02905D"/>
<path d="M111.254 119.75C111.515 117.623 112.235 115.137 113.841 112.534C117.787 106.141 112.324 97.7613 110.837 95.6915C110.755 95.5766 110.53 95.6291 110.542 95.7606C110.715 97.6669 110.995 104.249 107.52 110.566C105.993 113.341 106.278 116.311 107.206 118.915C108.644 118.966 110.018 119.255 111.254 119.75V119.75Z" fill="#09A76D"/>
</svg>
