<svg width="122" height="120" viewBox="0 0 122 120" fill="none" xmlns="http://www.w3.org/2000/svg">
<path fill-rule="evenodd" clip-rule="evenodd" d="M46.369 28.079C38.9984 19.8085 31.0512 11.7764 28.4104 12.3107C25.2219 12.9557 21.7416 29.5377 19.4503 42.8288C11.3209 51.0025 6.41354 61.6044 6.41354 73.1893C6.41354 99.0422 30.8527 120 61 120C91.1473 120 115.587 99.0422 115.587 73.1893C115.587 61.4686 110.563 50.754 102.263 42.5423C99.9707 29.3006 96.5176 12.9511 93.3519 12.3107C90.716 11.7774 82.7936 19.7785 75.4347 28.0326C70.8368 26.9543 65.9968 26.3785 61 26.3785C55.932 26.3785 51.0253 26.9708 46.369 28.079Z" fill="#FFEBA8"/>
<g style="mix-blend-mode:multiply">
<path fill-rule="evenodd" clip-rule="evenodd" d="M46.7143 27.9978V41.1591C46.7143 43.789 48.8463 45.921 51.4762 45.921C54.1034 45.921 56.2337 43.7934 56.2381 41.1672V45.7009C56.2381 48.3308 58.3701 50.4628 61 50.4628C63.6299 50.4628 65.7619 48.3308 65.7619 45.7009V26.5541C64.1927 26.4378 62.6044 26.3784 61 26.3784C56.0572 26.3784 51.2677 26.9418 46.7143 27.9978ZM65.7619 26.5541V41.1592C65.7619 43.7892 67.8939 45.9211 70.5238 45.9211C73.1538 45.9211 75.2857 43.7892 75.2857 41.1592V27.9978C72.2103 27.2846 69.0272 26.7961 65.7619 26.5541Z" fill="#FFEBA8"/>
</g>
<path d="M105.779 70.7005C112.261 68.1416 113.384 67.7135 120.325 66.3479" stroke="#323232" stroke-width="1.89474" stroke-linecap="round" stroke-linejoin="round"/>
<path d="M104.308 84.5041C111.041 86.5184 114.07 86.9292 120.491 90.1879" stroke="#323232" stroke-width="1.89474" stroke-linecap="round" stroke-linejoin="round"/>
<path d="M106.515 78.0083C112.714 77.6056 114.773 78.4124 120.964 79.2686" stroke="#323232" stroke-width="1.89474" stroke-linecap="round" stroke-linejoin="round"/>
<path d="M16.2206 70.7005C9.73898 68.1416 8.61568 67.7135 1.67507 66.3479" stroke="#323232" stroke-width="1.89474" stroke-linecap="round" stroke-linejoin="round"/>
<path d="M17.6918 84.5041C10.9592 86.5184 7.93032 86.9292 1.50919 90.1879" stroke="#323232" stroke-width="1.89474" stroke-linecap="round" stroke-linejoin="round"/>
<path d="M15.485 78.0083C9.2859 77.6056 7.22695 78.4124 1.03649 79.2686" stroke="#323232" stroke-width="1.89474" stroke-linecap="round" stroke-linejoin="round"/>
<ellipse cx="35.8496" cy="65.7192" rx="9.13534" ry="10.0842" fill="#323232"/>
<ellipse cx="40.0226" cy="64.4742" rx="2.03008" ry="2.24094" fill="white"/>
<path d="M78.1429 70.4374C78.1429 69.0568 78.3646 67.6897 78.7953 66.4142C79.2261 65.1387 79.8575 63.9798 80.6534 63.0035C81.4493 62.0273 82.3942 61.2529 83.4342 60.7246C84.4741 60.1963 85.5887 59.9243 86.7143 59.9243C87.8399 59.9243 88.9545 60.1963 89.9945 60.7246C91.0344 61.2529 91.9793 62.0273 92.7752 63.0035C93.5712 63.9798 94.2025 65.1387 94.6333 66.4142C95.064 67.6897 95.2857 69.0568 95.2857 70.4374" stroke="#323232" stroke-width="2.5" stroke-linecap="round" stroke-linejoin="round"/>
<path d="M66.8647 75.1812C66.8647 77.1064 64.8449 78.6671 62.3534 78.6671C59.8619 78.6671 57.8421 77.1064 57.8421 75.1812C57.8421 73.2559 59.8619 71.1973 62.3534 71.1973C64.8449 71.1973 66.8647 73.2559 66.8647 75.1812Z" fill="#323232"/>
<path d="M62.3534 73.687V81.0337C62.3534 83.0269 60.7376 84.6427 58.7444 84.6427H57.8743C56.3616 84.6427 55.1354 83.4165 55.1354 81.9038V81.9038" stroke="#323232" stroke-width="2" stroke-linecap="round" stroke-linejoin="round"/>
<path d="M62.3534 73.687V81.0337C62.3534 83.0269 63.9692 84.6427 65.9624 84.6427H66.8325C68.3452 84.6427 69.5715 83.4165 69.5715 81.9038V81.9038" stroke="#323232" stroke-width="2" stroke-linecap="round" stroke-linejoin="round"/>
<ellipse cx="64.1579" cy="73.6871" rx="0.902256" ry="0.995974" fill="white"/>
<g style="mix-blend-mode:multiply">
<path d="M23.89 38.8452C25.2181 31.594 26.5052 26.7071 29.1619 19.2135C29.3679 18.6324 30.069 18.4014 30.5767 18.7511C35.7284 22.3004 38.5672 25.0328 42.5117 29.73C42.9425 30.2429 42.7105 31.0276 42.0726 31.232C35.3016 33.4011 31.0882 34.837 25.5216 39.7332C24.8322 40.3395 23.7246 39.7483 23.89 38.8452Z" fill="#FFEBA8"/>
<path d="M96.965 38.1279C96.2873 30.7013 95.6402 26.2709 92.8521 18.6767C92.6403 18.0998 91.9393 17.8786 91.4368 18.2322C86.7697 21.5167 84.0939 23.971 79.6729 28.5385C79.1856 29.0418 79.3984 29.8819 80.0639 30.1008C86.7278 32.2924 89.8867 33.841 95.3425 38.9081C95.9863 39.506 97.0448 39.0029 96.965 38.1279Z" fill="#FFEBA8"/>
</g>
<ellipse cx="27.6165" cy="86.6348" rx="7.66918" ry="8.46578" fill="#FFAC99"/>
<ellipse cx="94.3835" cy="86.6348" rx="7.66918" ry="8.46578" fill="#FFAC99"/>
<path d="M61.6025 10.8008C64.5449 7.49158 66.9327 12.1995 66.9327 12.1995C66.9327 12.1995 71.6993 9.36895 72.7587 13.7283C73.8181 18.0876 64.8024 22.0919 64.8024 22.0919C64.8024 22.0919 58.6601 14.11 61.6025 10.8008Z" fill="#FFE312"/>
<path d="M73.4906 1.21771C75.576 -0.878901 77.0166 2.37656 77.0166 2.37656C77.0166 2.37656 80.3088 0.676573 80.8706 3.64322C81.4325 6.60986 75.2516 8.92057 75.2516 8.92057C75.2516 8.92057 71.4052 3.31432 73.4906 1.21771Z" fill="#FFE312"/>
</svg>
