<svg width="122" height="120" viewBox="0 0 122 120" fill="none" xmlns="http://www.w3.org/2000/svg">
<path fill-rule="evenodd" clip-rule="evenodd" d="M79.2319 14.7192C90.8542 5.43098 105.92 -3.69917 115.546 1.52642C128.606 8.61601 116.633 40.1824 109.69 55.7949C109.79 56.8965 109.84 57.9964 109.84 59.0916C109.84 82.3138 87.0481 101.139 60.7849 101.139C34.5216 101.139 11.2288 82.3138 11.2288 59.0916C11.2288 57.809 11.2999 56.52 11.4385 55.2293C4.46445 39.4326 -7.07094 8.53142 5.83299 1.52642C15.4706 -3.70543 30.5613 5.45286 42.1893 14.7525C48.0033 12.0794 54.3036 10.5366 60.7849 10.5366C67.2391 10.5366 73.4837 12.0666 79.2319 14.7192Z" fill="#FFF7DE"/>
<path fill-rule="evenodd" clip-rule="evenodd" d="M16.773 78.1003C41.4505 77.4994 61.2854 55.5481 61.2854 28.5569C61.2854 22.2302 60.1956 16.1804 58.2091 10.6175C52.6363 10.967 47.2299 12.4349 42.1892 14.7525C30.5613 5.45283 15.4706 -3.70542 5.83299 1.52642C-7.07089 8.53139 4.46437 39.4324 11.4385 55.2291C11.2998 56.5199 11.2287 57.8089 11.2287 59.0915C11.2287 65.9323 13.25 72.3915 16.773 78.1003Z" fill="#FED402"/>
<path fill-rule="evenodd" clip-rule="evenodd" d="M66.2632 10.9024C70.7696 11.5033 75.1273 12.825 79.232 14.7192C90.8542 5.43099 105.92 -3.69918 115.547 1.52642C128.606 8.61604 116.633 40.1827 109.69 55.7951C109.79 56.8967 109.84 57.9964 109.84 59.0915C109.84 65.8499 107.91 72.2358 104.525 77.8937C81.3911 75.5294 63.2877 54.3431 63.2877 28.5569C63.2877 22.338 64.3406 16.3867 66.2632 10.9024Z" fill="#FED402"/>
<g style="mix-blend-mode:multiply">
<path d="M9.11884 9.30521C2.40816 13.6518 9.02661 32.3223 12.281 40.3651C12.9015 41.8987 14.9939 41.9797 15.8435 40.5602C20.8467 32.2008 26.0659 27.1586 34.4197 19.9076C35.3697 19.083 35.3385 17.611 34.3129 16.8825C29.3346 13.3464 16.0346 4.82578 9.11884 9.30521Z" fill="#FED402" fill-opacity="0.5"/>
<path d="M112.451 9.30521C119.162 13.6518 112.543 32.3223 109.289 40.3651C108.668 41.8987 106.576 41.9797 105.726 40.5602C100.723 32.2008 95.5039 27.1586 87.1501 19.9076C86.2001 19.083 86.2313 17.611 87.2569 16.8825C92.2352 13.3464 105.535 4.82578 112.451 9.30521Z" fill="#FED402" fill-opacity="0.5"/>
</g>
<ellipse cx="40.7621" cy="50.0813" rx="5.50623" ry="7.00793" fill="#56392B"/>
<ellipse cx="42.7643" cy="49.08" rx="1.5017" ry="2.00226" fill="white"/>
<ellipse cx="5.50623" cy="7.00793" rx="5.50623" ry="7.00793" transform="matrix(-1 0 0 1 88.3159 43.0734)" fill="#56392B"/>
<ellipse cx="1.5017" cy="2.00226" rx="1.5017" ry="2.00226" transform="matrix(-1 0 0 1 82.309 47.0778)" fill="white"/>
<path d="M69.2944 63.5966C69.2944 65.5318 66.1568 67.1006 62.2864 67.1006C58.4161 67.1006 55.2785 65.5318 55.2785 63.5966C55.2785 61.6615 58.4161 59.0916 62.2864 59.0916C66.1568 59.0916 69.2944 61.6615 69.2944 63.5966Z" fill="#56392B"/>
<circle cx="65.2899" cy="62.0949" r="1.00113" fill="white"/>
<path d="M62.2865 62.0948V68.1016C62.2865 70.3133 60.4936 72.1062 58.2819 72.1062H56.7802C55.398 72.1062 54.2774 70.9856 54.2774 69.6033V69.6033" stroke="#56392B" stroke-width="2" stroke-linecap="round" stroke-linejoin="round"/>
<path d="M62.2865 62.0948V68.1016C62.2865 70.3133 64.0794 72.1062 66.291 72.1062H67.7927C69.175 72.1062 70.2955 70.9856 70.2955 69.6033V69.6033" stroke="#56392B" stroke-width="2" stroke-linecap="round" stroke-linejoin="round"/>
<ellipse cx="36.257" cy="64.0972" rx="8.00906" ry="5.00566" fill="#FEB1AA"/>
<ellipse cx="88.3159" cy="64.0972" rx="8.00906" ry="5.00566" fill="#FEB1AA"/>
<path fill-rule="evenodd" clip-rule="evenodd" d="M53.3642 105.161C55.3894 105.161 57.2295 104.458 58.6932 103.634C58.3131 105.716 58.3447 107.587 58.3746 109.353L58.3811 109.744C58.4249 112.552 58.3923 115.152 56.8042 118.373C56.5289 118.932 56.7585 119.608 57.3171 119.884C57.8758 120.159 58.5519 119.929 58.8273 119.371C60.6634 115.646 60.6813 112.591 60.6363 109.709L60.6309 109.376C60.5931 107.077 60.5573 104.895 61.311 102.369C62.6968 104.594 63.3391 106.78 63.9839 108.984L64.0011 109.043C64.7507 111.605 65.5293 114.267 67.6576 116.655C68.072 117.12 68.7849 117.161 69.2498 116.746C69.7148 116.332 69.7557 115.619 69.3413 115.154C67.58 113.178 66.9166 110.976 66.1487 108.351L66.1293 108.285C65.7606 107.024 65.3685 105.684 64.8035 104.295C65.9929 104.801 67.3472 105.161 68.7962 105.161C71.1402 105.161 73.3178 104.706 74.9513 103.92C76.5048 103.172 77.9367 101.921 77.9367 100.176C77.9367 98.4305 76.5048 97.1794 74.9513 96.4314C73.3178 95.6449 71.1402 95.1898 68.7962 95.1898C65.4066 95.1898 62.5352 97.1592 61.0802 98.3711C59.6252 97.1592 56.7538 95.1898 53.3642 95.1898C51.0202 95.1898 48.8427 95.6449 47.2091 96.4314C45.6557 97.1794 44.2237 98.4305 44.2237 100.176C44.2237 101.921 45.6557 103.172 47.2091 103.92C48.8427 104.706 51.0202 105.161 53.3642 105.161ZM48.1875 98.4636C46.8409 99.112 46.4791 99.7899 46.4791 100.176C46.4791 100.561 46.8409 101.239 48.1875 101.887C49.454 102.497 51.2829 102.906 53.3642 102.906C56.0048 102.906 58.3886 101.292 59.6706 100.218L59.6961 100.154C58.4204 99.0806 56.0224 97.4453 53.3642 97.4453C51.2829 97.4453 49.454 97.8538 48.1875 98.4636ZM62.7195 100.407C62.652 100.309 62.5831 100.211 62.5127 100.114C63.8 99.04 66.1712 97.4453 68.7962 97.4453C70.8775 97.4453 72.7064 97.8538 73.9729 98.4636C75.3195 99.112 75.6813 99.7899 75.6813 100.176C75.6813 100.561 75.3195 101.239 73.9729 101.887C72.7064 102.497 70.8775 102.906 68.7962 102.906C66.306 102.906 64.0443 101.471 62.7195 100.407Z" fill="#ED653B"/>
</svg>
