<svg width="103" height="89" viewBox="0 0 103 89" fill="none" xmlns="http://www.w3.org/2000/svg">
<path fill-rule="evenodd" clip-rule="evenodd" d="M0 18.6613C0 25.7809 3.987 31.9693 9.85007 35.1155C8.42791 39.2582 7.65591 43.7029 7.65591 48.328C7.65591 70.7905 25.8654 89 48.328 89H55.9839C78.4464 89 96.6559 70.7905 96.6559 48.328C96.6559 43.348 95.7609 38.5771 94.123 34.1674C99.1135 30.818 102.398 25.1232 102.398 18.6613C102.398 8.35494 94.0429 0 83.7366 0C76.8293 0 70.7985 3.75272 67.5719 9.33052C63.8994 8.2409 60.01 7.65591 55.9839 7.65591H48.328C43.7029 7.65591 39.2582 8.42791 35.1155 9.85007C31.9693 3.987 25.7809 0 18.6613 0C8.35494 0 0 8.35494 0 18.6613Z" fill="#CA926A"/>
<path d="M8.3111 22.5842C4.56772 18.4688 4.76207 12.1263 8.75041 8.2478V8.2478C12.7945 4.31514 19.2475 4.36018 23.2362 8.34893L28.2627 13.3755C28.8432 13.9559 28.7539 14.9202 28.0873 15.3992C22.9691 19.0766 19.425 22.589 15.4761 28.0009C14.9646 28.7018 13.9362 28.7683 13.3523 28.1264L8.3111 22.5842Z" fill="#ECC79F"/>
<path d="M93.8634 21.9835C97.6068 17.8681 97.4125 11.5256 93.4241 7.6471V7.6471C89.3801 3.71443 82.9271 3.75948 78.9384 7.74822L73.9118 12.7747C73.3314 13.3552 73.4206 14.3195 74.0873 14.7985C79.2054 18.4758 82.7496 21.9883 86.6985 27.4002C87.2099 28.1011 88.2384 28.1676 88.8222 27.5257L93.8634 21.9835Z" fill="#ECC79F"/>
<ellipse cx="52.1559" cy="61.2474" rx="23.4462" ry="18.1828" fill="#ECC79F"/>
<rect x="50.8161" y="56.6537" width="2.58387" height="10.3355" rx="1.29194" fill="#3A211F"/>
<ellipse cx="52.5387" cy="54.5005" rx="7.75161" ry="4.7371" fill="#3A211F"/>
<circle cx="47.8016" cy="52.778" r="1.29194" fill="white"/>
<path d="M43.0645 63.1134C47.371 66.9892 56.9409 66.9892 61.2473 63.1134" stroke="#3A211F" stroke-width="2.7" stroke-linecap="round"/>
<circle cx="31.5806" cy="44.0216" r="3.82796" fill="#3A211F"/>
<circle cx="73.6882" cy="44.0216" r="3.82796" fill="#3A211F"/>
<circle cx="23.3737" cy="52.1414" r="4.49495" fill="#FFCEB9"/>
<circle cx="80.0101" cy="52.1414" r="4.49495" fill="#FFCEB9"/>
</svg>
