<svg width="134" height="131" viewBox="0 0 134 131" fill="none" xmlns="http://www.w3.org/2000/svg">
<path d="M73.3662 30.317C75.3637 31.2021 76.4601 33.6684 75.8151 35.8258L72.622 46.5051C72.0065 48.5636 70.0279 49.597 68.1126 48.9185C67.6543 49.6866 66.9849 50.3187 66.1628 50.683C64.1653 51.568 62.023 50.5366 61.378 48.3792L58.1849 37.6999C57.5399 35.5426 58.6363 33.0762 60.6338 32.1912C62.6313 31.3062 64.7735 32.3376 65.4186 34.4949L66.7198 38.8469L68.5814 32.6208C69.2265 30.4634 71.3687 29.432 73.3662 30.317Z" fill="#EF8F35"/>
<path d="M102.923 26.2438C87.1431 46.5139 84.4987 58.2704 82.3639 86.1518" stroke="#5EA985" stroke-width="1.84133" stroke-linecap="round"/>
<path d="M104.246 18.7097C103.089 19.9912 102.29 21.6618 101.741 23.289C100.791 26.1016 103.501 28.3527 106.121 26.958C107.597 26.1723 109.094 25.1624 110.225 23.9093C111.319 22.6979 112.152 21.1704 112.777 19.6711C113.937 16.886 111.349 14.4049 108.616 15.6834C107.017 16.4314 105.407 17.4249 104.246 18.7097Z" fill="#5EA985"/>
<path d="M100.698 32.6198C99.4901 32.8237 98.28 33.306 97.2241 33.8413C95.694 34.617 96.0285 36.5979 97.7283 36.8282C98.9015 36.9872 100.203 37.0454 101.411 36.8415C102.619 36.6375 103.829 36.1552 104.885 35.6199C106.415 34.8443 106.081 32.8634 104.381 32.6331C103.208 32.4741 101.906 32.4158 100.698 32.6198Z" fill="#5EA985"/>
<path d="M93.1685 31.1705C93.3973 32.3741 93.9044 33.574 94.4613 34.6187C95.2683 36.1325 97.2419 35.7574 97.4372 34.0531C97.572 32.8769 97.6034 31.5746 97.3747 30.371C97.1459 29.1673 96.6388 27.9674 96.0818 26.9227C95.2749 25.4089 93.3013 25.7841 93.106 27.4883C92.9712 28.6645 92.9397 29.9668 93.1685 31.1705Z" fill="#5EA985"/>
<path d="M94.9753 42.5262C93.7671 42.7301 92.557 43.2124 91.5011 43.7477C89.971 44.5234 90.3055 46.5043 92.0053 46.7346C93.1785 46.8936 94.4799 46.9518 95.688 46.7479C96.8961 46.5439 98.1062 46.0616 99.1622 45.5263C100.692 44.7507 100.358 42.7698 98.6579 42.5395C97.4847 42.3805 96.1834 42.3222 94.9753 42.5262Z" fill="#5EA985"/>
<path d="M86.5964 42.4361C87.1078 43.5495 87.8885 44.5923 88.6802 45.4724C89.8275 46.7478 91.653 45.9092 91.4329 44.208C91.2809 43.0339 90.9984 41.7622 90.487 40.6489C89.9755 39.5355 89.1948 38.4927 88.4031 37.6125C87.2559 36.3371 85.4304 37.1757 85.6505 38.877C85.8024 40.0511 86.0849 41.3227 86.5964 42.4361Z" fill="#5EA985"/>
<path d="M90.0575 53.3313C88.8663 53.618 87.6923 54.1826 86.6758 54.7894C85.2028 55.6687 85.673 57.6218 87.3847 57.7344C88.5661 57.8121 89.8683 57.7806 91.0595 57.4938C92.2507 57.2071 93.4247 56.6425 94.4412 56.0357C95.9142 55.1565 95.444 53.2033 93.7323 53.0907C92.551 53.013 91.2487 53.0445 90.0575 53.3313Z" fill="#5EA985"/>
<path d="M82.5694 53.8129C83.2354 54.8413 84.1578 55.7612 85.0677 56.5186C86.3862 57.6159 88.0724 56.5239 87.6102 54.8719C87.2912 53.7318 86.829 52.5139 86.163 51.4855C85.4969 50.4571 84.5746 49.5372 83.6646 48.7799C82.3462 47.6825 80.66 48.7746 81.1222 50.4266C81.4411 51.5667 81.9033 52.7846 82.5694 53.8129Z" fill="#5EA985"/>
<path d="M87.7427 64.6823C86.5798 65.0681 85.4574 65.7293 84.4954 66.4194C83.1016 67.4193 83.7342 69.326 85.4493 69.2944C86.633 69.2726 87.928 69.1318 89.0909 68.7459C90.2538 68.3601 91.3762 67.6989 92.3381 67.0088C93.732 66.0089 93.0994 64.1022 91.3842 64.1338C90.2006 64.1556 88.9055 64.2965 87.7427 64.6823Z" fill="#5EA985"/>
<path d="M79.3609 66.4511C80.1439 67.3935 81.1685 68.1979 82.1616 68.8424C83.6006 69.7762 85.1458 68.4924 84.4916 66.9067C84.04 65.8123 83.4371 64.6575 82.6541 63.7151C81.8712 62.7727 80.8466 61.9683 79.8535 61.3238C78.4145 60.39 76.8692 61.6738 77.5235 63.2595C77.975 64.354 78.578 65.5087 79.3609 66.4511Z" fill="#5EA985"/>
<path d="M16.5233 34.8197C9.73158 40.4129 24.8242 79.3429 24.8242 79.3429L56.1414 54.4401C56.1414 54.4401 22.9376 29.5373 16.5233 34.8197Z" fill="#C4C4C4"/>
<path d="M16.5233 34.8197C9.73158 40.4129 24.8242 79.3429 24.8242 79.3429L56.1414 54.4401C56.1414 54.4401 22.9376 29.5373 16.5233 34.8197Z" fill="#EF8F35"/>
<path fill-rule="evenodd" clip-rule="evenodd" d="M19.3181 63.2509C15.8456 51.8296 12.6794 37.9853 16.5233 34.8197C19.9699 31.9813 31.151 37.858 40.7597 43.9035C32.1171 40.3848 23.4412 37.8863 20.395 40.395C16.9956 43.1944 17.6479 53.2716 19.3181 63.2509Z" fill="#C4C4C4"/>
<path fill-rule="evenodd" clip-rule="evenodd" d="M19.3181 63.2509C15.8456 51.8296 12.6794 37.9853 16.5233 34.8197C19.9699 31.9813 31.151 37.858 40.7597 43.9035C32.1171 40.3848 23.4412 37.8863 20.395 40.395C16.9956 43.1944 17.6479 53.2716 19.3181 63.2509Z" fill="#542016"/>
<path d="M112.477 34.8197C119.268 40.4129 104.176 79.3429 104.176 79.3429L72.8586 54.4401C72.8586 54.4401 106.062 29.5373 112.477 34.8197Z" fill="#C4C4C4"/>
<path d="M112.477 34.8197C119.268 40.4129 104.176 79.3429 104.176 79.3429L72.8586 54.4401C72.8586 54.4401 106.062 29.5373 112.477 34.8197Z" fill="#EF8F35"/>
<path fill-rule="evenodd" clip-rule="evenodd" d="M109.682 63.2507C113.154 51.8295 116.321 37.9853 112.477 34.8197C109.03 31.9813 97.849 37.858 88.2403 43.9035C96.8829 40.3848 105.559 37.8863 108.605 40.395C112.004 43.1944 111.352 53.2715 109.682 63.2507Z" fill="#C4C4C4"/>
<path fill-rule="evenodd" clip-rule="evenodd" d="M109.682 63.2507C113.154 51.8295 116.321 37.9853 112.477 34.8197C109.03 31.9813 97.849 37.858 88.2403 43.9035C96.8829 40.3848 105.559 37.8863 108.605 40.395C112.004 43.1944 111.352 53.2715 109.682 63.2507Z" fill="#542016"/>
<path d="M93.5499 15.5515C76.7474 34.9821 73.501 46.5868 69.9332 74.3213" stroke="#5EA985" stroke-width="1.84133" stroke-linecap="round"/>
<path d="M95.2598 8.09563C94.0382 9.31584 93.1544 10.943 92.5219 12.5398C91.4287 15.2997 94.0184 17.6874 96.7072 16.4295C98.222 15.7208 99.7683 14.7894 100.963 13.5962C102.118 12.4427 103.028 10.9602 103.729 9.49497C105.032 6.77336 102.574 4.16227 99.7791 5.29834C98.1439 5.96295 96.4845 6.87226 95.2598 8.09563Z" fill="#5EA985"/>
<path d="M91 21.8045C89.783 21.946 88.5496 22.3653 87.4675 22.8455C85.8996 23.5413 86.1315 25.5368 87.8173 25.8544C88.9807 26.0736 90.2774 26.1988 91.4944 26.0573C92.7114 25.9158 93.9447 25.4965 95.0268 25.0163C96.5948 24.3205 96.3628 22.325 94.6771 22.0074C93.5136 21.7882 92.217 21.663 91 21.8045Z" fill="#5EA985"/>
<path d="M83.5549 19.9693C83.7214 21.1832 84.166 22.4076 84.6684 23.4796C85.3964 25.0329 87.3867 24.7599 87.6695 23.068C87.8646 21.9003 87.9631 20.6013 87.7966 19.3875C87.6301 18.1736 87.1855 16.9492 86.6831 15.8772C85.9552 14.3239 83.9649 14.5969 83.6821 16.2889C83.4869 17.4565 83.3884 18.7555 83.5549 19.9693Z" fill="#5EA985"/>
<path d="M84.7744 31.403C83.5574 31.5445 82.3241 31.9638 81.242 32.444C79.674 33.1398 79.906 35.1353 81.5918 35.4529C82.7552 35.6721 84.0518 35.7973 85.2688 35.6558C86.4859 35.5143 87.7192 35.095 88.8013 34.6148C90.3693 33.919 90.1373 31.9235 88.4515 31.6059C87.2881 31.3867 85.9915 31.2615 84.7744 31.403Z" fill="#5EA985"/>
<path d="M76.4113 30.8816C76.8648 32.0198 77.5907 33.1014 78.3361 34.0212C79.4161 35.354 81.2824 34.6105 81.1501 32.9002C81.0589 31.7198 80.8422 30.4353 80.3888 29.2971C79.9354 28.1588 79.2094 27.0772 78.4641 26.1574C77.384 24.8247 75.5177 25.5681 75.65 27.2784C75.7412 28.4588 75.9579 29.7433 76.4113 30.8816Z" fill="#5EA985"/>
<path d="M79.3068 41.9405C78.1024 42.1656 76.9009 42.6689 75.8545 43.2226C74.3382 44.0248 74.7071 45.9996 76.4108 46.2002C77.5866 46.3386 78.8887 46.3742 80.0931 46.1492C81.2975 45.9241 82.499 45.4208 83.5454 44.8671C85.0617 44.0649 84.6927 42.0902 82.9891 41.8895C81.8133 41.7511 80.5112 41.7155 79.3068 41.9405Z" fill="#5EA985"/>
<path d="M71.8038 42.0359C72.416 43.0972 73.2897 44.0634 74.1595 44.8666C75.4197 46.0305 77.1599 45.0267 76.7834 43.3531C76.5235 42.1981 76.1247 40.958 75.5125 39.8967C74.9003 38.8353 74.0265 37.8692 73.1568 37.066C71.8966 35.9021 70.1564 36.9059 70.5329 38.5795C70.7927 39.7345 71.1916 40.9746 71.8038 42.0359Z" fill="#5EA985"/>
<path d="M76.4105 53.1573C75.2292 53.4827 74.0743 54.0852 73.0781 54.7248C71.6346 55.6517 72.1682 57.5884 73.8826 57.6452C75.0659 57.6844 76.3664 57.6104 77.5477 57.2849C78.7289 56.9595 79.8838 56.357 80.88 55.7174C82.3235 54.7905 81.7899 52.8538 80.0755 52.797C78.8922 52.7578 77.5917 52.8318 76.4105 53.1573Z" fill="#5EA985"/>
<path d="M67.9488 54.4921C68.6821 55.4736 69.664 56.3296 70.6226 57.0244C72.0116 58.0311 73.6209 56.8286 73.0491 55.2113C72.6546 54.0951 72.1119 52.9108 71.3785 51.9293C70.6451 50.9478 69.6633 50.0917 68.7047 49.397C67.3157 48.3903 65.7064 49.5928 66.2781 51.2101C66.6727 52.3263 67.2154 53.5106 67.9488 54.4921Z" fill="#5EA985"/>
<path d="M17.0195 102.255C16.9703 102.131 16.8757 102.031 16.7559 101.977C8.27843 98.1648 1.25253 90.0552 0.0248777 86.5224C-0.0783341 86.2253 0.153592 85.9431 0.462448 85.943C5.61537 85.9405 6.85029 85.8712 10.9427 83.9482C11.262 83.7982 11.3296 83.3641 11.0711 83.121L7.08503 79.3724C6.74093 79.0488 6.9895 78.4215 7.45634 78.3883C9.33681 78.2544 11.6617 77.6795 14.187 76.8332C14.3588 76.7756 14.4855 76.6253 14.5189 76.444C18.4489 55.1274 36.791 39 58.8249 39H71.7062C93.2648 39 111.289 54.4392 115.738 75.072C115.773 75.237 115.887 75.3746 116.041 75.4364C119.989 77.0215 123.754 78.1898 126.543 78.3883C127.01 78.4216 127.258 79.0488 126.914 79.3724L122.928 83.121C122.669 83.3641 122.737 83.7982 123.056 83.9482C127.149 85.8712 128.384 85.9405 133.537 85.943C133.845 85.9431 134.078 86.2223 133.975 86.5194C132.563 90.5925 123.43 100.762 113.252 103.397C113.102 103.436 112.978 103.543 112.915 103.687C105.895 119.78 90.0847 131 71.7062 131H58.8249C39.9059 131 23.7087 119.11 17.0195 102.255Z" fill="#EF8F35"/>
<path fill-rule="evenodd" clip-rule="evenodd" d="M113.139 103.442C113.041 103.495 112.961 103.581 112.915 103.687C105.895 119.78 90.0846 131 71.7061 131H58.8249C39.9127 131 23.7202 119.119 17.0266 102.273C26.8533 91.1659 46.2952 84 65 84C84.3531 84 103.962 91.6714 113.139 103.442Z" fill="#FFCEB9"/>
<ellipse cx="6.4" cy="8" rx="6.4" ry="8" transform="matrix(-1 0 0 1 41.8 71)" fill="#542016"/>
<ellipse cx="2.4" cy="2.8" rx="2.4" ry="2.8" transform="matrix(-1 0 0 1 39.4 73.4)" fill="white"/>
<circle cx="1.2" cy="1.2" r="1.2" transform="matrix(-1 0 0 1 34.6 79)" fill="white"/>
<ellipse cx="6.4" cy="8" rx="6.4" ry="8" transform="matrix(-1 0 0 1 103.8 71)" fill="#542016"/>
<ellipse cx="2.4" cy="2.8" rx="2.4" ry="2.8" transform="matrix(-1 0 0 1 101.4 73.4)" fill="white"/>
<circle cx="1.2" cy="1.2" r="1.2" transform="matrix(-1 0 0 1 96.6 79)" fill="white"/>
<rect x="65.2474" y="86.4421" width="2.23684" height="9.66316" rx="1.11842" fill="#542016"/>
<ellipse cx="66.3211" cy="85" rx="7.60526" ry="5" fill="#542016"/>
<circle cx="62.429" cy="82.8184" r="1.20789" fill="white"/>
<path d="M58 93.4816C62.0263 97.1052 70.9737 97.1052 75 93.4816" stroke="#542016" stroke-width="2.23684" stroke-linecap="round"/>
<path d="M92.8526 43.4723C92.9689 43.3741 93.0817 43.2696 93.1905 43.1587C95.0496 41.2634 95.0306 38.23 93.1481 36.3834C91.2655 34.5368 88.2323 34.5762 86.3732 36.4715C86.1927 36.6555 86.03 36.8502 85.8849 37.0535C85.4232 35.2525 83.9655 33.798 82.0555 33.4649C79.4716 33.0142 77.0384 34.7864 76.6208 37.423C76.3981 38.8287 76.7932 40.1963 77.6022 41.2351C77.4057 41.2462 77.2077 41.2692 77.0093 41.3046C74.3812 41.7729 72.6562 44.2398 73.1565 46.8145C73.6568 49.3892 76.1929 51.0967 78.821 50.6284C78.9629 50.6031 79.1021 50.572 79.2385 50.5354C79.2045 50.6724 79.1761 50.8122 79.1535 50.9545C78.7359 53.5912 80.4919 56.0939 83.0758 56.5446C85.6596 56.9952 88.0928 55.223 88.5105 52.5864C88.5476 52.3522 88.5675 52.1191 88.5713 51.8884C89.5697 52.5073 90.797 52.7756 92.0451 52.5531C94.6732 52.0848 96.3981 49.6179 95.8979 47.0432C95.571 45.3611 94.3752 44.0492 92.8526 43.4723Z" fill="#F6D384"/>
<circle cx="85.1757" cy="44.8961" r="3.60188" transform="rotate(69.1033 85.1757 44.8961)" fill="white" fill-opacity="0.6"/>
<g filter="url(#filter0_f_205_15)">
<ellipse cx="29" cy="91.4" rx="9" ry="5.4" fill="#FF6E41"/>
<ellipse cx="101" cy="91.4" rx="9" ry="5.4" fill="#FF6E41"/>
</g>
<defs>
<filter id="filter0_f_205_15" x="14" y="80" width="102" height="22.8" filterUnits="userSpaceOnUse" color-interpolation-filters="sRGB">
<feFlood flood-opacity="0" result="BackgroundImageFix"/>
<feBlend mode="normal" in="SourceGraphic" in2="BackgroundImageFix" result="shape"/>
<feGaussianBlur stdDeviation="3" result="effect1_foregroundBlur_205_15"/>
</filter>
</defs>
</svg>
