<svg width="109" height="116" viewBox="0 0 109 116" fill="none" xmlns="http://www.w3.org/2000/svg">
<ellipse cx="14.1705" cy="8.37404" rx="14.1705" ry="8.37404" transform="matrix(0.864804 0.502109 0.509896 -0.860236 1.91589 30.95)" fill="#FFDE73"/>
<ellipse cx="9.79219" cy="5.78668" rx="9.79219" ry="5.78668" transform="matrix(0.864804 0.502109 0.509896 -0.860236 7.02148 30.9226)" fill="#FFC2A9"/>
<ellipse cx="14.1705" cy="8.37404" rx="14.1705" ry="8.37404" transform="matrix(-0.864804 0.502109 -0.509896 -0.860236 106.195 30.95)" fill="#FFDE73"/>
<ellipse cx="9.79219" cy="5.78668" rx="9.79219" ry="5.78668" transform="matrix(-0.864804 0.502109 -0.509896 -0.860236 101.089 30.9226)" fill="#FFC2A9"/>
<path d="M26.224 9.04272H30.7453L32.5539 38.8838H24.4154L26.224 9.04272Z" fill="#FFDE73"/>
<circle cx="28.4847" cy="7.68634" r="7.68634" fill="#FFDE73"/>
<path d="M77.7677 9.04272H82.289L84.0976 38.8838H75.9591L77.7677 9.04272Z" fill="#FFDE73"/>
<circle cx="80.0284" cy="7.68634" r="7.68634" fill="#FFDE73"/>
<rect x="16.277" y="17.1813" width="76.8634" height="94.949" rx="38.4317" fill="#FFDE73"/>
<path fill-rule="evenodd" clip-rule="evenodd" d="M55.9921 17.2023C65.9715 17.5297 74.9884 21.6618 81.639 28.1948C79.8448 33.8676 74.539 37.9796 68.2728 37.9796C60.5318 37.9796 54.2565 31.7043 54.2565 23.9633C54.2565 21.5117 54.886 19.2071 55.9921 17.2023Z" fill="#C37D2C"/>
<path fill-rule="evenodd" clip-rule="evenodd" d="M21.0541 37.0412C24.1444 31.4531 28.5861 26.7163 33.9382 23.2719C35.3314 24.9242 36.171 27.0585 36.171 29.389C36.171 34.6328 31.92 38.8839 26.6761 38.8839C24.5721 38.8839 22.628 38.1995 21.0541 37.0412Z" fill="#C37D2C"/>
<path fill-rule="evenodd" clip-rule="evenodd" d="M93.075 53.3525C93.1184 54.1004 93.1404 54.8541 93.1404 55.6128V66.012C93.1404 66.012 93.1404 66.012 93.1404 66.012C89.6444 66.012 86.8104 63.178 86.8104 59.6821C86.8104 56.208 89.6092 53.3875 93.075 53.3525Z" fill="#C37D2C"/>
<path fill-rule="evenodd" clip-rule="evenodd" d="M16.3423 75.9588C16.299 75.2109 16.277 74.4573 16.277 73.6985L16.277 63.2993C19.7729 63.2993 22.6069 66.1333 22.6069 69.6292C22.6069 73.1033 19.8081 75.9238 16.3423 75.9588Z" fill="#C37D2C"/>
<ellipse cx="28.0325" cy="65.4696" rx="3.6171" ry="2.17026" fill="#ED653B" fill-opacity="0.6"/>
<ellipse cx="81.3848" cy="65.4696" rx="3.6171" ry="2.17026" fill="#ED653B" fill-opacity="0.6"/>
<circle cx="8.13848" cy="8.13848" r="8.13848" transform="matrix(-1 0 0 1 41.5967 46.118)" fill="#333333"/>
<circle cx="2.71283" cy="2.71283" r="2.71283" transform="matrix(-1 0 0 1 38.8839 48.8309)" fill="white"/>
<circle cx="1.35641" cy="1.35641" r="1.35641" transform="matrix(-1 0 0 1 33.4583 55.1608)" fill="white"/>
<circle cx="75.9592" cy="54.2565" r="8.13848" fill="#333333"/>
<circle cx="73.2464" cy="51.5438" r="2.71283" fill="white"/>
<circle cx="77.3155" cy="56.5172" r="1.35641" fill="white"/>
<ellipse cx="54.2566" cy="89.9755" rx="41.5967" ry="24.8676" fill="#FFCEB9"/>
<ellipse cx="36.1711" cy="80.9326" rx="2.71283" ry="4.06924" fill="#333333"/>
<ellipse cx="75.0549" cy="80.9326" rx="2.71283" ry="4.06924" fill="#333333"/>
<path d="M84.7304 101.485C82.5675 98.149 77.0772 96.5301 75.4126 96.1053C75.1452 96.037 74.8818 96.2078 74.8349 96.4798C74.5434 98.1728 73.7808 103.846 75.9437 107.182C78.1067 110.518 83.597 112.137 85.2616 112.562C85.529 112.63 85.7924 112.459 85.8392 112.187C86.1307 110.494 86.8934 104.821 84.7304 101.485Z" fill="#CCE772"/>
<path d="M73.7771 107.857C74.884 104.646 73.1252 100.119 72.5027 98.6876C72.3926 98.4346 72.1001 98.3337 71.8574 98.4652C70.4851 99.2086 66.3096 101.69 65.2027 104.901C64.0958 108.111 65.8546 112.639 66.4771 114.07C66.5872 114.323 66.8797 114.424 67.1223 114.292C68.4947 113.549 72.6701 111.067 73.7771 107.857Z" fill="#CCE772"/>
<path d="M33.4583 93.1404C41.5967 106.252 70.5336 106.252 78.2199 93.1404" stroke="#333333" stroke-width="2.5" stroke-linecap="round" stroke-linejoin="round"/>
<path d="M54.4417 45.9773C56.6036 34.2892 59.9274 29.6191 69.1256 19.8842" stroke="#CCE772" stroke-width="1.24764" stroke-linecap="round"/>
<path d="M51.9819 49.8463C52.2262 47.5987 54.5053 45.2698 54.5053 45.2698C54.5053 45.2698 55.9698 47.8498 55.7255 50.0974C55.4812 52.345 53.4742 54.7552 53.4742 54.7552C53.4742 54.7552 51.7376 52.0939 51.9819 49.8463Z" fill="#CCE772"/>
<path d="M56.4586 43.6052C55.5867 42.3262 55.4799 40.3372 55.4799 40.3372C55.4799 40.3372 57.309 41.1879 58.1809 42.4669C59.0528 43.7459 59.1596 45.7349 59.1596 45.7349C59.1596 45.7349 57.3305 44.8842 56.4586 43.6052Z" fill="#CCE772"/>
<path d="M52.1653 41.4595C53.5603 40.5757 55.6362 40.4058 55.6362 40.4058C55.6362 40.4058 54.6149 42.1981 53.2199 43.0819C51.8248 43.9657 49.749 44.1356 49.749 44.1356C49.749 44.1356 50.7703 42.3433 52.1653 41.4595Z" fill="#CCE772"/>
<path d="M58.4293 38.1811C57.5574 36.9021 57.4506 34.9132 57.4506 34.9132C57.4506 34.9132 59.2797 35.7638 60.1516 37.0428C61.0235 38.3218 61.1303 40.3108 61.1303 40.3108C61.1303 40.3108 59.3012 39.4601 58.4293 38.1811Z" fill="#CCE772"/>
<path d="M54.0066 35.2418C55.5635 34.6958 57.5939 35.01 57.5939 35.01C57.5939 35.01 56.1678 36.5363 54.611 37.0823C53.0541 37.6282 51.0237 37.3141 51.0237 37.3141C51.0237 37.3141 52.4498 35.7877 54.0066 35.2418Z" fill="#CCE772"/>
<path d="M61.1027 33.402C60.3278 32.0632 60.3642 30.0645 60.3642 30.0645C60.3642 30.0645 62.1211 31.0379 62.896 32.3766C63.6709 33.7153 63.6345 35.7141 63.6345 35.7141C63.6345 35.7141 61.8776 34.7407 61.1027 33.402Z" fill="#CCE772"/>
<path d="M56.6345 30.1438C58.2047 29.6407 60.2216 30.0119 60.2216 30.0119C60.2216 30.0119 58.7524 31.5001 57.1822 32.0033C55.612 32.5064 53.5951 32.1351 53.5951 32.1351C53.5951 32.1351 55.0643 30.6469 56.6345 30.1438Z" fill="#CCE772"/>
<path d="M64.6004 28.3334C63.9487 26.9305 64.1595 24.9326 64.1595 24.9326C64.1595 24.9326 65.8172 26.0494 66.4688 27.4523C67.1205 28.8552 66.9097 30.8531 66.9097 30.8531C66.9097 30.8531 65.2521 29.7363 64.6004 28.3334Z" fill="#CCE772"/>
<path d="M60.795 24.9963C62.3652 24.4932 64.3821 24.8644 64.3821 24.8644C64.3821 24.8644 62.9129 26.3527 61.3427 26.8558C59.7725 27.3589 57.7556 26.9877 57.7556 26.9877C57.7556 26.9877 59.2248 25.4994 60.795 24.9963Z" fill="#CCE772"/>
<path d="M81.3848 41.1661C81.3848 38.5025 83.5943 36.3433 86.32 36.3433C86.7138 36.3433 87.0968 36.3884 87.4639 36.4735C87.8966 34.2417 89.903 32.554 92.3127 32.554C94.6758 32.554 96.651 34.177 97.1346 36.3445C97.1723 36.3437 97.21 36.3433 97.2479 36.3433C99.9735 36.3433 102.183 38.5025 102.183 41.1661C102.183 44.4004 99.5001 47.0224 96.1904 47.0224H87.3775C84.0678 47.0224 81.3848 44.4004 81.3848 41.1661Z" fill="white"/>
<path d="M5.42566 50.9409C5.42566 48.6103 7.34702 46.721 9.71714 46.721C10.0596 46.721 10.3926 46.7604 10.7119 46.8349C11.0881 44.882 12.8328 43.4053 14.9282 43.4053C16.9831 43.4053 18.7006 44.8254 19.1212 46.722C19.1539 46.7213 19.1868 46.721 19.2197 46.721C21.5898 46.721 23.5112 48.6103 23.5112 50.9409C23.5112 53.7709 21.1781 56.0651 18.3001 56.0651H10.6367C7.75874 56.0651 5.42566 53.7709 5.42566 50.9409Z" fill="white"/>
</svg>
