<svg width="125" height="169" viewBox="0 0 125 169" fill="none" xmlns="http://www.w3.org/2000/svg">
<path d="M58.8368 18.2541C60.1147 13.5237 66.0696 9.5304 66.0696 9.5304C66.0696 9.5304 68.7176 15.6217 67.4397 20.3521C66.1619 25.0825 60.6768 29.4937 60.6768 29.4937C60.6768 29.4937 57.559 22.9845 58.8368 18.2541Z" fill="#ACCC5F"/>
<path d="M55.8862 15.652C51.7595 10.6867 42.1836 9.27674 42.1836 9.27674C42.1836 9.27674 42.0501 18.1836 46.1767 23.1488C50.3034 28.1141 59.5988 30.2311 59.5988 30.2311C59.5988 30.2311 60.0128 20.6173 55.8862 15.652Z" fill="#BBD468"/>
<circle cx="19.5" cy="41.7046" r="19.5" fill="#454545"/>
<circle cx="18.5" cy="41.6814" r="13.5" fill="#FFDED0"/>
<circle cx="105.5" cy="41.7046" r="19.5" fill="#454545"/>
<circle cx="105.5" cy="41.6814" r="13.5" fill="#FFDED0"/>
<path d="M120 77.3584C120 103.052 94.0325 127.181 62 127.181C29.9675 127.181 4 103.052 4 77.3584C4 51.6653 29.9675 23.1814 62 23.1814C94.0325 23.1814 120 51.6653 120 77.3584Z" fill="#FBFBFB"/>
<circle cx="31" cy="72.1814" r="13" fill="#454545"/>
<circle cx="35.3888" cy="69.688" r="4.5" transform="rotate(-150 35.3888 69.688)" fill="white"/>
<circle cx="29.3398" cy="77.639" r="3" transform="rotate(-150 29.3398 77.639)" fill="white"/>
<circle cx="95" cy="72.1814" r="13" fill="#454545"/>
<circle cx="99.3888" cy="69.688" r="4.5" transform="rotate(-150 99.3888 69.688)" fill="white"/>
<circle cx="93.3398" cy="77.639" r="3" transform="rotate(-150 93.3398 77.639)" fill="white"/>
<ellipse cx="24.5" cy="93.6814" rx="7.5" ry="5.5" fill="#FFC6AD"/>
<ellipse cx="101.5" cy="93.6814" rx="7.5" ry="5.5" fill="#FFC6AD"/>
<rect x="61.9038" y="87.1907" width="2.14795" height="8.91294" rx="1.07397" fill="#454545"/>
<ellipse cx="62.935" cy="84.7932" rx="7.30303" ry="4.61181" fill="#454545"/>
<ellipse cx="59.1974" cy="82.781" rx="1.15989" ry="1.11412" fill="white"/>
<path d="M55.5 93.6747C59.3663 97.017 66.6337 97.017 70.5 93.6747" stroke="#454545" stroke-width="2.5" stroke-linecap="round"/>
<path d="M52.4643 71.9671C52.4643 84.3619 41.9475 94.5029 28.8571 94.5029C15.7668 94.5029 5.25 84.3619 5.25 71.9671C5.25 59.5723 15.7668 49.4314 28.8571 49.4314C41.9475 49.4314 52.4643 59.5723 52.4643 71.9671Z" stroke="#323232" stroke-width="2.5"/>
<path d="M118.75 71.9671C118.75 84.3619 108.233 94.5029 95.1429 94.5029C82.0525 94.5029 71.5357 84.3619 71.5357 71.9671C71.5357 59.5723 82.0525 49.4314 95.1429 49.4314C108.233 49.4314 118.75 59.5723 118.75 71.9671Z" stroke="#323232" stroke-width="2.5"/>
<path d="M52.6095 70.2197C59.6834 69.015 63.8348 69.0367 71.3905 70.2197V74.61C64.1753 73.512 60.0612 73.4966 52.6095 74.61V70.2197Z" fill="#242424"/>
<path d="M86.4799 98.8979C86.7095 98.5287 86.5627 98.041 86.169 97.8566C81.7785 95.7999 79.152 94.2765 75.1302 91.5708C74.7702 91.3286 74.2777 91.4534 74.0794 91.8392C70.3565 99.0798 68.0403 103.291 63.5148 110.336C59.2019 118.71 56.6268 123.315 51.5976 131.281C47.9381 138.711 45.6204 142.845 41.213 149.62C40.9976 149.951 41.088 150.396 41.4167 150.615C45.5326 153.36 48.1828 154.877 52.6534 157.008C53.0042 157.176 53.4258 157.033 53.6047 156.688C57.3264 149.512 59.6919 145.405 64.0584 138.371C68.4925 130.066 71.123 125.493 75.9756 117.426C79.8609 109.967 82.1413 105.873 86.4799 98.8979Z" fill="#BCD466"/>
<g style="mix-blend-mode:multiply" opacity="0.25">
<path fill-rule="evenodd" clip-rule="evenodd" d="M48.7422 155.053C46.296 153.756 44.1887 152.464 41.4167 150.615C41.088 150.396 40.9975 149.951 41.213 149.62C45.6204 142.845 47.9381 138.711 51.5976 131.281C56.6268 123.315 59.2019 118.71 63.5147 110.336C68.0403 103.291 70.3565 99.0798 74.0793 91.8391C74.2777 91.4533 74.7702 91.3286 75.1301 91.5708C76.2057 92.2943 77.1815 92.9334 78.1179 93.5207C77.9336 93.5735 77.7699 93.6988 77.6743 93.8846C73.9515 101.125 71.6353 105.336 67.1097 112.381C62.7969 120.755 60.2218 125.36 55.1926 133.326C51.5331 140.757 49.2154 144.89 44.808 151.665C44.5925 151.996 44.683 152.441 45.0117 152.66C46.3764 153.571 47.58 154.346 48.7422 155.053ZM82.4202 96.0044C83.5594 96.6046 84.7753 97.2037 86.1689 97.8565C86.3757 97.9534 86.5143 98.1339 86.5662 98.3369C85.1047 97.5835 83.789 96.8419 82.4202 96.0044Z" fill="#BCD466"/>
</g>
<path d="M82.4942 120.064C85.2567 124.061 84.4368 131.441 84.4368 131.441C84.4368 131.441 78.1042 129.822 75.3416 125.826C72.5791 121.83 72.7783 114.576 72.7783 114.576C72.7783 114.576 79.7316 116.068 82.4942 120.064Z" fill="#ACCC5F"/>
<path d="M88.4307 118.809C94.5186 116.297 99.226 107.323 99.226 107.323C99.226 107.323 90.9764 104.421 84.8886 106.933C78.8008 109.444 73.5342 117.923 73.5342 117.923C73.5342 117.923 82.3429 121.321 88.4307 118.809Z" fill="#BBD468"/>
<path d="M41.5782 125.515C38.5083 120.152 39.6056 111.321 39.6056 111.321C39.6056 111.321 46.8067 114.438 49.8766 119.801C52.9465 125.165 52.5612 133.955 52.5612 133.955C52.5612 133.955 44.6481 130.879 41.5782 125.515Z" fill="#ACCC5F"/>
<path d="M47.5404 121.089C47.1437 115.772 51.4077 109.223 51.4077 109.223C51.4077 109.223 56.0438 114.243 56.4404 119.56C56.8371 124.878 53.0817 131.664 53.0817 131.664C53.0817 131.664 47.937 126.407 47.5404 121.089Z" fill="#BBD468"/>
<rect width="14.3366" height="5.94194" rx="2.97097" transform="matrix(-0.86916 -0.494531 -0.494531 0.86916 77.4448 114.844)" fill="#8BB554"/>
<rect width="14.3366" height="5.94194" rx="2.97097" transform="matrix(-0.86916 -0.494531 -0.494531 0.86916 65.6909 135.502)" fill="#8BB554"/>
</svg>
