<svg width="126" height="96" viewBox="0 0 126 96" fill="none" xmlns="http://www.w3.org/2000/svg">
<path fill-rule="evenodd" clip-rule="evenodd" d="M48.931 14.0393C41.7368 6.72636 33.98 -0.375692 31.4023 0.0966956C28.2901 0.667046 24.8932 15.3291 22.6567 27.0813C14.7219 34.3087 9.93192 43.6832 9.93192 53.9268C9.93192 76.7866 33.7862 95.318 63.212 95.318C92.6378 95.318 116.492 76.7866 116.492 53.9268C116.492 43.5631 111.589 34.089 103.487 26.828C101.25 15.1195 97.8795 0.662955 94.7897 0.0966956C92.2169 -0.374808 84.4842 6.69982 77.3014 13.9983C72.8135 13.0448 68.0893 12.5357 63.212 12.5357C58.2653 12.5357 53.476 13.0594 48.931 14.0393Z" fill="white"/>
<g style="mix-blend-mode:multiply">
<path fill-rule="evenodd" clip-rule="evenodd" d="M32.5 71C52.6584 71 69 54.6584 69 34.5C69 26.2618 66.2708 18.6611 61.6671 12.5527C57.2674 12.6501 53.0012 13.1617 48.931 14.0393C41.7368 6.72636 33.9799 -0.375688 31.4023 0.0966994C28.2901 0.66705 24.8932 15.3291 22.6567 27.0813C14.7219 34.3087 9.93188 43.6832 9.93188 53.9268C9.93188 57.5754 10.5395 61.1137 11.6805 64.4839C17.5855 68.5918 24.7615 71 32.5 71Z" fill="#D4D4D4"/>
</g>
<path d="M109.684 58.2463C116.01 55.9837 117.106 55.6051 123.881 54.3976" stroke="#333333" stroke-width="1.76133" stroke-linecap="round" stroke-linejoin="round"/>
<path d="M108.68 71.015C115.263 72.7523 118.006 73.9135 124.875 74.5455" stroke="#333333" stroke-width="1.76133" stroke-linecap="round" stroke-linejoin="round"/>
<path d="M109.48 64.8264C115.531 65.1825 117.541 64.4692 123.583 63.7121" stroke="#333333" stroke-width="1.76133" stroke-linecap="round" stroke-linejoin="round"/>
<path d="M16.3164 58.2463C9.98994 55.9837 8.89352 55.6051 2.11901 54.3976" stroke="#333333" stroke-width="1.76133" stroke-linecap="round" stroke-linejoin="round"/>
<path d="M17.32 71.015C10.7369 72.7523 7.9939 73.9135 1.1248 74.5455" stroke="#333333" stroke-width="1.76133" stroke-linecap="round" stroke-linejoin="round"/>
<path d="M16.5198 64.8264C10.469 65.1825 8.45933 64.4692 2.41703 63.7121" stroke="#333333" stroke-width="1.76133" stroke-linecap="round" stroke-linejoin="round"/>
<circle cx="40.6903" cy="48.6903" r="10.6903" fill="white"/>
<circle cx="40.5" cy="48.5" r="8.5" fill="#333333"/>
<circle cx="36.5" cy="44.5" r="1.5" fill="white"/>
<circle cx="39.5" cy="48.5" r="2.5" fill="white"/>
<circle cx="87.6903" cy="48.6903" r="10.6903" fill="white"/>
<circle cx="87.5" cy="48.5" r="8.5" fill="#333333"/>
<circle cx="83.5" cy="44.5" r="1.5" fill="white"/>
<circle cx="86.5" cy="48.5" r="2.5" fill="white"/>
<path d="M63.6035 59.0151V65.1798C63.6035 67.1253 62.0263 68.7024 60.0808 68.7024H58.98C57.6425 68.7024 56.5582 67.6181 56.5582 66.2806V66.2806" stroke="#323232" stroke-width="1.32099" stroke-linecap="round" stroke-linejoin="round"/>
<path d="M63.6035 59.0151V65.1798C63.6035 67.1253 65.1806 68.7024 67.1261 68.7024H68.2269C69.5645 68.7024 70.6488 67.6181 70.6488 66.2806V66.2806" stroke="#323232" stroke-width="1.32099" stroke-linecap="round" stroke-linejoin="round"/>
<path d="M68.0068 60.3361C68.0068 62.0384 66.0353 63.4185 63.6035 63.4185C61.1716 63.4185 59.2001 62.0384 59.2001 60.3361C59.2001 58.6338 61.1716 56.8135 63.6035 56.8135C66.0353 56.8135 68.0068 58.6338 68.0068 60.3361Z" fill="#323232"/>
<path d="M26.9868 23.5758C28.2869 17.1415 29.5457 12.8141 32.152 6.15897C32.3508 5.65131 32.9625 5.44629 33.4254 5.73441C38.4748 8.87757 41.2523 11.2855 45.082 15.4084C45.5255 15.8859 45.3064 16.6621 44.6805 16.8438C38.0554 18.767 33.9387 20.0465 28.46 24.4422C27.8055 24.9674 26.8206 24.3983 26.9868 23.5758Z" fill="#AAAAAA"/>
<path d="M98.3188 22.9496C97.655 16.3536 97.0239 12.432 94.2841 5.68196C94.08 5.17905 93.4689 4.98344 93.011 5.27474C88.4331 8.18664 85.8201 10.3483 81.5328 14.3567C81.0353 14.8219 81.234 15.6521 81.8866 15.8468C88.3907 17.7877 91.4689 19.1688 96.845 23.7092C97.4556 24.2249 98.3988 23.7448 98.3188 22.9496Z" fill="#AAAAAA"/>
<ellipse cx="36" cy="64" rx="6" ry="2" fill="#FFC7C3"/>
<ellipse cx="92" cy="64" rx="6" ry="2" fill="#FFC7C3"/>
<path d="M82.7974 13.4472C82.8932 13.3328 82.9846 13.2129 83.0712 13.0876C84.5503 10.9455 84.0469 8.03346 81.9469 6.58334C79.8468 5.13323 76.9453 5.69418 75.4662 7.83626C75.3226 8.04421 75.1976 8.25943 75.0911 8.47985C74.3604 6.82852 72.7304 5.68199 70.846 5.69121C68.2969 5.70369 66.2477 7.82643 66.269 10.4325C66.2804 11.8218 66.8779 13.068 67.8196 13.927C67.633 13.9715 67.4469 14.0277 67.2623 14.0959C64.8177 14.9993 63.5586 17.6676 64.4501 20.0558C65.3415 22.444 68.0459 23.6477 70.4904 22.7444C70.6224 22.6956 70.7509 22.6417 70.8758 22.583C70.8651 22.7206 70.8602 22.8599 70.8614 23.0005C70.8827 25.6066 72.9664 27.7091 75.5156 27.6966C78.0647 27.6842 80.1139 25.5614 80.0925 22.9554C80.0906 22.7239 80.0725 22.4964 80.0392 22.2741C81.0953 22.6967 82.3148 22.7429 83.4757 22.3139C85.9203 21.4106 87.1794 18.7423 86.2879 16.3541C85.7056 14.7938 84.3494 13.7391 82.7974 13.4472Z" fill="#FFA787"/>
<g style="mix-blend-mode:multiply">
<circle cx="75.2914" cy="15.6056" r="2.83182" transform="rotate(34.6255 75.2914 15.6056)" fill="#FFA787" fill-opacity="0.5"/>
</g>
</svg>
