<svg width="124" height="130" viewBox="0 0 124 130" fill="none" xmlns="http://www.w3.org/2000/svg">
<path d="M55.9772 17.3669C57.1929 12.8664 62.8584 9.06718 62.8584 9.06718C62.8584 9.06718 65.3776 14.8624 64.1619 19.3629C62.9461 23.8634 57.7277 28.0602 57.7277 28.0602C57.7277 28.0602 54.7614 21.8674 55.9772 17.3669Z" fill="#ACCC5F"/>
<path d="M53.1699 14.8913C49.2438 10.1673 40.1333 8.82588 40.1333 8.82588C40.1333 8.82588 40.0062 17.2998 43.9323 22.0238C47.8584 26.7477 56.7021 28.7618 56.7021 28.7618C56.7021 28.7618 57.096 19.6152 53.1699 14.8913Z" fill="#BBD468"/>
<circle cx="18.5522" cy="39.6776" r="18.5522" fill="#454545"/>
<circle cx="17.6008" cy="39.6555" r="12.8439" fill="#FFDED0"/>
<circle cx="100.372" cy="39.6776" r="18.5522" fill="#454545"/>
<circle cx="100.372" cy="39.6555" r="12.8439" fill="#FFDED0"/>
<path d="M114.168 73.5985C114.168 98.0429 89.4623 121 58.9866 121C28.511 121 3.8056 98.0429 3.8056 73.5985C3.8056 49.1542 28.511 22.0547 58.9866 22.0547C89.4623 22.0547 114.168 49.1542 114.168 73.5985Z" fill="#FBFBFB"/>
<circle cx="29.4933" cy="68.6731" r="12.3682" fill="#454545"/>
<circle cx="33.6688" cy="66.3008" r="4.28129" transform="rotate(-150 33.6688 66.3008)" fill="white"/>
<circle cx="27.9138" cy="73.8654" r="2.85419" transform="rotate(-150 27.9138 73.8654)" fill="white"/>
<circle cx="90.3827" cy="68.6731" r="12.3682" fill="#454545"/>
<circle cx="94.5582" cy="66.3008" r="4.28129" transform="rotate(-150 94.5582 66.3008)" fill="white"/>
<circle cx="88.8032" cy="73.8654" r="2.85419" transform="rotate(-150 88.8032 73.8654)" fill="white"/>
<ellipse cx="23.3092" cy="89.1282" rx="7.13548" ry="5.23268" fill="#FFC6AD"/>
<ellipse cx="96.5668" cy="89.1282" rx="7.13548" ry="5.23268" fill="#FFC6AD"/>
<rect x="58.8951" y="82.953" width="2.04355" height="8.47974" rx="1.02178" fill="#454545"/>
<ellipse cx="59.8762" cy="80.672" rx="6.94808" ry="4.38767" fill="#454545"/>
<ellipse cx="56.3202" cy="78.7576" rx="1.10352" ry="1.05997" fill="white"/>
<path d="M52.8026 89.1218C56.4809 92.3017 63.3951 92.3017 67.0735 89.1218" stroke="#454545" stroke-width="2.5" stroke-linecap="round"/>
<path d="M49.8536 68.4693C49.8536 80.2256 39.8777 89.8489 27.4546 89.8489C15.0315 89.8489 5.0556 80.2256 5.0556 68.4693C5.0556 56.7129 15.0315 47.0896 27.4546 47.0896C39.8777 47.0896 49.8536 56.7129 49.8536 68.4693Z" stroke="#323232" stroke-width="2.5"/>
<path d="M112.918 68.4693C112.918 80.2256 102.942 89.8489 90.5186 89.8489C78.0955 89.8489 68.1196 80.2256 68.1196 68.4693C68.1196 56.7129 78.0955 47.0896 90.5186 47.0896C102.942 47.0896 112.918 56.7129 112.918 68.4693Z" stroke="#323232" stroke-width="2.5"/>
<path d="M50.0525 66.8067C56.7826 65.6606 60.7322 65.6812 67.9206 66.8067V70.9836C61.0562 69.939 57.142 69.9244 50.0525 70.9836V66.8067Z" fill="#242424"/>
<path d="M110.978 88.9468C111.208 88.5773 111.062 88.0894 110.669 87.9032C108.394 86.8243 106.922 85.973 104.828 84.5751C104.467 84.3343 103.975 84.4601 103.776 84.8457C101.697 88.8815 100.349 91.3151 97.7761 95.3213C95.2627 100.201 93.762 102.885 90.8312 107.527C88.744 111.765 87.4058 114.163 84.9419 117.964C84.727 118.296 84.8163 118.741 85.1457 118.959C87.326 120.404 88.8235 121.26 91.1844 122.395C91.5347 122.563 91.9558 122.42 92.1351 122.075C94.2276 118.051 95.6012 115.673 98.0929 111.659C100.677 106.819 102.21 104.154 105.038 99.4531C107.247 95.2109 108.566 92.8365 110.978 88.9468Z" fill="#BCD466"/>
<g style="mix-blend-mode:multiply" opacity="0.25">
<path fill-rule="evenodd" clip-rule="evenodd" d="M89.1672 121.381C87.8153 120.664 86.6411 119.95 85.1457 118.959C84.8163 118.741 84.7269 118.296 84.9418 117.964C87.4057 114.163 88.7439 111.765 90.8311 107.527C93.7619 102.885 95.2626 100.201 97.776 95.3213C100.349 91.3151 101.697 88.8815 103.776 84.8457C103.975 84.46 104.467 84.3342 104.828 84.5751C105.419 84.9695 105.96 85.3204 106.484 85.6452C106.234 85.6572 105.996 85.7967 105.871 86.0377C103.792 90.0734 102.444 92.5071 99.871 96.5133C97.3576 101.393 95.857 104.077 92.9261 108.719C90.8389 112.957 89.5007 115.355 87.0368 119.156C86.8219 119.488 86.9113 119.933 87.2407 120.151C87.9355 120.611 88.561 121.012 89.1672 121.381ZM108.793 86.9694C109.372 87.2741 109.984 87.5783 110.669 87.9031C110.817 87.9735 110.931 88.0869 111.002 88.2207C110.232 87.8183 109.526 87.4174 108.793 86.9694Z" fill="#BCD466"/>
</g>
<path d="M108.837 100.991C110.446 103.32 109.969 107.62 109.969 107.62C109.969 107.62 106.278 106.677 104.668 104.348C103.058 102.019 103.174 97.792 103.174 97.792C103.174 97.792 107.227 98.6618 108.837 100.991Z" fill="#ACCC5F"/>
<path d="M112.296 100.259C115.844 98.7952 118.587 93.5654 118.587 93.5654C118.587 93.5654 113.78 91.8742 110.232 93.3379C106.684 94.8017 103.615 99.7426 103.615 99.7426C103.615 99.7426 108.748 101.723 112.296 100.259Z" fill="#BBD468"/>
<path d="M84.9922 104.167C83.2032 101.042 83.8427 95.8955 83.8427 95.8955C83.8427 95.8955 88.0392 97.7118 89.8282 100.837C91.6173 103.963 91.3927 109.086 91.3927 109.086C91.3927 109.086 86.7813 107.293 84.9922 104.167Z" fill="#ACCC5F"/>
<path d="M88.4668 101.588C88.2356 98.489 90.7205 94.6725 90.7205 94.6725C90.7205 94.6725 93.4222 97.5981 93.6534 100.697C93.8845 103.796 91.696 107.75 91.696 107.75C91.696 107.75 88.6979 104.687 88.4668 101.588Z" fill="#BBD468"/>
<rect width="8.35484" height="3.46274" rx="1.73137" transform="matrix(-0.86916 -0.494531 -0.494531 0.86916 105.894 97.9482)" fill="#8BB554"/>
<rect width="8.35484" height="3.46274" rx="1.73137" transform="matrix(-0.86916 -0.494531 -0.494531 0.86916 99.0442 109.987)" fill="#8BB554"/>
</svg>
