<svg width="112" height="123" viewBox="0 0 112 123" fill="none" xmlns="http://www.w3.org/2000/svg">
<path d="M51.7336 8.66484C52.3117 5.19981 55.2915 2.79721 58.3894 3.29848C61.4872 3.79975 63.5299 7.01507 62.9519 10.4801L62.1316 15.3974L64.4665 11.1117C66.1272 8.06349 69.6446 6.98846 72.3228 8.71061C75.001 10.4328 75.8258 14.2999 74.1651 17.3482L66.1465 32.0665C64.4858 35.1148 60.9685 36.1898 58.2903 34.4676C57.4328 33.9163 56.7653 33.145 56.3085 32.2511C55.4323 32.6065 54.4746 32.7339 53.5053 32.5771C52.711 32.4486 51.9861 32.1416 51.3569 31.6978C50.5131 33.3652 49.0274 34.6303 47.2218 35.0009C44.1027 35.641 41.2099 33.3696 40.7606 29.9275L38.591 13.3077C38.1416 9.86561 40.3059 6.55631 43.425 5.91617C46.5441 5.27603 49.4369 7.54745 49.8862 10.9895L50.527 15.8982L51.7336 8.66484Z" fill="#FFF161"/>
<path d="M109.2 76.379C109.2 104.663 84.3506 122.521 56 122.521C27.6494 122.521 2.79999 104.663 2.79999 76.379C2.79999 48.0953 27.6494 17.054 56 17.054C84.3506 17.054 109.2 48.0953 109.2 76.379Z" fill="#FFF161"/>
<path d="M67.2595 94.2945C70.1624 96.0064 75.2384 94.7422 75.2384 94.7422C75.2384 94.7422 73.8122 90.1521 70.9093 88.4402C68.0064 86.7282 62.9877 87.5175 62.9877 87.5175C62.9877 87.5175 64.3566 92.5825 67.2595 94.2945Z" fill="#A0BE56"/>
<path d="M58.4863 96.4923C60.4828 101.109 67.3327 104.263 67.3327 104.263C67.3327 104.263 69.3853 97.6332 67.3888 93.0164C65.3923 88.3996 58.9072 84.7789 58.9072 84.7789C58.9072 84.7789 56.4898 91.8755 58.4863 96.4923Z" fill="#BBD468"/>
<path d="M40.3996 84.4137C38.0093 82.9796 37.7821 79.6016 39.9588 77.8603L48.3563 71.1423C52.8273 67.5655 59.2026 67.6456 63.5822 71.3338L71.4177 77.9321C73.4879 79.6754 73.2654 82.9285 70.9771 84.3737L62.2944 89.8575C58.4639 92.2767 53.5975 92.3325 49.7126 90.0015L40.3996 84.4137Z" fill="#FFA046"/>
<ellipse cx="49.3861" cy="80.4248" rx="1.57069" ry="2.05812" fill="#CF7520"/>
<ellipse cx="61.6806" cy="80.4248" rx="1.57069" ry="2.05812" fill="#CF7520"/>
<circle cx="8.4" cy="8.4" r="8.4" transform="matrix(-1 0 0 1 40.1334 59.9873)" fill="#3A3A3A"/>
<ellipse cx="2.52" cy="2.94" rx="2.52" ry="2.94" transform="matrix(-1 0 0 1 37.6133 62.5073)" fill="white"/>
<circle cx="1.26" cy="1.26" r="1.26" transform="matrix(-1 0 0 1 32.5734 68.3872)" fill="white"/>
<path d="M26.0921 55.7055C30.5933 53.3963 33.0363 53.6305 37.2768 56.2917" stroke="#3A3A3A" stroke-width="2.5" stroke-linecap="round"/>
<circle cx="8.4" cy="8.4" r="8.4" transform="matrix(-1 0 0 1 88.6666 59.9873)" fill="#3A3A3A"/>
<ellipse cx="2.52" cy="2.94" rx="2.52" ry="2.94" transform="matrix(-1 0 0 1 86.1467 62.5073)" fill="white"/>
<circle cx="1.26" cy="1.26" r="1.26" transform="matrix(-1 0 0 1 81.1067 68.3872)" fill="white"/>
<path d="M86.8823 55.7055C82.3811 53.3963 79.9381 53.6305 75.6976 56.2917" stroke="#3A3A3A" stroke-width="2.5" stroke-linecap="round"/>
<circle cx="21.4667" cy="86.1207" r="11.2" fill="#FFAA97"/>
<circle cx="91.4667" cy="86.1207" r="11.2" fill="#FFAA97"/>
<path d="M46.7069 67.0862C46.7069 79.0025 36.595 88.7587 24 88.7587C11.405 88.7587 1.2931 79.0025 1.2931 67.0862C1.2931 55.17 11.405 45.4138 24 45.4138C36.595 45.4138 46.7069 55.17 46.7069 67.0862Z" stroke="#525252" stroke-width="2.58621"/>
<path d="M110.707 67.0862C110.707 79.0025 100.595 88.7587 87.9999 88.7587C75.405 88.7587 65.293 79.0025 65.293 67.0862C65.293 55.17 75.405 45.4138 87.9999 45.4138C100.595 45.4138 110.707 55.17 110.707 67.0862Z" stroke="#525252" stroke-width="2.58621"/>
<path d="M46.9333 65.3988C53.7633 64.2357 57.7715 64.2566 65.0666 65.3988V69.6378C58.1003 68.5776 54.128 68.5627 46.9333 69.6378V65.3988Z" fill="#525252"/>
</svg>
