<svg width="118" height="105" viewBox="0 0 118 105" fill="none" xmlns="http://www.w3.org/2000/svg">
<path d="M25.5371 47.5625C21.1129 42.7515 16.6899 38.6366 15.1676 33.2098C11.4821 20.0728 18.3639 5.98278 18.6076 5.4394L19.4709 3.49825C19.753 2.86406 20.5388 2.64075 21.1122 3.03182L22.8443 4.21305C23.6304 4.74905 48.7094 17.9554 39.5377 37.6842L25.5371 47.5625Z" fill="#B9997B"/>
<path d="M27.6771 45.3061C24.4205 41.7649 21.1649 38.736 20.0444 34.7414C17.3316 25.0716 22.397 14.7004 22.5764 14.3004L23.0691 13.1927C23.3512 12.5585 24.1369 12.3352 24.7104 12.7262L25.695 13.3977C26.2736 13.7922 44.7336 23.5131 37.9826 38.0349L27.6771 45.3061Z" fill="#FDF5CF"/>
<path d="M92.016 47.5625C96.4402 42.7515 100.863 38.6366 102.385 33.2098C106.071 20.0728 99.1892 5.98278 98.9455 5.4394L98.0821 3.49825C97.8001 2.86406 97.0143 2.64075 96.4409 3.03182L94.7087 4.21305C93.9227 4.74905 68.8436 17.9554 78.0153 37.6842L92.016 47.5625Z" fill="#B9997B"/>
<path d="M89.8759 45.3061C93.1325 41.7649 96.3881 38.736 97.5086 34.7414C100.221 25.0716 95.1559 14.7004 94.9765 14.3004L94.4839 13.1927C94.2018 12.5585 93.416 12.3352 92.8426 12.7262L91.858 13.3977C91.2794 13.7922 72.8193 23.5131 79.5704 38.0349L89.8759 45.3061Z" fill="#FDF5CF"/>
<path fill-rule="evenodd" clip-rule="evenodd" d="M64.4947 8.58342C66.7784 9.41463 67.9559 11.9398 67.1247 14.2235L63.8136 23.3207C63.1015 25.2772 61.1461 26.4218 59.1643 26.1869C58.8391 26.4234 58.4758 26.6189 58.0791 26.7633C55.7954 27.5945 53.2702 26.417 52.439 24.1332L49.1279 15.0361C48.2967 12.7523 49.4742 10.2272 51.758 9.39597C54.0417 8.56476 56.5669 9.74226 57.3981 12.026L57.9784 13.6205L58.8546 11.2134C59.6858 8.92971 62.2109 7.75221 64.4947 8.58342Z" fill="#B9997B"/>
<path fill-rule="evenodd" clip-rule="evenodd" d="M93.4634 44.7207C93.5099 45.0799 93.7219 45.3986 94.0358 45.5793C103.579 51.0734 110.004 61.3751 110.004 73.1774C110.004 90.7525 95.7567 105 78.1817 105H41.1788C23.6038 105 9.35642 90.7525 9.35642 73.1774C9.35642 61.3751 15.7815 51.0734 25.3248 45.5793C25.6386 45.3986 25.8506 45.0799 25.8972 44.7208C27.8753 29.4607 40.9211 17.6733 56.72 17.6733H62.6405C78.4394 17.6733 91.4853 29.4607 93.4634 44.7207Z" fill="#B9997B"/>
<path fill-rule="evenodd" clip-rule="evenodd" d="M108.041 84.2079C103.555 96.3462 91.8788 105 78.1817 105H41.1788C27.4817 105 15.8057 96.3462 11.32 84.2079C15.8057 72.0695 27.4817 63.4157 41.1789 63.4157H78.1817C91.8788 63.4157 103.555 72.0695 108.041 84.2079Z" fill="#FDF5CF"/>
<ellipse cx="36.3861" cy="52.5" rx="6.23762" ry="7.79702" fill="#433D3C"/>
<ellipse cx="34.8267" cy="49.771" rx="2.33911" ry="2.72896" fill="white"/>
<circle cx="38.3354" cy="53.6694" r="1.16955" fill="white"/>
<ellipse cx="6.23762" cy="7.79702" rx="6.23762" ry="7.79702" transform="matrix(-1 0 0 1 89.4059 44.703)" fill="#433D3C"/>
<ellipse cx="2.33911" cy="2.72896" rx="2.33911" ry="2.72896" transform="matrix(-1 0 0 1 87.0668 47.042)" fill="white"/>
<circle cx="1.16955" cy="1.16955" r="1.16955" transform="matrix(-1 0 0 1 82.3886 52.4999)" fill="white"/>
<path d="M68.782 63.8168C68.782 61.1739 65.0002 59.4689 60.3352 59.4689C55.6702 59.4689 51.8884 61.1739 51.8884 63.8168C51.8884 66.4597 55.6702 69.6848 60.3352 69.6848C65.0002 69.6848 68.782 66.4597 68.782 63.8168Z" fill="#433D3C"/>
<circle cx="64.2108" cy="63.7224" r="1.19249" fill="white"/>
<path d="M60.297 62.851V71.6417C60.297 74.5125 62.6242 76.8398 65.495 76.8398H66.2212C68.6909 76.8398 70.6931 74.8377 70.6931 72.3679V72.3679" stroke="#433D3C" stroke-width="2.34332" stroke-linecap="round" stroke-linejoin="round"/>
<path d="M60.297 62.851V71.6417C60.297 74.5125 57.9697 76.8398 55.0989 76.8398H54.3727C51.903 76.8398 49.9009 74.8377 49.9009 72.3679V72.3679" stroke="#433D3C" stroke-width="2.34332" stroke-linecap="round" stroke-linejoin="round"/>
<ellipse cx="29.1089" cy="75.2673" rx="6.23762" ry="4.57425" fill="#FFCEB9"/>
<ellipse cx="90.4455" cy="75.2673" rx="6.23762" ry="4.57425" fill="#FFCEB9"/>
<path d="M40.7611 21.554L41.8634 16.7755C42.1916 15.3527 41.111 13.9945 39.6508 13.9945C38.1906 13.9945 37.1101 15.3527 37.4383 16.7755L38.5405 21.554L39.0786 23.9949L40.3922 23.9096L40.7611 21.554Z" fill="#FFE591"/>
<path d="M41.8874 24.9009L46.6659 26.0031C48.0887 26.3313 49.4469 25.2506 49.4469 23.7905C49.4469 22.3303 48.0887 21.2497 46.6659 21.5779L41.8874 22.6801L39.5596 23.1584V24.258L41.8874 24.9009Z" fill="#FFE591"/>
<path d="M37.4143 24.9009L32.6357 26.0032C31.213 26.3314 29.8547 25.2507 29.8547 23.7906C29.8547 22.3304 31.213 21.2498 32.6357 21.578L37.4143 22.6802L38.9794 23.0583L39.278 24.4746L37.4143 24.9009Z" fill="#FFE591"/>
<path d="M38.3093 20.552L36.2549 17.2656C35.4809 16.0275 33.7564 15.8312 32.7239 16.8636C31.6915 17.8961 31.8878 19.6206 33.1259 20.3946L36.4123 22.4491L38.7372 23.9949L39.6509 23.0407L38.3093 20.552Z" fill="#FFE591"/>
<path d="M42.8894 22.4491L46.1758 20.3947C47.4139 19.6207 47.6102 17.8962 46.5777 16.8637C45.5453 15.8312 43.8207 16.0275 43.0468 17.2657L40.9923 20.5521L39.2781 23.3042L40.1451 24.5144L42.8894 22.4491Z" fill="#FFE591"/>
<path d="M42.8894 25.132L46.1758 27.1864C47.4139 27.9604 47.6102 29.6849 46.5777 30.7174C45.5453 31.7499 43.8207 31.5536 43.0468 30.3154L40.9923 27.0291L39.3792 24.8439L40.6926 23.6324L42.8894 25.132Z" fill="#FFE591"/>
<path d="M38.3093 27.0291L36.2549 30.3155C35.4809 31.5536 33.7564 31.75 32.7239 30.7175C31.6915 29.685 31.8878 27.9605 33.1259 27.1865L36.4123 25.1321L39.278 23.3819L40.0131 23.9987L38.3093 27.0291Z" fill="#FFE591"/>
<path d="M40.9088 26.1637L41.9935 30.866C42.3165 32.2661 41.2531 33.6027 39.8162 33.6027C38.3794 33.6027 37.316 32.2661 37.6389 30.866L38.7236 26.1637L39.1407 23.6156L40.1983 23.5001L40.9088 26.1637Z" fill="#FFE591"/>
<path d="M39.6511 26.0973C40.925 26.0973 41.9576 25.0646 41.9576 23.7908C41.9576 22.5169 40.925 21.4843 39.6511 21.4843C38.3773 21.4843 37.3446 22.5169 37.3446 23.7908C37.3446 25.0646 38.3773 26.0973 39.6511 26.0973Z" fill="#FFD500"/>
<g style="mix-blend-mode:multiply">
<path fill-rule="evenodd" clip-rule="evenodd" d="M39.0673 26.0228C39.2538 26.0714 39.4494 26.0973 39.6511 26.0973C40.925 26.0973 41.9576 25.0646 41.9576 23.7908C41.9576 22.517 40.925 21.4843 39.6511 21.4843C39.5185 21.4843 39.3886 21.4955 39.2621 21.517C40.2532 21.7755 40.9848 22.6768 40.9848 23.7489C40.9848 24.8902 40.1559 25.8379 39.0673 26.0228Z" fill="#FED402" fill-opacity="0.5"/>
</g>
</svg>
