<svg width="116" height="122" viewBox="0 0 116 122" fill="none" xmlns="http://www.w3.org/2000/svg">
<path d="M56.7322 3.80281C57.3607 2.35737 59.4107 2.35737 60.0392 3.80282L61.0176 6.05301C61.5895 7.36851 63.3942 7.52169 64.1797 6.32141L65.5202 4.27317C66.3832 2.95449 68.4036 3.29976 68.7798 4.8302L69.3673 7.22082C69.7096 8.61348 71.462 9.06852 72.4386 8.01835L74.1037 6.22786C75.1766 5.07416 77.1091 5.75466 77.2224 7.32606L77.4001 9.79088C77.5032 11.2205 79.1526 11.9641 80.2922 11.0946L82.2363 9.61121C83.4882 8.65601 85.2771 9.65198 85.1246 11.2193L84.8843 13.6885C84.7456 15.1142 86.2446 16.1246 87.514 15.4611L89.6846 14.3267C91.0793 13.5977 92.6731 14.8803 92.2594 16.3987L91.6047 18.8009C91.2284 20.1819 92.5339 21.4297 93.8964 20.9914L96.2341 20.2395C97.7312 19.758 99.0841 21.2901 98.4211 22.7161L97.3684 24.9802C96.7654 26.2771 97.84 27.7261 99.256 27.5256L101.696 27.1803C103.252 26.96 104.325 28.6974 103.432 29.9904L102.01 32.0483C101.198 33.2241 102.011 34.8325 103.439 34.8754L105.912 34.9497C107.482 34.9969 108.245 36.8896 107.147 38.0126L105.397 39.8017C104.398 40.8229 104.927 42.5446 106.327 42.8293L108.76 43.3242C110.299 43.6372 110.73 45.6309 109.458 46.5516L107.433 48.0178C106.276 48.8551 106.505 50.6407 107.836 51.1586L110.158 52.0624C111.621 52.6318 111.708 54.6693 110.299 55.3612L108.059 56.4608C106.777 57.0901 106.7 58.8885 107.924 59.6244L110.065 60.9121C111.41 61.7213 111.15 63.7442 109.644 64.187L107.257 64.8887C105.887 65.2915 105.507 67.0514 106.588 67.984L108.483 69.6178C109.672 70.6434 109.073 72.5936 107.513 72.7744L105.051 73.0596C103.632 73.2241 102.959 74.8951 103.867 75.9976L105.459 77.9284C106.458 79.1408 105.537 80.9624 103.968 80.8756L101.503 80.7391C100.076 80.6601 99.1283 82.1943 99.8385 83.4351L101.08 85.6043C101.861 86.9687 100.644 88.6094 99.1115 88.2572L96.7144 87.7063C95.3201 87.3858 94.1258 88.7391 94.6172 90.0828L95.4737 92.4247C96.014 93.9022 94.5353 95.3146 93.0841 94.7072L90.8223 93.7604C89.5014 93.2075 88.0942 94.3407 88.3527 95.7491L88.8013 98.1938C89.0855 99.7422 87.3881 100.886 86.0599 100.04L83.9956 98.7268C82.7866 97.9575 81.2067 98.8377 81.2247 100.27L81.2557 102.746C81.2754 104.321 79.4079 105.163 78.2413 104.104L76.4305 102.462C75.3686 101.498 73.6615 102.1 73.4381 103.516L73.0537 105.952C72.8082 107.509 70.8246 108.024 69.8531 106.783L68.3451 104.857C67.4609 103.728 65.6759 104.033 65.2171 105.392L64.4312 107.72C63.9271 109.214 61.8845 109.387 61.1361 108L59.9724 105.843C59.2913 104.581 57.4801 104.581 56.7989 105.843L55.6353 108C54.8868 109.387 52.8442 109.214 52.3402 107.72L51.5542 105.392C51.0954 104.033 49.3105 103.728 48.4262 104.857L46.9182 106.783C45.9468 108.024 43.9631 107.509 43.7176 105.952L43.3332 103.516C43.1098 102.1 41.4027 101.498 40.3408 102.462L38.53 104.104C37.3634 105.163 35.496 104.321 35.5157 102.746L35.5467 100.27C35.5646 98.8377 33.9847 97.9575 32.7758 98.7268L30.7114 100.04C29.3833 100.886 27.6858 99.7422 27.97 98.1938L28.4187 95.7491C28.6771 94.3407 27.2699 93.2075 25.9491 93.7604L23.6872 94.7072C22.236 95.3146 20.7573 93.9022 21.2976 92.4247L22.1541 90.0828C22.6455 88.7391 21.4513 87.3858 20.0569 87.7063L17.6598 88.2572C16.1276 88.6094 14.9101 86.9687 15.6911 85.6043L16.9328 83.4351C17.643 82.1943 16.6957 80.6601 15.2683 80.7391L12.8033 80.8756C11.2345 80.9624 10.3129 79.1408 11.3123 77.9284L12.904 75.9976C13.8128 74.8951 13.1395 73.2241 11.7203 73.0596L9.25819 72.7744C7.69816 72.5936 7.09891 70.6434 8.28825 69.6178L10.183 67.984C11.2645 67.0514 10.8842 65.2915 9.51413 64.8887L7.12738 64.187C5.6211 63.7442 5.3612 61.7213 6.7066 60.9121L8.84744 59.6244C10.0709 58.8885 9.99435 57.0901 8.71269 56.4608L6.47272 55.3612C5.06346 54.6693 5.1503 52.6318 6.61332 52.0624L8.93545 51.1586C10.2661 50.6407 10.4953 48.8551 9.33872 48.0178L7.31325 46.5516C6.04133 45.6309 6.47245 43.6372 8.01114 43.3242L10.4446 42.8293C11.8443 42.5446 12.373 40.8229 11.3743 39.8017L9.62452 38.0126C8.52623 36.8896 9.28935 34.9969 10.8594 34.9497L13.332 34.8754C14.7605 34.8325 15.5737 33.2241 14.7613 32.0483L13.3394 29.9904C12.446 28.6974 13.5194 26.96 15.0755 27.1803L17.5153 27.5256C18.9313 27.7261 20.0059 26.2771 19.403 24.9802L18.3502 22.7161C17.6872 21.2901 19.0402 19.758 20.5373 20.2395L22.8749 20.9914C24.2375 21.4297 25.5429 20.1819 25.1666 18.8009L24.512 16.3987C24.0982 14.8803 25.692 13.5977 27.0867 14.3267L29.2573 15.4611C30.5268 16.1246 32.0257 15.1142 31.887 13.6885L31.6467 11.2193C31.4942 9.65199 33.2831 8.65601 34.535 9.61121L36.4792 11.0946C37.6187 11.9641 39.2682 11.2206 39.3713 9.79088L39.549 7.32606C39.6623 5.75467 41.5948 5.07417 42.6677 6.22787L44.3327 8.01835C45.3094 9.06852 47.0617 8.61348 47.404 7.22083L47.9915 4.8302C48.3677 3.29975 50.3881 2.95449 51.2511 4.27317L52.5916 6.32141C53.3772 7.52169 55.1818 7.36851 55.7538 6.05301L56.7322 3.80281Z" fill="#3B2514"/>
<path d="M56.72 11.4184C57.3351 9.93523 59.436 9.93523 60.0511 11.4184L60.408 12.2792C60.9696 13.6335 62.8268 13.787 63.6031 12.5432L64.0697 11.7956C64.9189 10.435 66.9887 10.7772 67.3547 12.3388L67.5851 13.3221C67.9188 14.7458 69.7193 15.201 70.6896 14.107L71.2627 13.4608C72.3234 12.2647 74.3007 12.9385 74.4104 14.5335L74.4863 15.6377C74.5861 17.0892 76.2754 17.8308 77.4115 16.9219L78.0992 16.3717C79.3413 15.3779 81.1679 16.3623 81.0209 17.9462L80.909 19.1522C80.7755 20.5909 82.3038 21.5943 83.5709 20.8999L84.3864 20.453C85.7725 19.6934 87.3956 20.9579 86.998 22.4876L86.6683 23.7563C86.3079 25.1434 87.6316 26.3763 88.9896 25.9182L89.9427 25.5968C91.4298 25.0952 92.8033 26.6014 92.1671 28.0361L91.6022 29.3102C91.0262 30.6093 92.1095 32.0332 93.5152 31.8245L94.603 31.6631C96.1447 31.4342 97.2308 33.1371 96.3733 34.4386L95.5754 35.6495C94.7995 36.827 95.6148 38.3993 97.0242 38.4437L98.2249 38.4815C99.7735 38.5303 100.543 40.3804 99.4867 41.5134L98.4815 42.5912C97.5256 43.6161 98.0533 45.292 99.424 45.5843L100.695 45.8554C102.204 46.1772 102.638 48.1222 101.409 49.0549L100.244 49.9389C99.1322 50.7832 99.3604 52.5168 100.653 53.0444L101.934 53.5672C103.36 54.1491 103.447 56.1349 102.078 56.8397L100.818 57.4882C99.5777 58.1268 99.5015 59.872 100.682 60.6163L101.903 61.3864C103.206 62.2083 102.944 64.1805 101.472 64.6344L100.188 65.0304C98.8511 65.4423 98.4721 67.1529 99.5094 68.0908L100.602 69.0782C101.748 70.1149 101.144 72.0191 99.6097 72.2055L98.3673 72.3564C96.9721 72.526 96.2987 74.1557 97.1673 75.2606L98.0735 76.4134C99.0338 77.6348 98.1027 79.4178 96.5516 79.3277L95.4033 79.2611C93.9903 79.179 93.0381 80.6826 93.7162 81.925L94.3994 83.1764C95.1487 84.5491 93.9147 86.1596 92.3943 85.7931L91.3725 85.5469C89.9851 85.2125 88.7776 86.546 89.2476 87.8935L89.6938 89.1728C90.2125 90.66 88.7089 92.0506 87.2667 91.4176L86.383 91.0298C85.0652 90.4513 83.6342 91.574 83.8823 92.9916L84.1 94.2351C84.3734 95.7971 82.6423 96.9259 81.3232 96.0457L80.5732 95.5453C79.3669 94.7404 77.7522 95.6165 77.7695 97.0666L77.7833 98.2254C77.8024 99.8203 75.8934 100.653 74.7378 99.5533L74.1089 98.9551C73.0518 97.9495 71.3003 98.5504 71.0832 99.9932L70.926 101.038C70.6877 102.622 68.6567 103.132 67.6983 101.849L67.1789 101.153C66.3026 99.9794 64.4667 100.285 64.0179 101.679L63.7213 102.601C63.2294 104.129 61.1362 104.3 60.4018 102.873L59.9888 102.07C59.3177 100.766 57.4534 100.766 56.7823 102.07L56.3693 102.873C55.6348 104.3 53.5417 104.129 53.0498 102.601L52.7532 101.679C52.3044 100.285 50.4685 99.9794 49.5922 101.153L49.0727 101.849C48.1144 103.132 46.0834 102.622 45.8451 101.038L45.6879 99.9932C45.4708 98.5504 43.7193 97.9495 42.6622 98.9551L42.0333 99.5533C40.8777 100.653 38.9687 99.8203 38.9877 98.2254L39.0016 97.0666C39.0189 95.6165 37.4042 94.7404 36.1979 95.5453L35.4479 96.0457C34.1288 96.9259 32.3977 95.7971 32.6711 94.2351L32.8888 92.9916C33.1369 91.574 31.7059 90.4513 30.3881 91.0298L29.5044 91.4176C28.0622 92.0506 26.5586 90.66 27.0773 89.1729L27.5235 87.8935C27.9935 86.546 26.786 85.2125 25.3986 85.5469L24.3768 85.7931C22.8564 86.1596 21.6224 84.5491 22.3717 83.1764L23.0548 81.925C23.733 80.6826 22.7808 79.179 21.3678 79.2611L20.2195 79.3277C18.6684 79.4178 17.7373 77.6348 18.6976 76.4134L19.6038 75.2606C20.4724 74.1557 19.799 72.526 18.4038 72.3564L17.1614 72.2055C15.627 72.0191 15.0231 70.1149 16.1696 69.0782L17.2617 68.0908C18.2989 67.1529 17.9199 65.4423 16.5836 65.0304L15.2992 64.6344C13.8268 64.1805 13.5653 62.2083 14.8686 61.3864L16.0895 60.6163C17.2696 59.872 17.1934 58.1268 15.9529 57.4882L14.693 56.8397C13.324 56.1349 13.4113 54.1491 14.837 53.5672L16.1179 53.0444C17.4107 52.5168 17.6389 50.7832 16.5267 49.9389L15.3621 49.0549C14.1332 48.1222 14.5673 46.1772 16.0761 45.8554L17.3471 45.5843C18.7178 45.292 19.2455 43.6161 18.2896 42.5912L17.2844 41.5134C16.2276 40.3804 16.9976 38.5303 18.5462 38.4815L19.7469 38.4437C21.1563 38.3993 21.9716 36.827 21.1957 35.6495L20.3978 34.4386C19.5403 33.1371 20.6264 31.4342 22.1681 31.6631L23.2559 31.8245C24.6616 32.0332 25.7449 30.6093 25.1689 29.3102L24.6039 28.0361C23.9678 26.6014 25.3413 25.0952 26.8284 25.5968L27.7815 25.9183C29.1395 26.3763 30.4632 25.1434 30.1028 23.7563L29.7731 22.4876C29.3755 20.9579 30.9986 19.6934 32.3847 20.453L33.2002 20.8999C34.4673 21.5943 35.9956 20.5909 35.8621 19.1522L35.7502 17.9462C35.6032 16.3623 37.4298 15.3779 38.6719 16.3717L39.3596 16.9219C40.4956 17.8308 42.185 17.0892 42.2848 15.6377L42.3607 14.5335C42.4704 12.9385 44.4477 12.2647 45.5084 13.4608L46.0815 14.107C47.0518 15.201 48.8523 14.7458 49.1859 13.3221L49.4164 12.3388C49.7824 10.7772 51.8522 10.435 52.7014 11.7956L53.168 12.5432C53.9443 13.7869 55.8015 13.6335 56.3631 12.2792L56.72 11.4184Z" fill="#61432F"/>
<path d="M24.0416 54.9238C28.7146 41.2715 41.5848 31.9941 56.0147 31.9941H60.1359C74.9052 31.9941 88.0449 41.5755 92.676 55.5999V55.5999C94.8164 62.0818 96.235 68.8292 96.8756 75.6253V75.6253C98.7395 95.3986 83.1858 112.487 63.3249 112.487H52.6611C33.1673 112.487 17.8507 95.8021 19.5151 76.3795V76.3795C20.14 69.0864 21.6711 61.8491 24.0416 54.9238V54.9238Z" fill="#FFE6BB"/>
<circle cx="36.9569" cy="80.9596" r="4.46433" fill="#FFCEB9"/>
<circle cx="79.8144" cy="80.9596" r="4.46433" fill="#FFCEB9"/>
<path d="M70.8857 65.168C70.8857 61.5616 65.5561 58.6379 57.8996 58.6379C50.2432 58.6379 45.8854 61.5616 45.8854 65.168C45.8854 68.7745 50.2432 76.4952 57.8996 76.4952C65.5561 76.4952 70.8857 68.7745 70.8857 65.168Z" fill="#ECC79F"/>
<rect x="57.4194" y="66.0786" width="1.46366" height="5.85464" rx="0.73183" fill="#3A211F"/>
<ellipse cx="58.3951" cy="64.8588" rx="4.39098" ry="2.68338" fill="#3A211F"/>
<circle cx="55.7118" cy="63.8832" r="0.73183" fill="white"/>
<path d="M53.0284 69.7378C55.4679 71.9333 60.8888 71.9333 63.3283 69.7378" stroke="#3A211F" stroke-width="1.76467" stroke-linecap="round"/>
<circle cx="41.8676" cy="56.9403" r="4.01789" fill="#3A211F"/>
<circle cx="42.9801" cy="56.0732" r="1.3393" fill="white"/>
<circle cx="4.01789" cy="4.01789" r="4.01789" transform="matrix(-1 0 0 1 78.2663 52.9224)" fill="#3A211F"/>
<circle cx="1.3393" cy="1.3393" r="1.3393" transform="matrix(-1 0 0 1 77.1285 54.7339)" fill="white"/>
<path d="M42.46 64.4862C37.2428 64.0281 34.2833 63.9116 28.921 64.0496" stroke="#ECC79F" stroke-width="1.46809" stroke-linecap="round" stroke-linejoin="round"/>
<path d="M41.119 72.4806C36.6134 73.2535 34.1467 73.8234 29.8947 75.1756" stroke="#ECC79F" stroke-width="1.46809" stroke-linecap="round" stroke-linejoin="round"/>
<path d="M40.7676 68.6336C36.0573 68.4446 33.7573 68.7376 29.0536 69.1394" stroke="#ECC79F" stroke-width="1.46809" stroke-linecap="round" stroke-linejoin="round"/>
<path d="M73.7103 64.4862C78.9275 64.0281 81.887 63.9116 87.2493 64.0496" stroke="#ECC79F" stroke-width="1.46809" stroke-linecap="round" stroke-linejoin="round"/>
<path d="M75.0513 72.4806C79.5569 73.2535 82.0236 73.8234 86.2756 75.1756" stroke="#ECC79F" stroke-width="1.46809" stroke-linecap="round" stroke-linejoin="round"/>
<path d="M74.5099 68.6336C79.2202 68.4446 81.5201 68.7376 86.2239 69.1394" stroke="#ECC79F" stroke-width="1.46809" stroke-linecap="round" stroke-linejoin="round"/>
<path d="M9.79462 91.6393C22.0793 105.487 30.0608 108.908 49.5339 114.09" stroke="#412E1A" stroke-width="1.84133" stroke-linecap="round"/>
<path d="M4.63091 89.7099C5.05292 90.262 5.57561 90.7508 6.14312 91.18C8.51087 92.9705 11.3594 90.6068 10.128 87.9057C9.84496 87.2849 9.50638 86.6876 9.10172 86.1583C8.73023 85.6723 8.2889 85.2251 7.81299 84.8177C5.52088 82.8557 2.45762 85.0543 3.59616 87.8483C3.86941 88.5189 4.20897 89.1579 4.63091 89.7099Z" fill="#412E1A"/>
<path d="M14.0193 94.0546C14.0108 94.5715 14.0698 95.1014 14.1684 95.6162C14.4911 97.3009 16.526 97.3344 16.9038 95.6611C17.0193 95.1498 17.0957 94.6221 17.1042 94.1052C17.1127 93.5884 17.0536 93.0585 16.955 92.5437C16.6323 90.8589 14.5975 90.8255 14.2196 92.4987C14.1041 93.01 14.0277 93.5377 14.0193 94.0546Z" fill="#412E1A"/>
<path d="M12.0014 99.1986C12.5184 99.1964 13.047 99.1265 13.5596 99.0173C15.2374 98.66 15.2289 96.6249 13.5482 96.2816C13.0346 96.1766 12.5055 96.1111 11.9886 96.1133C11.4716 96.1154 10.943 96.1854 10.4304 96.2946C8.7526 96.6519 8.76109 98.687 10.4418 99.0303C10.9553 99.1352 11.4845 99.2008 12.0014 99.1986Z" fill="#412E1A"/>
<path d="M20.2848 99.4131C20.2763 99.93 20.3354 100.46 20.434 100.975C20.7567 102.659 22.7915 102.693 23.1694 101.02C23.2849 100.508 23.3613 99.9806 23.3697 99.4638C23.3782 98.9469 23.3192 98.417 23.2206 97.9022C22.8979 96.2174 20.863 96.184 20.4852 97.8573C20.3697 98.3685 20.2933 98.8962 20.2848 99.4131Z" fill="#412E1A"/>
<path d="M19.1182 105.338C19.6195 105.211 20.1157 105.016 20.5871 104.787C22.1298 104.037 21.6323 102.064 19.9183 102.134C19.3946 102.156 18.8653 102.22 18.364 102.346C17.8627 102.472 17.3665 102.667 16.8951 102.896C15.3524 103.647 15.8499 105.62 17.5639 105.549C18.0876 105.528 18.6169 105.464 19.1182 105.338Z" fill="#412E1A"/>
<path d="M27.293 104.319C27.3202 104.836 27.4156 105.36 27.5495 105.867C27.9876 107.525 30.0199 107.419 30.2815 105.723C30.3614 105.205 30.4013 104.674 30.3741 104.157C30.347 103.641 30.2516 103.116 30.1177 102.61C29.6796 100.951 27.6473 101.058 27.3857 102.753C27.3057 103.271 27.2659 103.803 27.293 104.319Z" fill="#412E1A"/>
<path d="M26.6488 109.688C27.1267 109.491 27.5898 109.227 28.0234 108.932C29.4423 107.968 28.6666 106.087 26.9806 106.403C26.4654 106.5 25.9507 106.639 25.4728 106.836C24.9948 107.033 24.5317 107.297 24.0981 107.592C22.6792 108.556 23.4549 110.437 25.1409 110.121C25.6561 110.024 26.1709 109.885 26.6488 109.688Z" fill="#412E1A"/>
<path d="M35.0307 107.454C35.1011 107.966 35.2402 108.48 35.4162 108.974C35.9921 110.59 38.0082 110.313 38.1265 108.601C38.1626 108.078 38.1576 107.545 38.0872 107.033C38.0168 106.521 37.8776 106.006 37.7016 105.513C37.1257 103.897 35.1096 104.174 34.9914 105.885C34.9552 106.408 34.9602 106.941 35.0307 107.454Z" fill="#412E1A"/>
<path d="M35.1807 113.625C35.6319 113.373 36.0606 113.055 36.4563 112.712C37.7513 111.587 36.7586 109.81 35.1218 110.323C34.6216 110.48 34.1269 110.679 33.6756 110.931C33.2244 111.183 32.7957 111.501 32.4 111.844C31.105 112.969 32.0977 114.746 33.7345 114.233C34.2347 114.076 34.7294 113.877 35.1807 113.625Z" fill="#412E1A"/>
<path d="M106.135 91.2153C93.8508 105.063 85.8693 108.484 66.3961 113.666" stroke="#412E1A" stroke-width="1.84133" stroke-linecap="round"/>
<path d="M111.299 89.286C110.877 89.838 110.354 90.3268 109.787 90.756C107.419 92.5465 104.571 90.1828 105.802 87.4818C106.085 86.861 106.424 86.2637 106.828 85.7343C107.2 85.2484 107.641 84.8011 108.117 84.3938C110.409 82.4318 113.472 84.6303 112.334 87.4244C112.061 88.095 111.721 88.734 111.299 89.286Z" fill="#412E1A"/>
<path d="M101.911 93.6306C101.919 94.1475 101.86 94.6774 101.762 95.1922C101.439 96.877 99.4041 96.9104 99.0262 95.2371C98.9108 94.7258 98.8344 94.1982 98.8259 93.6813C98.8174 93.1644 98.8764 92.6345 98.975 92.1197C99.2978 90.4349 101.333 90.4015 101.71 92.0748C101.826 92.5861 101.902 93.1138 101.911 93.6306Z" fill="#412E1A"/>
<path d="M103.929 98.7746C103.412 98.7725 102.883 98.7026 102.37 98.5934C100.693 98.236 100.701 96.201 102.382 95.8576C102.895 95.7527 103.425 95.6872 103.941 95.6893C104.458 95.6915 104.987 95.7614 105.5 95.8706C107.177 96.228 107.169 98.263 105.488 98.6064C104.975 98.7113 104.446 98.7768 103.929 98.7746Z" fill="#412E1A"/>
<path d="M95.6453 98.9891C95.6538 99.506 95.5948 100.036 95.4961 100.551C95.1734 102.236 93.1386 102.269 92.7607 100.596C92.6453 100.084 92.5689 99.5567 92.5604 99.0398C92.5519 98.5229 92.6109 97.993 92.7095 97.4782C93.0323 95.7934 95.0671 95.76 95.445 97.4333C95.5604 97.9446 95.6368 98.4723 95.6453 98.9891Z" fill="#412E1A"/>
<path d="M96.8119 104.914C96.3106 104.787 95.8143 104.592 95.343 104.363C93.8003 103.613 94.2977 101.64 96.0117 101.71C96.5354 101.732 97.0648 101.796 97.5661 101.922C98.0673 102.048 98.5636 102.243 99.035 102.473C100.578 103.223 100.08 105.196 98.3662 105.125C97.8425 105.104 97.3131 105.04 96.8119 104.914Z" fill="#412E1A"/>
<path d="M88.637 103.896C88.6098 104.412 88.5144 104.936 88.3806 105.443C87.9425 107.102 85.9102 106.995 85.6486 105.299C85.5686 104.781 85.5288 104.25 85.5559 103.733C85.5831 103.217 85.6785 102.693 85.8124 102.186C86.2505 100.527 88.2827 100.634 88.5444 102.33C88.6243 102.848 88.6642 103.379 88.637 103.896Z" fill="#412E1A"/>
<path d="M89.2813 109.264C88.8034 109.067 88.3402 108.803 87.9067 108.509C86.4877 107.545 87.2634 105.663 88.9495 105.979C89.4646 106.076 89.9794 106.215 90.4573 106.412C90.9352 106.609 91.3983 106.873 91.8319 107.168C93.2509 108.132 92.4751 110.013 90.7891 109.697C90.2739 109.6 89.7592 109.461 89.2813 109.264Z" fill="#412E1A"/>
<path d="M80.8995 107.029C80.829 107.542 80.6899 108.056 80.5139 108.55C79.938 110.166 77.9219 109.889 77.8036 108.177C77.7675 107.654 77.7725 107.121 77.8429 106.609C77.9134 106.097 78.0525 105.582 78.2285 105.088C78.8044 103.473 80.8205 103.75 80.9388 105.461C80.9749 105.984 80.9699 106.517 80.8995 107.029Z" fill="#412E1A"/>
<path d="M80.7494 113.201C80.2981 112.949 79.8695 112.632 79.4738 112.288C78.1788 111.163 79.1715 109.386 80.8083 109.9C81.3084 110.056 81.8031 110.255 82.2544 110.507C82.7057 110.76 83.1343 111.077 83.53 111.42C84.8251 112.545 83.8323 114.322 82.1955 113.809C81.6954 113.652 81.2007 113.453 80.7494 113.201Z" fill="#412E1A"/>
<path d="M64.8326 103.379C64.8483 103.213 64.8563 103.045 64.8563 102.875C64.8563 99.9693 62.5164 97.6135 59.63 97.6135C56.7436 97.6135 54.4037 99.9693 54.4037 102.875C54.4037 103.157 54.4257 103.434 54.4682 103.704C52.727 102.651 50.4731 102.632 48.7253 103.835C46.3608 105.464 45.8179 108.713 47.5125 111.094C48.4159 112.363 49.7729 113.129 51.2013 113.32C51.0563 113.48 50.9192 113.649 50.7913 113.829C49.0966 116.21 49.6396 119.459 52.004 121.088C54.3684 122.716 57.6589 122.106 59.3535 119.726C59.445 119.597 59.5299 119.466 59.6084 119.333C59.6869 119.466 59.7719 119.597 59.8633 119.726C61.558 122.106 64.8485 122.716 67.2129 121.088C69.5773 119.459 70.1202 116.21 68.4256 113.829C68.2751 113.618 68.112 113.42 67.9381 113.237C69.1926 112.955 70.3573 112.224 71.162 111.094C72.8567 108.713 72.3137 105.464 69.9493 103.835C68.4046 102.772 66.4646 102.663 64.8326 103.379Z" fill="#FFCE05"/>
<circle cx="59.9253" cy="110.376" r="3.94251" transform="rotate(24.6549 59.9253 110.376)" fill="white" fill-opacity="0.6"/>
<path d="M47.4021 32.0546C47.4099 31.9722 47.4138 31.8888 47.4138 31.8044C47.4138 30.362 46.2524 29.1927 44.8197 29.1927C43.3871 29.1927 42.2256 30.362 42.2256 31.8044C42.2256 31.9444 42.2366 32.0819 42.2577 32.2159C41.3934 31.693 40.2747 31.6835 39.4071 32.281C38.2335 33.0892 37.964 34.7023 38.8052 35.8838C39.2536 36.5137 39.9271 36.8938 40.6361 36.9889C40.5641 37.068 40.4961 37.1522 40.4326 37.2414C39.5915 38.4229 39.861 40.036 41.0346 40.8442C42.2081 41.6525 43.8414 41.3499 44.6825 40.1684C44.7279 40.1046 44.7701 40.0396 44.809 39.9735C44.848 40.0396 44.8902 40.1046 44.9356 40.1684C45.7767 41.3499 47.4099 41.6525 48.5835 40.8442C49.7571 40.036 50.0266 38.4229 49.1855 37.2414C49.1108 37.1365 49.0298 37.0385 48.9435 36.9476C49.5662 36.8078 50.1443 36.4449 50.5437 35.8838C51.3848 34.7023 51.1153 33.0892 49.9418 32.281C49.175 31.7529 48.2121 31.699 47.4021 32.0546Z" fill="white"/>
<circle cx="44.9663" cy="35.5277" r="1.95688" transform="rotate(24.6549 44.9663 35.5277)" fill="#FFE36B"/>
<path d="M61.1248 29.3178C61.1326 29.2354 61.1366 29.152 61.1366 29.0676C61.1366 27.6252 59.9702 26.4559 58.5315 26.4559C57.0927 26.4559 55.9263 27.6252 55.9263 29.0676C55.9263 29.2076 55.9373 29.3451 55.9585 29.4791C55.0906 28.9562 53.9671 28.9467 53.0959 29.5442C51.9173 30.3524 51.6466 31.9655 52.4913 33.147C52.9417 33.7769 53.6181 34.1569 54.3301 34.2521C54.2578 34.3312 54.1895 34.4154 54.1257 34.5046C53.281 35.6861 53.5516 37.2992 54.7302 38.1074C55.9088 38.9157 57.549 38.6131 58.3937 37.4315C58.4393 37.3678 58.4816 37.3027 58.5207 37.2367C58.5599 37.3027 58.6022 37.3678 58.6478 37.4315C59.4925 38.6131 61.1327 38.9157 62.3113 38.1074C63.4898 37.2992 63.7605 35.6861 62.9158 34.5046C62.8408 34.3997 62.7595 34.3017 62.6728 34.2108C63.2981 34.071 63.8786 33.7081 64.2798 33.147C65.1245 31.9655 64.8538 30.3524 63.6753 29.5442C62.9053 29.0161 61.9383 28.9622 61.1248 29.3178Z" fill="#FFCE05"/>
<ellipse cx="1.96375" cy="1.95833" rx="1.96375" ry="1.95833" transform="matrix(0.909505 0.415692 -0.418615 0.908164 57.7125 30.196)" fill="white" fill-opacity="0.6"/>
<path d="M73.858 32.0546C73.8658 31.9722 73.8698 31.8888 73.8698 31.8044C73.8698 30.362 72.7083 29.1927 71.2757 29.1927C69.843 29.1927 68.6816 30.362 68.6816 31.8044C68.6816 31.9444 68.6925 32.0819 68.7136 32.2159C67.8493 31.693 66.7306 31.6835 65.8631 32.281C64.6895 33.0892 64.42 34.7023 65.2611 35.8838C65.7095 36.5137 66.3831 36.8938 67.0921 36.9889C67.0201 37.068 66.952 37.1522 66.8885 37.2414C66.0474 38.4229 66.3169 40.036 67.4905 40.8442C68.6641 41.6525 70.2973 41.3499 71.1385 40.1684C71.1839 40.1046 71.226 40.0396 71.265 39.9735C71.3039 40.0396 71.3461 40.1046 71.3915 40.1684C72.2326 41.3499 73.8659 41.6525 75.0395 40.8442C76.213 40.036 76.4826 38.4229 75.6414 37.2414C75.5667 37.1365 75.4858 37.0385 75.3995 36.9476C76.0221 36.8078 76.6002 36.4449 76.9996 35.8838C77.8408 34.7023 77.5713 33.0892 76.3977 32.281C75.631 31.7529 74.6681 31.699 73.858 32.0546Z" fill="white"/>
<circle cx="71.4223" cy="35.5277" r="1.95688" transform="rotate(24.6549 71.4223 35.5277)" fill="#FFE36B"/>
<circle cx="33.3989" cy="36.33" r="8.04931" fill="#FFE6BB"/>
<circle cx="32.9861" cy="36.3203" r="5.5726" fill="#ECC79F"/>
<circle cx="81.6136" cy="36.33" r="8.04931" fill="#FFE6BB"/>
<circle cx="81.2008" cy="36.3203" r="5.5726" fill="#ECC79F"/>
</svg>
