<svg width="117" height="120" viewBox="0 0 117 120" fill="none" xmlns="http://www.w3.org/2000/svg">
<path fill-rule="evenodd" clip-rule="evenodd" d="M65.3625 3.00828C67.726 3.86851 68.9446 6.4818 68.0844 8.84525L64.6577 18.2599C63.9207 20.2848 61.897 21.4693 59.846 21.2262C59.5095 21.4709 59.1335 21.6731 58.7231 21.8225C56.3596 22.6828 53.7463 21.4642 52.8861 19.1007L49.4595 9.68604C48.5992 7.3226 49.8178 4.7093 52.1813 3.84908C54.5447 2.98885 57.158 4.20745 58.0182 6.5709L58.6189 8.22119L59.5256 5.7301C60.3858 3.36666 62.9991 2.14806 65.3625 3.00828Z" fill="#282828"/>
<ellipse cx="58.2917" cy="55.5429" rx="44.6296" ry="45.6083" fill="#282828"/>
<path fill-rule="evenodd" clip-rule="evenodd" d="M18.6998 76.6131C18.6971 76.5927 18.6943 76.5722 18.6915 76.5518C15.9978 56.5654 25.0242 38.8776 38.8525 37.0451C45.914 36.1094 52.8621 39.4891 58.33 45.6822C63.7978 39.4891 70.746 36.1094 77.8074 37.0451C91.6026 38.8732 100.619 56.4806 97.9876 76.408C90.5768 91.1025 75.5825 101.151 58.2917 101.151C41.0814 101.151 26.1463 91.196 18.6998 76.6131Z" fill="white"/>
<ellipse cx="31.4229" cy="73.6055" rx="6.83105" ry="6.77352" fill="#FFC6AD"/>
<ellipse cx="85.1605" cy="73.6055" rx="6.83105" ry="6.77352" fill="#FFC6AD"/>
<g filter="url(#filter0_f_202_8)">
<path d="M14.8791 68.0324C15.0066 67.2994 15.8617 66.9551 16.4721 67.3806C40.618 84.2125 79.2318 83.4658 101.671 67.3564C102.261 66.9327 103.1 67.2377 103.264 67.9454L106.986 83.989C107.842 87.682 105.999 91.4964 102.477 92.9005C74.0891 104.219 43.0063 104.196 16.4116 92.8305C13.1586 91.4404 11.4156 87.9407 12.0219 84.4555L14.8791 68.0324Z" fill="#8ED2C9"/>
</g>
<g filter="url(#filter1_f_202_8)">
<path d="M73.839 89.7268C72.7747 89.7268 71.9362 90.5598 72.0315 91.5278C73.0233 101.605 74.5371 107.357 80.3001 114.677C80.7054 115.192 81.4036 115.44 82.0862 115.323L82.1708 115.309C82.6586 116.604 83.4609 117.641 84.4001 118.572C84.7409 118.91 85.3171 118.932 85.6871 118.62C86.057 118.309 86.0806 117.783 85.7398 117.445C84.98 116.692 84.3765 115.916 83.9864 115L86.1749 114.627C86.6495 116.048 87.4961 117.162 88.4987 118.156C88.8395 118.494 89.4157 118.516 89.7857 118.204C90.1556 117.893 90.1793 117.367 89.8384 117.029C89.0066 116.204 88.3622 115.352 87.98 114.32L89.888 113.995C90.3732 115.321 91.1868 116.378 92.1419 117.324C92.4827 117.662 93.059 117.684 93.4289 117.373C93.7989 117.061 93.8225 116.535 93.4817 116.197C92.7037 115.426 92.0897 114.631 91.7007 113.686L93.6071 113.362C94.0989 114.595 94.8782 115.594 95.7852 116.493C96.126 116.831 96.7022 116.852 97.0721 116.541C97.4421 116.23 97.4657 115.703 97.1249 115.365C96.4016 114.648 95.82 113.911 95.4293 113.051L97.3324 112.727C97.8265 113.871 98.5703 114.81 99.4284 115.661C99.7692 115.999 100.345 116.02 100.715 115.709C101.085 115.398 101.109 114.872 100.768 114.534C100.1 113.872 99.5533 113.192 99.1658 112.415L101.064 112.092C101.556 113.148 102.263 114.028 103.072 114.829C103.412 115.167 103.989 115.188 104.359 114.877C104.729 114.566 104.752 114.04 104.411 113.702C103.8 113.096 103.29 112.474 102.91 111.778L104.802 111.456C105.288 112.425 105.957 113.246 106.715 113.997C107.056 114.335 107.632 114.357 108.002 114.045C108.372 113.734 108.395 113.208 108.055 112.87C107.38 112.201 106.828 111.514 106.44 110.727C106.852 110.219 106.945 109.508 106.571 108.894C102.61 102.402 100.677 98.0058 99.0368 91.0614C98.854 90.2873 98.1085 89.7268 97.2415 89.7268H73.839Z" fill="#8ED2C9"/>
</g>
<path fill-rule="evenodd" clip-rule="evenodd" d="M74.0492 89.7266C72.8746 89.7266 71.9511 90.735 72.0689 91.9037C73.0584 101.716 74.5986 107.409 80.2422 114.603C80.6765 115.157 81.3777 115.426 82.0718 115.325C82.5712 116.688 83.4046 117.766 84.3659 118.719C84.7581 119.107 85.3913 119.105 85.7801 118.712C86.1689 118.32 86.1662 117.687 85.7739 117.298C85.041 116.572 84.4665 115.835 84.0892 114.982L86.0786 114.643C86.5635 116.134 87.4416 117.289 88.4645 118.303C88.8567 118.691 89.4899 118.689 89.8787 118.296C90.2675 117.904 90.2648 117.271 89.8726 116.882C89.0652 116.082 88.4501 115.269 88.079 114.303L89.7899 114.011C90.2864 115.406 91.1311 116.503 92.1078 117.471C92.5 117.86 93.1331 117.857 93.522 117.465C93.9108 117.072 93.908 116.439 93.5158 116.05C92.7642 115.305 92.1791 114.549 91.8025 113.669L93.507 113.378C94.011 114.679 94.8212 115.717 95.751 116.639C96.1432 117.028 96.7763 117.025 97.1652 116.633C97.554 116.241 97.5512 115.608 97.159 115.219C96.4638 114.53 95.9111 113.831 95.5341 113.033L97.2299 112.745C97.7374 113.954 98.5119 114.933 99.394 115.807C99.7862 116.196 100.419 116.193 100.808 115.801C101.197 115.409 101.194 114.776 100.802 114.387C100.164 113.754 99.6462 113.114 99.2738 112.397L100.959 112.11C101.466 113.229 102.204 114.149 103.037 114.975C103.43 115.364 104.063 115.361 104.452 114.969C104.84 114.577 104.838 113.944 104.446 113.555C103.865 112.98 103.385 112.398 103.022 111.758L104.694 111.474C105.197 112.505 105.896 113.366 106.681 114.144C107.073 114.532 107.706 114.53 108.095 114.137C108.484 113.745 108.481 113.112 108.089 112.723C107.329 111.97 106.74 111.206 106.364 110.314C106.639 109.727 106.639 109.008 106.263 108.387C102.552 102.241 100.677 97.9229 99.0917 91.2921C98.8735 90.3796 98.0641 89.7266 97.1259 89.7266H74.0492Z" fill="#8ED2C9"/>
<path d="M84.8792 96.0388C84.941 96.0063 85.0017 95.9709 85.0611 95.9325C86.0765 95.2763 86.321 93.9975 85.6073 93.0764C84.8935 92.1553 83.4918 91.9407 82.4764 92.5969C82.3778 92.6606 82.2865 92.7302 82.2026 92.8048C82.1401 92.0112 81.5895 91.2876 80.7367 91.0017C79.583 90.6149 78.3132 91.1756 77.9005 92.254C77.6805 92.8288 77.7485 93.4348 78.0347 93.9339C77.9432 93.9236 77.85 93.9182 77.7556 93.918C76.5048 93.9148 75.5035 94.822 75.5192 95.9442C75.5349 97.0665 76.5616 97.9789 77.8124 97.9821C77.8799 97.9822 77.9467 97.9798 78.0126 97.9747C77.9855 98.0299 77.9607 98.0866 77.9385 98.1448C77.5258 99.2231 78.1264 100.411 79.2801 100.798C80.4338 101.184 81.7036 100.624 82.1163 99.5454C82.1529 99.4496 82.1816 99.353 82.2026 99.2561C82.6112 99.5928 83.1547 99.7994 83.7487 99.8009C84.9995 99.8041 86.0007 98.8969 85.985 97.7746C85.9748 97.0414 85.533 96.3978 84.8792 96.0388Z" fill="white"/>
<g style="mix-blend-mode:multiply">
<ellipse cx="1.60021" cy="1.63192" rx="1.60021" ry="1.63192" transform="matrix(0.194586 0.946651 -1.01641 0.174258 82.5682 94.2538)" fill="#FED402"/>
</g>
<path d="M98.3739 103.87C98.4604 103.825 98.5452 103.775 98.6283 103.722C100.047 102.805 100.389 101.017 99.3916 99.7302C98.394 98.4428 96.4349 98.1428 95.0158 99.06C94.878 99.149 94.7504 99.2463 94.6332 99.3505C94.5459 98.2414 93.7763 97.2301 92.5844 96.8305C90.9721 96.29 89.1974 97.0735 88.6206 98.5806C88.3131 99.3841 88.4081 100.231 88.8082 100.929C88.6802 100.914 88.55 100.907 88.418 100.906C86.6699 100.902 85.2705 102.17 85.2925 103.738C85.3144 105.307 86.7493 106.582 88.4975 106.586C88.5918 106.586 88.6851 106.583 88.7773 106.576C88.7394 106.653 88.7048 106.732 88.6737 106.814C88.0969 108.321 88.9363 109.981 90.5487 110.521C92.1611 111.062 93.9357 110.278 94.5125 108.771C94.5638 108.637 94.6038 108.502 94.6331 108.367C95.2043 108.837 95.9638 109.126 96.794 109.128C98.5421 109.133 99.9415 107.865 99.9195 106.296C99.9052 105.272 99.2878 104.372 98.3739 103.87Z" fill="white"/>
<g style="mix-blend-mode:multiply">
<ellipse cx="2.23645" cy="2.28077" rx="2.23645" ry="2.28077" transform="matrix(0.194586 0.946651 -1.01641 0.174258 95.1439 101.376)" fill="#FED402"/>
</g>
<ellipse cx="5.92025" cy="5.87038" rx="5.92025" ry="5.87038" transform="matrix(-1 0 0 1 43.7188 55.9944)" fill="#282828"/>
<ellipse cx="1.36621" cy="1.3547" rx="1.36621" ry="1.3547" transform="matrix(-1 0 0 1 41.8972 58.7039)" fill="white"/>
<ellipse cx="5.92025" cy="5.87038" rx="5.92025" ry="5.87038" transform="matrix(-1 0 0 1 84.7051 55.9944)" fill="#282828"/>
<ellipse cx="1.36621" cy="1.3547" rx="1.36621" ry="1.3547" transform="matrix(-1 0 0 1 82.8835 58.7039)" fill="white"/>
<path d="M66.489 63.6711C66.489 61.4265 62.8189 59.607 58.2917 59.607C53.7645 59.607 50.0944 61.4265 50.0944 63.6711C50.0944 65.9156 53.7645 70.4446 58.2917 70.4446C62.8189 70.4446 66.489 65.9156 66.489 63.6711Z" fill="#FED402"/>
<ellipse cx="19.127" cy="5.41882" rx="1.82161" ry="1.80627" fill="white"/>
<ellipse cx="109.297" cy="36.1255" rx="1.82161" ry="1.80627" fill="white"/>
<ellipse cx="93.8132" cy="6.32202" rx="1.82161" ry="1.80627" fill="white"/>
<ellipse cx="10.9297" cy="111.086" rx="1.82161" ry="1.80627" fill="white"/>
<ellipse cx="75.597" cy="32.5128" rx="1.82161" ry="1.80627" fill="white"/>
<ellipse cx="39.1647" cy="70.4446" rx="1.82161" ry="1.80627" fill="white"/>
<ellipse cx="10.9297" cy="25.2878" rx="1.82161" ry="1.80627" fill="white"/>
<ellipse cx="111.118" cy="1.80627" rx="1.82161" ry="1.80627" fill="white"/>
<ellipse cx="115.217" cy="94.3777" rx="1.36621" ry="1.3547" fill="white"/>
<ellipse cx="109.752" cy="111.537" rx="1.36621" ry="1.3547" fill="white"/>
<ellipse cx="1.36621" cy="96.1839" rx="1.36621" ry="1.3547" fill="white"/>
<defs>
<filter id="filter0_f_202_8" x="10.9026" y="66.1627" width="97.2911" height="36.2094" filterUnits="userSpaceOnUse" color-interpolation-filters="sRGB">
<feFlood flood-opacity="0" result="BackgroundImageFix"/>
<feBlend mode="normal" in="SourceGraphic" in2="BackgroundImageFix" result="shape"/>
<feGaussianBlur stdDeviation="0.5" result="effect1_foregroundBlur_202_8"/>
</filter>
<filter id="filter1_f_202_8" x="71.0241" y="88.7268" width="38.2714" height="31.1136" filterUnits="userSpaceOnUse" color-interpolation-filters="sRGB">
<feFlood flood-opacity="0" result="BackgroundImageFix"/>
<feBlend mode="normal" in="SourceGraphic" in2="BackgroundImageFix" result="shape"/>
<feGaussianBlur stdDeviation="0.5" result="effect1_foregroundBlur_202_8"/>
</filter>
</defs>
</svg>
