<svg width="104" height="113" viewBox="0 0 104 113" fill="none" xmlns="http://www.w3.org/2000/svg">
<circle cx="21.2583" cy="21.2583" r="21.2583" fill="#C4C4C4"/>
<circle cx="20.1681" cy="21.233" r="14.7173" fill="#FFDED0"/>
<circle cx="21.2583" cy="21.2583" r="21.2583" transform="matrix(-1 0 0 1 103.93 0)" fill="#C4C4C4"/>
<circle cx="14.7173" cy="14.7173" r="14.7173" transform="matrix(-1 0 0 1 98.4786 6.51575)" fill="#FFDED0"/>
<path fill-rule="evenodd" clip-rule="evenodd" d="M50.7225 103.642C50.7242 103.662 50.7257 103.682 50.7272 103.701C50.7278 103.682 50.7285 103.662 50.7292 103.642H50.7225ZM85.8794 89.6789C86.0794 89.6639 86.2815 89.6563 86.4853 89.6563C90.9015 89.6563 94.4814 93.2363 94.4814 97.6524V98.3386C94.4814 102.755 90.9015 106.335 86.4853 106.335C84.5027 106.335 82.6885 105.613 81.2912 104.418C81.2087 108.763 77.661 112.259 73.2966 112.259C69.8428 112.259 66.9003 110.07 65.7821 107.003C65.0403 110.431 61.9896 113 58.339 113C54.2119 113 50.8517 109.717 50.7272 105.62C50.4126 109.748 46.9633 113 42.7545 113C38.8869 113 35.6607 110.254 34.9189 106.605C33.8287 109.477 31.0512 111.519 27.7969 111.519C23.591 111.519 20.1815 108.109 20.1815 103.903V103.75C18.7202 105.339 16.6237 106.335 14.2948 106.335C9.87868 106.335 6.29871 102.755 6.29871 98.3386V97.6524C6.29871 93.2363 9.87868 89.6563 14.2948 89.6563C14.4898 89.6563 14.6832 89.6633 14.8748 89.677C19.717 81.2558 28.8038 75.5851 39.2151 75.5851H61.538C71.9501 75.5851 81.0375 81.2566 85.8794 89.6789Z" fill="#D5DE72"/>
<path fill-rule="evenodd" clip-rule="evenodd" d="M94.1726 65.5494C92.4261 63.4382 91.332 60.8149 91.332 58.0749V58.0749C91.332 35.1327 73.5304 16.5343 51.571 16.5343C29.6117 16.5343 11.8101 35.1327 11.8101 58.0749V58.0749C11.8101 60.8149 10.716 63.4382 8.96943 65.5494C6.24364 68.8444 4.724 72.51 4.724 76.3725C4.724 90.7222 25.6981 102.355 51.571 102.355C77.4439 102.355 98.4181 90.7222 98.4181 76.3725C98.4181 72.51 96.8984 68.8443 94.1726 65.5494Z" fill="#C4C4C4"/>
<path fill-rule="evenodd" clip-rule="evenodd" d="M92.2813 62.4932C92.7598 63.5888 93.4028 64.6188 94.1726 65.5493C96.8984 68.8443 98.4181 72.51 98.4181 76.3725C98.4181 90.7222 77.4439 102.355 51.571 102.355C25.6981 102.355 4.724 90.7222 4.724 76.3725C4.724 72.51 6.24365 68.8443 8.96944 65.5493C9.73923 64.6188 10.3823 63.5888 10.8608 62.4932C13.0274 61.791 15.3293 61.413 17.7152 61.413C24.3896 61.413 30.4064 64.3713 34.6431 69.1083C38.8798 64.3713 44.8966 61.413 51.571 61.413C58.2454 61.413 64.2623 64.3713 68.4989 69.1083C72.7356 64.3713 78.7525 61.413 85.4269 61.413C87.8128 61.413 90.1147 61.791 92.2813 62.4932Z" fill="#EBEBEB"/>
<rect x="51.2318" y="63.2108" width="1.57469" height="9.44814" rx="0.787345" fill="#433D3C"/>
<ellipse cx="52.0563" cy="62.8908" rx="5.84061" ry="3.83985" fill="#433D3C"/>
<circle cx="49.0444" cy="61.6496" r="1.18102" fill="white"/>
<path d="M45.666 70.1917C48.6496 72.9745 55.2799 72.9745 58.2635 70.1917" stroke="#433D3C" stroke-width="1.92307" stroke-linecap="round"/>
<ellipse cx="5.26406" cy="6.58007" rx="5.26406" ry="6.58007" transform="matrix(-1 0 0 1 38.8726 48.0281)" fill="#433D3C"/>
<ellipse cx="1.97402" cy="2.30303" rx="1.97402" ry="2.30303" transform="matrix(-1 0 0 1 36.8986 50.0021)" fill="white"/>
<circle cx="0.987011" cy="0.987011" r="0.987011" transform="matrix(-1 0 0 1 32.9504 54.6082)" fill="white"/>
<ellipse cx="5.26406" cy="6.58007" rx="5.26406" ry="6.58007" transform="matrix(-1 0 0 1 75.9911 48.0281)" fill="#433D3C"/>
<ellipse cx="1.97402" cy="2.30303" rx="1.97402" ry="2.30303" transform="matrix(-1 0 0 1 74.017 50.0021)" fill="white"/>
<circle cx="0.987011" cy="0.987011" r="0.987011" transform="matrix(-1 0 0 1 70.069 54.6082)" fill="white"/>
<circle cx="19.6521" cy="75.3333" r="9.00725" fill="#FFDED0"/>
<circle cx="83.5218" cy="75.3333" r="9.00725" fill="#FFDED0"/>
<path d="M69.2864 64.1347C74.7475 63.799 77.8455 63.7137 83.4586 63.8149" stroke="#343434" stroke-width="1.5" stroke-linecap="round" stroke-linejoin="round"/>
<path d="M83.3979 73.2231C78.0465 72.2638 74.9931 71.8237 69.4176 71.2795" stroke="#343434" stroke-width="1.5" stroke-linecap="round" stroke-linejoin="round"/>
<path d="M69.2377 67.906C74.6299 67.7871 77.2683 68.0115 82.6615 68.3258" stroke="#343434" stroke-width="1.5" stroke-linecap="round" stroke-linejoin="round"/>
<path d="M35.4304 64.1347C29.9693 63.799 26.8713 63.7137 21.2582 63.8149" stroke="#343434" stroke-width="1.5" stroke-linecap="round" stroke-linejoin="round"/>
<path d="M21.319 73.2231C26.6704 72.2638 29.7238 71.8237 35.2993 71.2795" stroke="#343434" stroke-width="1.5" stroke-linecap="round" stroke-linejoin="round"/>
<path d="M35.4791 67.906C30.0869 67.7871 27.4485 68.0115 22.0553 68.3258" stroke="#343434" stroke-width="1.5" stroke-linecap="round" stroke-linejoin="round"/>
<path d="M36.9958 16.7457C36.7593 17.0486 36.446 17.2982 36.0876 17.4694L35.1569 17.9138C34.7984 18.085 34.4074 18.1718 34.0231 18.1654L24.5786 18.0084C22.8088 17.979 21.503 19.7959 22.2862 21.1675C24.4227 24.9088 25.8772 27.9693 27.4453 31.9828C28.0195 33.4525 30.2501 33.577 31.3386 32.1836L37.3863 24.4411C37.6229 24.1383 37.9361 23.8887 38.2946 23.7175L38.629 23.5578C38.9874 23.3866 39.3784 23.2999 39.7627 23.3063L49.6338 23.4703C51.3923 23.4995 52.6965 21.7041 51.9285 20.3357C49.8056 16.5533 48.3278 13.4895 46.7237 9.46213C46.1417 8.00107 43.9188 7.88286 42.8338 9.27194L36.9958 16.7457Z" fill="#FF8A70"/>
</svg>
