<svg width="118" height="118" viewBox="0 0 118 118" fill="none" xmlns="http://www.w3.org/2000/svg">
<path d="M91.5023 17.9391C91.5919 17.8876 91.6799 17.8314 91.7659 17.7705C93.2367 16.7296 93.5909 14.7014 92.557 13.2405C91.5231 11.7796 89.4926 11.4391 88.0218 12.48C87.879 12.581 87.7467 12.6914 87.6253 12.8096C87.5348 11.551 86.7372 10.4033 85.5018 9.94979C83.8307 9.33635 81.9914 10.2256 81.3935 11.936C81.0748 12.8478 81.1733 13.8089 81.588 14.6006C81.4553 14.5842 81.3204 14.5756 81.1836 14.5752C79.3717 14.5702 77.9214 16.0091 77.9441 17.7891C77.9669 19.5691 79.4541 21.0162 81.2659 21.0212C81.3637 21.0215 81.4604 21.0176 81.556 21.0096C81.5167 21.097 81.4808 21.187 81.4485 21.2793C80.8507 22.9897 81.7208 24.8735 83.3919 25.487C85.063 26.1004 86.9024 25.2112 87.5002 23.5008C87.5533 23.3489 87.5948 23.1956 87.6252 23.042C88.2171 23.576 89.0043 23.9036 89.8648 23.9061C91.6766 23.9111 93.127 22.4722 93.1042 20.6922C93.0894 19.5293 92.4495 18.5085 91.5023 17.9391Z" fill="white"/>
<g style="mix-blend-mode:multiply">
<circle cx="86.2031" cy="17.9615" r="2.44464" transform="rotate(79.3678 86.2031 17.9615)" fill="#FED402"/>
</g>
<circle cx="18.408" cy="25.0379" r="18.408" fill="#FFAC42"/>
<circle cx="17.464" cy="25.016" r="12.744" fill="#FFE29C"/>
<circle cx="99.592" cy="25.0379" r="18.408" fill="#FFAC42"/>
<circle cx="99.592" cy="25.016" r="12.744" fill="#FFE29C"/>
<path d="M54.5919 4.33944C54.5414 1.99388 56.4019 0.0514939 58.7475 0.0010038C61.0931 -0.0494863 63.0354 1.81104 63.0859 4.1566L63.1576 7.48526L64.2857 4.38569C65.0881 2.18108 67.5258 1.04437 69.7304 1.84678C71.9351 2.6492 73.0718 5.08688 72.2694 7.2915L68.395 17.9363C67.5925 20.141 65.1549 21.2777 62.9502 20.4752C62.2444 20.2183 61.648 19.7938 61.1897 19.263C60.5944 19.6036 59.908 19.8046 59.1741 19.8204C58.5727 19.8334 57.9978 19.7207 57.4745 19.5064C57.0831 20.7045 56.1647 21.717 54.8885 22.1815C52.6839 22.9839 50.2462 21.8472 49.4438 19.6426L45.5694 8.99773C44.7669 6.79311 45.9036 4.35543 48.1083 3.55301C50.3129 2.7506 52.7506 3.88731 53.553 6.09192L54.6973 9.2359L54.5919 4.33944Z" fill="#FFAC42"/>
<path d="M113.28 61.5271C113.28 85.7815 88.7667 108.56 58.528 108.56C28.2893 108.56 3.776 85.7815 3.776 61.5271C3.776 37.2728 28.2893 10.384 58.528 10.384C88.7667 10.384 113.28 37.2728 113.28 61.5271Z" fill="#FFAC42"/>
<path fill-rule="evenodd" clip-rule="evenodd" d="M42.0074 31.3031C41.6939 32.1939 40.4342 32.1939 40.1207 31.3031L34.7768 16.1151C39.2343 13.8807 44.0276 12.2128 49.0566 11.2685L42.0074 31.3031ZM50.898 10.957L58.0568 31.3031C58.3702 32.1939 59.63 32.1939 59.9434 31.3031L67.052 11.0997C64.2744 10.6313 61.4276 10.384 58.5281 10.384C55.9388 10.384 53.3915 10.5812 50.898 10.957ZM69.0143 11.4695L75.9928 31.3031C76.3062 32.1939 77.566 32.1939 77.8794 31.3031L83.0794 16.5241C78.6952 14.2391 73.9742 12.503 69.0143 11.4695Z" fill="#6B4A32"/>
<path fill-rule="evenodd" clip-rule="evenodd" d="M4.77269 52.8638C5.51543 49.5798 6.65984 46.3112 8.16049 43.1295L20.5225 49.0418C21.4233 49.4726 21.2058 50.8125 20.2149 50.9362L4.77269 52.8638ZM3.91992 64.754C3.82453 63.6826 3.776 62.6064 3.776 61.5272C3.776 59.384 3.9674 57.2203 4.33724 55.0563L19.2335 58.0204C20.2502 58.2227 20.3254 59.6479 19.3356 59.956L3.91992 64.754Z" fill="#6B4A32"/>
<path fill-rule="evenodd" clip-rule="evenodd" d="M113.172 64.3266C113.243 63.3965 113.28 62.4629 113.28 61.5271C113.28 59.4734 113.104 57.4009 112.764 55.3273L99.2306 58.0202C98.2139 58.2225 98.1387 59.6477 99.1285 59.9558L113.172 64.3266ZM109.151 43.6804C110.5 46.6293 111.542 49.6489 112.242 52.6827L98.2492 50.9361C97.2583 50.8124 97.0407 49.4725 97.9416 49.0416L109.151 43.6804Z" fill="#6B4A32"/>
<path fill-rule="evenodd" clip-rule="evenodd" d="M17.0485 91.5269C18.1917 76.8241 36.5368 65.136 58.9999 65.136C81.0098 65.136 99.0661 76.3572 100.861 90.6406C90.8199 101.312 75.5848 108.56 58.5281 108.56C41.9478 108.56 27.0889 101.712 17.0485 91.5269Z" fill="#FFE29C"/>
<circle cx="26.904" cy="72.216" r="7.08" fill="#FF8F75"/>
<circle cx="90.152" cy="72.216" r="7.08" fill="#FF8F75"/>
<circle cx="34.928" cy="54.752" r="8.496" fill="#6B4A32"/>
<circle cx="37.7962" cy="53.1226" r="2.94092" transform="rotate(-150 37.7962 53.1226)" fill="white"/>
<circle cx="33.8429" cy="58.3187" r="1.96062" transform="rotate(-150 33.8429 58.3187)" fill="white"/>
<circle cx="83.072" cy="54.752" r="8.496" fill="#6B4A32"/>
<circle cx="85.9401" cy="53.1226" r="2.94092" transform="rotate(-150 85.9401 53.1226)" fill="white"/>
<circle cx="81.9869" cy="58.3187" r="1.96062" transform="rotate(-150 81.9869 58.3187)" fill="white"/>
<path d="M59.5526 65.136V71.5901C59.5526 73.6978 61.2613 75.4064 63.369 75.4064H63.9021C65.7154 75.4064 67.1853 73.9365 67.1853 72.1232V72.1232" stroke="#6B4A32" stroke-width="2" stroke-linecap="round" stroke-linejoin="round"/>
<path d="M59.5527 65.136V71.5901C59.5527 73.6978 57.844 75.4064 55.7363 75.4064H55.2032C53.3899 75.4064 51.92 73.9365 51.92 72.1232V72.1232" stroke="#6B4A32" stroke-width="2" stroke-linecap="round" stroke-linejoin="round"/>
<ellipse cx="59.472" cy="65.7135" rx="7.552" ry="4.35355" fill="#6B4A32"/>
<ellipse cx="55.4103" cy="63.8141" rx="1.09494" ry="1.05173" fill="white"/>
<path d="M94.6392 100.093C94.7887 100.007 94.9355 99.9135 95.0791 99.8119C97.5336 98.0748 98.1247 94.6903 96.3993 92.2522C94.6739 89.8142 91.2854 89.246 88.8309 90.9831C88.5926 91.1517 88.3719 91.3359 88.1691 91.5332C88.0181 89.4327 86.6871 87.5175 84.6256 86.7607C81.8368 85.737 78.7673 87.2209 77.7697 90.0752C77.2378 91.5969 77.4021 93.2008 78.0941 94.5219C77.8728 94.4946 77.6476 94.4803 77.4193 94.4796C74.3957 94.4712 71.9753 96.8724 72.0133 99.8429C72.0512 102.813 74.5331 105.228 77.5567 105.237C77.7199 105.237 77.8813 105.231 78.0407 105.217C77.9751 105.363 77.9153 105.513 77.8614 105.667C76.8638 108.522 78.3158 111.665 81.1045 112.689C83.8933 113.713 86.9628 112.229 87.9604 109.375C88.049 109.121 88.1183 108.865 88.169 108.609C89.1569 109.5 90.4706 110.047 91.9065 110.051C94.9301 110.059 97.3504 107.658 97.3125 104.688C97.2877 102.747 96.2198 101.043 94.6392 100.093Z" fill="white"/>
<g style="mix-blend-mode:multiply">
<circle cx="85.7958" cy="100.131" r="4.07961" transform="rotate(79.3678 85.7958 100.131)" fill="#FED402"/>
</g>
<path d="M16.5325 69.4312C11.0166 68.9468 7.88755 68.8237 2.21816 68.9696" stroke="#61432D" stroke-width="1.8" stroke-linecap="round" stroke-linejoin="round"/>
<path d="M16.0092 77.8835C10.7086 78.8525 7.79609 79.541 2.74869 81.1266" stroke="#61432D" stroke-width="1.8" stroke-linecap="round" stroke-linejoin="round"/>
<path d="M15.69 73.8353C10.1483 73.613 7.44247 73.9577 1.90855 74.4305" stroke="#61432D" stroke-width="1.8" stroke-linecap="round" stroke-linejoin="round"/>
<path d="M100.549 69.4312C106.064 68.9468 109.194 68.8237 114.863 68.9696" stroke="#61432D" stroke-width="1.8" stroke-linecap="round" stroke-linejoin="round"/>
<path d="M101.072 77.8835C106.372 78.8525 109.285 79.541 114.332 81.1266" stroke="#61432D" stroke-width="1.8" stroke-linecap="round" stroke-linejoin="round"/>
<path d="M101.391 73.8353C106.933 73.613 109.639 73.9577 115.173 74.4305" stroke="#61432D" stroke-width="1.8" stroke-linecap="round" stroke-linejoin="round"/>
</svg>
