<svg width="135" height="120" viewBox="0 0 135 120" fill="none" xmlns="http://www.w3.org/2000/svg">
<path fill-rule="evenodd" clip-rule="evenodd" d="M51.0099 28.0789C42.8738 19.8085 34.1013 11.7765 31.1862 12.3108C27.6665 12.9558 23.8248 29.5375 21.2955 42.8286C12.3217 51.0023 6.90454 61.6043 6.90454 73.1892C6.90454 99.042 33.8823 120 67.161 120C100.44 120 127.417 99.042 127.417 73.1892C127.417 61.4684 121.872 50.7538 112.709 42.5421C110.18 29.3005 106.368 12.9512 102.873 12.3108C99.9636 11.7775 91.2184 19.7784 83.0952 28.0325C78.0196 26.9542 72.6768 26.3784 67.161 26.3784C61.5665 26.3784 56.15 26.9707 51.0099 28.0789Z" fill="#FFEBA8"/>
<g style="mix-blend-mode:multiply">
<path fill-rule="evenodd" clip-rule="evenodd" d="M51.3914 27.9978V40.6644C51.3914 43.5675 53.7448 45.921 56.6479 45.921C59.551 45.921 61.9044 43.5675 61.9044 40.6644V26.5541L61.9044 45.2061C61.9044 48.1092 64.2578 50.4626 67.1609 50.4626C70.064 50.4626 72.4175 48.1092 72.4175 45.2061V26.5541C70.6852 26.4378 68.932 26.3784 67.161 26.3784C65.3899 26.3784 63.6367 26.4378 61.9044 26.5541C58.2999 26.7961 54.7862 27.2846 51.3914 27.9978ZM72.4175 26.5541V40.6644C72.4175 43.5675 74.7709 45.921 77.674 45.921C80.5771 45.921 82.9305 43.5675 82.9305 40.6644V27.9978C79.5357 27.2846 76.022 26.7961 72.4175 26.5541Z" fill="#FFEBA8"/>
</g>
<path d="M116.592 70.7004C123.746 68.1415 124.986 67.7134 132.648 66.3477" stroke="#323232" stroke-width="1.89474" stroke-linecap="round" stroke-linejoin="round"/>
<path d="M114.968 84.5039C122.4 86.5182 125.743 86.929 132.831 90.1877" stroke="#323232" stroke-width="1.89474" stroke-linecap="round" stroke-linejoin="round"/>
<path d="M117.404 78.0082C124.247 77.6054 126.519 78.4122 133.353 79.2684" stroke="#323232" stroke-width="1.89474" stroke-linecap="round" stroke-linejoin="round"/>
<path d="M17.7303 70.7004C10.5754 68.1415 9.33543 67.7134 1.6739 66.3477" stroke="#323232" stroke-width="1.89474" stroke-linecap="round" stroke-linejoin="round"/>
<path d="M19.3542 84.5039C11.9224 86.5182 8.57887 86.929 1.49077 90.1877" stroke="#323232" stroke-width="1.89474" stroke-linecap="round" stroke-linejoin="round"/>
<path d="M16.9183 78.0082C10.0753 77.6054 7.80248 78.4122 0.969018 79.2684" stroke="#323232" stroke-width="1.89474" stroke-linecap="round" stroke-linejoin="round"/>
<circle cx="39.3982" cy="65.7194" r="10.0842" fill="#323232"/>
<circle cx="44.0046" cy="64.4744" r="2.24094" fill="white"/>
<path d="M86.0844 70.4375C86.0844 69.0569 86.3292 67.6898 86.8047 66.4143C87.2802 65.1388 87.9771 63.9799 88.8557 63.0036C89.7343 62.0274 90.7774 61.253 91.9253 60.7247C93.0733 60.1964 94.3037 59.9244 95.5462 59.9244C96.7887 59.9244 98.0191 60.1964 99.167 60.7247C100.315 61.253 101.358 62.0274 102.237 63.0036C103.115 63.9799 103.812 65.1388 104.288 66.4143C104.763 67.6898 105.008 69.0569 105.008 70.4375" stroke="#323232" stroke-width="2.5" stroke-linecap="round" stroke-linejoin="round"/>
<path d="M73.6348 75.1812C73.6348 77.1064 71.4052 78.6671 68.6549 78.6671C65.9046 78.6671 63.675 77.1064 63.675 75.1812C63.675 73.2559 65.9046 71.1973 68.6549 71.1973C71.4052 71.1973 73.6348 73.2559 73.6348 75.1812Z" fill="#323232"/>
<path d="M68.6549 73.6871V80.659C68.6549 82.8592 66.8713 84.6428 64.671 84.6428H63.4261C61.9134 84.6428 60.6871 83.4166 60.6871 81.9039V81.9039" stroke="#323232" stroke-width="2" stroke-linecap="round" stroke-linejoin="round"/>
<path d="M68.655 73.6871V80.659C68.655 82.8592 70.4386 84.6428 72.6388 84.6428H73.8838C75.3965 84.6428 76.6227 83.4166 76.6227 81.9039V81.9039" stroke="#323232" stroke-width="2" stroke-linecap="round" stroke-linejoin="round"/>
<circle cx="70.6469" cy="73.6872" r="0.995974" fill="white"/>
<g style="mix-blend-mode:multiply">
<path d="M26.1643 39.0039C27.6483 31.6324 29.0744 26.7182 32.0552 19.1129C32.2692 18.5669 32.9273 18.3467 33.4254 18.6564C39.1904 22.2406 42.3393 24.9737 46.7104 29.6849C47.1873 30.1989 46.9507 31.0337 46.2773 31.2291C38.6961 33.4293 34.0195 34.8735 27.747 39.9339C27.0444 40.5007 25.9862 39.8888 26.1643 39.0039Z" fill="#FFEBA8"/>
<path d="M106.877 38.2771C106.12 30.7267 105.414 26.2819 102.28 18.5739C102.06 18.033 101.402 17.8231 100.91 18.1363C95.6803 21.459 92.7189 23.9115 87.8181 28.4963C87.2831 28.9968 87.4985 29.89 88.2006 30.0992C95.6491 32.3181 99.131 33.8773 105.291 39.094C105.947 39.6497 106.962 39.1326 106.877 38.2771Z" fill="#FFEBA8"/>
</g>
<circle cx="30.3099" cy="86.6348" r="8.46578" fill="#FFAC99"/>
<circle cx="104.012" cy="86.6348" r="8.46578" fill="#FFAC99"/>
<path d="M67.826 10.8008C71.074 7.49158 73.7098 12.1995 73.7098 12.1995C73.7098 12.1995 78.9716 9.36895 80.141 13.7283C81.3104 18.0876 71.3583 22.0919 71.3583 22.0919C71.3583 22.0919 64.578 14.11 67.826 10.8008Z" fill="#FFE312"/>
<path d="M80.9489 1.21771C83.2509 -0.878901 84.8412 2.37656 84.8412 2.37656C84.8412 2.37656 88.4753 0.676573 89.0955 3.64322C89.7157 6.60986 82.8928 8.92057 82.8928 8.92057C82.8928 8.92057 78.6469 3.31432 80.9489 1.21771Z" fill="#FFE312"/>
</svg>
