<svg width="118" height="120" viewBox="0 0 118 120" fill="none" xmlns="http://www.w3.org/2000/svg">
<path fill-rule="evenodd" clip-rule="evenodd" d="M99.606 30.3368C97.2244 17.0601 93.6359 0.667422 90.3462 0.0253219C87.607 -0.509333 79.3742 7.51283 71.7268 15.7888C66.9487 14.7076 61.9189 14.1303 56.7262 14.1303C51.4595 14.1303 46.3605 14.7242 41.5215 15.8354C33.862 7.54293 25.6034 -0.510335 22.8591 0.0253219C19.5456 0.672063 15.929 17.2979 13.5478 30.6242C5.09978 38.8195 0 49.4496 0 61.0652C0 86.9866 25.3972 108 56.7262 108C88.0553 108 113.452 86.9866 113.452 61.0652C113.452 49.3134 108.232 38.5703 99.606 30.3368Z" fill="#EDEDED"/>
<g style="mix-blend-mode:multiply">
<path fill-rule="evenodd" clip-rule="evenodd" d="M41.6345 15.8095L40.5303 31.0989L51.1771 22.5944L58.0975 39.6034L64.4856 22.5944L73.5353 31.0989L71.6914 15.7808C66.9238 14.7047 61.9061 14.1303 56.7262 14.1303C51.5005 14.1303 46.4399 14.715 41.6345 15.8095Z" fill="#EBEBEB"/>
</g>
<g style="mix-blend-mode:multiply">
<path fill-rule="evenodd" clip-rule="evenodd" d="M111.742 49.5827L96.0656 56.1731L113.309 64.4307C113.404 63.3191 113.452 62.1968 113.452 61.0652C113.452 57.1039 112.859 53.2573 111.742 49.5827ZM112.949 67.3439L95.4821 68.5923L109.966 77.3033C111.38 74.1306 112.391 70.7966 112.949 67.3439ZM108.661 79.9732L92.6992 82.9916L101.59 89.7915C104.403 86.7878 106.786 83.4939 108.661 79.9732Z" fill="#E4E4E4"/>
</g>
<g style="mix-blend-mode:multiply">
<path fill-rule="evenodd" clip-rule="evenodd" d="M11.4367 89.3314L19.7255 82.9919L4.90725 80.1898C6.66783 83.4505 8.86481 86.5147 11.4367 89.3314ZM3.27247 76.8144L16.943 68.5923L0.515229 67.4182C1.04665 70.6676 1.97999 73.8115 3.27247 76.8144ZM0.105884 63.9568L16.3591 56.1732L1.59532 49.9666C0.552598 53.525 0 57.2418 0 61.0653C0 62.0363 0.0356357 63.0004 0.105884 63.9568Z" fill="#E4E4E4"/>
</g>
<path d="M61.8311 70.6009C61.8311 72.5312 59.7321 74.0961 57.143 74.0961C54.5538 74.0961 52.4548 72.5312 52.4548 70.6009C52.4548 68.6706 54.5538 66.6064 57.143 66.6064C59.7321 66.6064 61.8311 68.6706 61.8311 70.6009Z" fill="#0F0E0F"/>
<path d="M57.143 69.1029V76.3372C57.143 78.4085 55.4638 80.0877 53.3925 80.0877H52.3882C50.8715 80.0877 49.642 78.8582 49.642 77.3415V77.3415" stroke="#1C1B1C" stroke-width="1.32099" stroke-linecap="round" stroke-linejoin="round"/>
<path d="M57.1429 69.1029V76.3372C57.1429 78.4085 58.8221 80.0877 60.8934 80.0877H61.8977C63.4144 80.0877 64.6439 78.8582 64.6439 77.3415V77.3415" stroke="#1C1B1C" stroke-width="1.32099" stroke-linecap="round" stroke-linejoin="round"/>
<ellipse cx="32.4781" cy="55.6709" rx="11.3817" ry="12.1221" fill="white"/>
<mask id="mask0_312_129" style="mask-type:alpha" maskUnits="userSpaceOnUse" x="21" y="43" width="23" height="25">
<ellipse cx="32.4781" cy="55.6709" rx="11.3817" ry="12.1221" fill="#FEDE77"/>
</mask>
<g mask="url(#mask0_312_129)">
<ellipse cx="35.207" cy="56.6123" rx="8.51743" ry="9.07148" fill="#1C1B1C"/>
</g>
<ellipse cx="11.3817" cy="12.1221" rx="11.3817" ry="12.1221" transform="matrix(-1 0 0 1 91.9044 43.5488)" fill="white"/>
<mask id="mask1_312_129" style="mask-type:alpha" maskUnits="userSpaceOnUse" x="69" y="43" width="23" height="25">
<ellipse cx="11.3817" cy="12.1221" rx="11.3817" ry="12.1221" transform="matrix(-1 0 0 1 91.9044 43.5488)" fill="white"/>
</mask>
<g mask="url(#mask1_312_129)">
<ellipse cx="8.51743" cy="9.07148" rx="8.51743" ry="9.07148" transform="matrix(-1 0 0 1 86.3115 47.5408)" fill="#0F0E0F"/>
</g>
<ellipse cx="26.6895" cy="77.0232" rx="6.38807" ry="6.80361" fill="#FFCEB9"/>
<ellipse cx="86.3117" cy="77.0232" rx="6.38807" ry="6.80361" fill="#FFCEB9"/>
<path d="M105.859 30.8271L107.297 24.1895C107.725 22.2132 106.315 20.3265 104.411 20.3265C102.507 20.3265 101.097 22.2132 101.525 24.1895L102.963 30.8271L103.665 34.2176L105.378 34.099L105.859 30.8271Z" fill="white"/>
<path d="M107.328 35.476L113.56 37.007C115.416 37.4629 117.187 35.9618 117.187 33.9336C117.187 31.9054 115.416 30.4044 113.56 30.8602L107.328 32.3912L104.292 33.0556V34.583L107.328 35.476Z" fill="white"/>
<path d="M101.494 35.476L95.2619 37.0071C93.4063 37.463 91.6349 35.9619 91.6349 33.9337C91.6349 31.9055 93.4063 30.4045 95.2619 30.8603L101.494 32.3913L103.535 32.9165L103.925 34.8838L101.494 35.476Z" fill="white"/>
<path d="M102.661 29.4352L99.982 24.8702C98.9726 23.1504 96.7235 22.8777 95.3769 24.3119C94.0304 25.746 94.2864 28.1414 95.9012 29.2165L100.187 32.0704L103.219 34.2176L104.411 32.8922L102.661 29.4352Z" fill="white"/>
<path d="M108.635 32.0704L112.921 29.2167C114.536 28.1416 114.792 25.7461 113.445 24.312C112.099 22.8778 109.849 23.1505 108.84 24.8703L106.161 29.4353L103.925 33.2582L105.056 34.9392L108.635 32.0704Z" fill="white"/>
<path d="M108.635 35.7971L112.921 38.6508C114.536 39.7259 114.792 42.1213 113.445 43.5554C112.099 44.9896 109.849 44.7169 108.84 42.9971L106.161 38.4321L104.057 35.3968L105.77 33.714L108.635 35.7971Z" fill="white"/>
<path d="M102.661 38.4322L99.982 42.9972C98.9726 44.717 96.7235 44.9897 95.3769 43.5555C94.0304 42.1214 94.2864 39.726 95.9012 38.6509L100.187 35.7972L103.925 33.366L104.883 34.2228L102.661 38.4322Z" fill="white"/>
<path d="M106.052 37.2301L107.466 43.7618C107.888 45.7066 106.501 47.5632 104.627 47.5632C102.753 47.5632 101.366 45.7066 101.787 43.7618L103.202 37.2301L103.746 33.6907L105.125 33.5303L106.052 37.2301Z" fill="white"/>
<path d="M104.412 37.138C106.073 37.138 107.42 35.7036 107.42 33.9342C107.42 32.1648 106.073 30.7303 104.412 30.7303C102.75 30.7303 101.404 32.1648 101.404 33.9342C101.404 35.7036 102.75 37.138 104.412 37.138Z" fill="#FED402"/>
<g style="mix-blend-mode:multiply">
<path fill-rule="evenodd" clip-rule="evenodd" d="M103.65 37.0346C103.893 37.1022 104.148 37.1382 104.412 37.1382C106.073 37.1382 107.42 35.7037 107.42 33.9343C107.42 32.1649 106.073 30.7305 104.412 30.7305C104.239 30.7305 104.069 30.746 103.904 30.7758C105.197 31.1351 106.151 32.3869 106.151 33.8761C106.151 35.4614 105.07 36.7778 103.65 37.0346Z" fill="#FED402" fill-opacity="0.5"/>
</g>
<path fill-rule="evenodd" clip-rule="evenodd" d="M49.9472 105.646C51.9295 105.646 53.7308 104.966 55.1634 104.168C54.7914 106.182 54.8224 107.992 54.8517 109.701L54.858 110.079C54.9009 112.795 54.8689 115.31 53.3144 118.427C53.0449 118.967 53.2697 119.621 53.8165 119.887C54.3633 120.154 55.0251 119.932 55.2947 119.391C57.092 115.788 57.1095 112.833 57.0654 110.045L57.0602 109.723C57.0232 107.499 56.9882 105.389 57.7259 102.945C59.0824 105.097 59.7112 107.212 60.3423 109.344L60.3592 109.401C61.0929 111.879 61.855 114.454 63.9383 116.764C64.3439 117.214 65.0417 117.253 65.4968 116.852C65.9519 116.452 65.992 115.762 65.5864 115.312C63.8623 113.401 63.213 111.271 62.4613 108.731L62.4423 108.667C62.0814 107.448 61.6976 106.151 61.1445 104.807C62.3088 105.298 63.6345 105.646 65.0528 105.646C67.3473 105.646 69.4787 105.206 71.0777 104.445C72.5983 103.721 74 102.511 74 100.823C74 99.1348 72.5983 97.9246 71.0777 97.2011C69.4787 96.4402 67.3473 96 65.0528 96C61.7349 96 58.9242 97.9051 57.5 99.0774C56.0758 97.9051 53.2651 96 49.9472 96C47.6527 96 45.5213 96.4402 43.9223 97.2011C42.4017 97.9246 41 99.1348 41 100.823C41 102.511 42.4017 103.721 43.9223 104.445C45.5213 105.206 47.6527 105.646 49.9472 105.646ZM44.88 99.1669C43.5618 99.7941 43.2077 100.45 43.2077 100.823C43.2077 101.196 43.5618 101.852 44.88 102.479C46.1197 103.069 47.9099 103.464 49.9472 103.464C52.532 103.464 54.8653 101.903 56.1202 100.864L56.1451 100.802C54.8964 99.7637 52.5492 98.1818 49.9472 98.1818C47.9099 98.1818 46.1197 98.577 44.88 99.1669ZM59.1047 101.047C59.0385 100.952 58.9711 100.858 58.9022 100.763C60.1623 99.7244 62.4833 98.1818 65.0528 98.1818C67.0901 98.1818 68.8803 98.577 70.12 99.1669C71.4382 99.7941 71.7923 100.45 71.7923 100.823C71.7923 101.196 71.4382 101.852 70.12 102.479C68.8803 103.069 67.0901 103.464 65.0528 103.464C62.6153 103.464 60.4014 102.076 59.1047 101.047Z" fill="#ED653B"/>
</svg>
