<svg width="120" height="121" viewBox="0 0 120 121" fill="none" xmlns="http://www.w3.org/2000/svg">
<path d="M65.7011 28.0028C67.4899 28.8203 68.4718 31.0983 67.8941 33.091L65.0346 42.9551C64.4835 44.8565 62.7116 45.811 60.9964 45.1843C60.586 45.8938 59.9865 46.4776 59.2503 46.8141C57.4614 47.6315 55.543 46.6789 54.9654 44.6862L52.1059 34.8221C51.5283 32.8294 52.5101 30.5513 54.2989 29.7339C56.0878 28.9164 58.0062 29.8691 58.5838 31.8618L59.7491 35.8816L61.4162 30.1307C61.9938 28.138 63.9122 27.1853 65.7011 28.0028Z" fill="#EF8F35"/>
<path d="M92.1696 24.2406C78.0386 42.9633 75.6705 53.8224 73.7587 79.5754" stroke="#5EA985" stroke-width="1.84133" stroke-linecap="round"/>
<path d="M93.355 17.2814C92.4296 18.3385 91.76 19.6822 91.277 21.028C90.2643 23.8495 92.932 26.1348 95.4713 24.6524C96.6473 23.9659 97.8075 23.1139 98.7091 22.0841C99.5742 21.0959 100.257 19.88 100.79 18.6554C102.005 15.8647 99.4575 13.3441 96.8076 14.7161C95.5316 15.3767 94.2826 16.2218 93.355 17.2814Z" fill="#5EA985"/>
<path d="M90.1776 30.1297C89.1892 30.3018 88.1994 30.6884 87.3147 31.1309C85.7983 31.8894 86.1192 33.8498 87.793 34.0528C88.7695 34.1712 89.8275 34.2012 90.8158 34.0291C91.8042 33.857 92.794 33.4704 93.6787 33.0279C95.1951 32.2694 94.8742 30.309 93.2004 30.106C92.2239 29.9876 91.1659 29.9576 90.1776 30.1297Z" fill="#5EA985"/>
<path d="M83.4345 28.791C83.6126 29.7576 83.9791 30.7216 84.3996 31.591C85.1547 33.1525 87.1524 32.7608 87.2994 31.0225C87.3813 30.0546 87.3793 29.0191 87.2012 28.0525C87.0231 27.0859 86.6565 26.1219 86.2361 25.2525C85.481 23.691 83.4833 24.0827 83.3363 25.821C83.2544 26.7889 83.2564 27.8244 83.4345 28.791Z" fill="#5EA985"/>
<path d="M85.0525 39.2798C84.0641 39.4519 83.0744 39.8385 82.1897 40.2811C80.6732 41.0395 80.9941 42.9999 82.6679 43.2029C83.6444 43.3213 84.7024 43.3514 85.6907 43.1793C86.6791 43.0072 87.6689 42.6205 88.5536 42.178C90.07 41.4195 89.7491 39.4591 88.0753 39.2562C87.0988 39.1378 86.0408 39.1077 85.0525 39.2798Z" fill="#5EA985"/>
<path d="M77.549 39.1967C77.9483 40.0933 78.531 40.9404 79.1436 41.6815C80.241 43.0091 82.0835 42.1362 81.822 40.4125C81.6759 39.4503 81.4325 38.4425 81.0331 37.5459C80.6338 36.6492 80.0512 35.8022 79.4385 35.061C78.3411 33.7334 76.4987 34.6063 76.7602 36.33C76.9062 37.2923 77.1497 38.3 77.549 39.1967Z" fill="#5EA985"/>
<path d="M80.6485 49.2602C79.6741 49.5021 78.7125 49.9581 77.8596 50.4625C76.3974 51.327 76.8486 53.26 78.532 53.3435C79.514 53.3922 80.5714 53.3469 81.5459 53.105C82.5203 52.863 83.4818 52.407 84.3348 51.9027C85.797 51.0382 85.3458 49.1052 83.6624 49.0217C82.6804 48.973 81.6229 49.0182 80.6485 49.2602Z" fill="#5EA985"/>
<path d="M73.9427 49.7051C74.465 50.5368 75.1632 51.2917 75.8759 51.9363C77.1473 53.0862 78.8416 51.9544 78.3443 50.2874C78.0655 49.353 77.6831 48.3871 77.1609 47.5554C76.6386 46.7236 75.9404 45.9687 75.2277 45.3242C73.9563 44.1743 72.262 45.3061 72.7594 46.973C73.0381 47.9074 73.4205 48.8734 73.9427 49.7051Z" fill="#5EA985"/>
<path d="M78.5755 59.7447C77.6249 60.07 76.7045 60.6073 75.896 61.1833C74.5093 62.1713 75.1168 64.0598 76.8011 63.9969C77.7831 63.9602 78.8323 63.8234 79.7829 63.4981C80.7336 63.1728 81.654 62.6355 82.4625 62.0595C83.8492 61.0715 83.2417 59.183 81.5574 59.2459C80.5754 59.2826 79.5262 59.4194 78.5755 59.7447Z" fill="#5EA985"/>
<path d="M71.0695 61.3785C71.6863 62.1443 72.4706 62.8114 73.2559 63.366C74.6505 64.3512 76.1956 63.0272 75.5123 61.4325C75.1275 60.5347 74.6355 59.6172 74.0187 58.8514C73.4019 58.0856 72.6175 57.4185 71.8323 56.8638C70.4376 55.8786 68.8925 57.2026 69.5759 58.7973C69.9606 59.6952 70.4527 60.6127 71.0695 61.3785Z" fill="#5EA985"/>
<path d="M14.7969 32.1618C8.71484 37.328 22.2306 73.2863 22.2306 73.2863L50.2759 50.2845C50.2759 50.2845 20.5412 27.2826 14.7969 32.1618Z" fill="#C4C4C4"/>
<path d="M14.7969 32.1618C8.71484 37.328 22.2306 73.2863 22.2306 73.2863L50.2759 50.2845C50.2759 50.2845 20.5412 27.2826 14.7969 32.1618Z" fill="#EF8F35"/>
<path fill-rule="evenodd" clip-rule="evenodd" d="M17.2999 58.4228C14.1901 47.8734 11.3546 35.0858 14.797 32.1618C17.8834 29.5401 27.8962 34.968 36.5009 40.552C28.7614 37.302 20.9921 34.9943 18.2642 37.3114C15.22 39.8972 15.8041 49.2053 17.2999 58.4228Z" fill="#C4C4C4"/>
<path fill-rule="evenodd" clip-rule="evenodd" d="M17.2999 58.4228C14.1901 47.8734 11.3546 35.0858 14.797 32.1618C17.8834 29.5401 27.8962 34.968 36.5009 40.552C28.7614 37.302 20.9921 34.9943 18.2642 37.3114C15.22 39.8972 15.8041 49.2053 17.2999 58.4228Z" fill="#542016"/>
<path d="M100.725 32.1618C106.808 37.328 93.2918 73.2863 93.2918 73.2863L65.2465 50.2845C65.2465 50.2845 94.9812 27.2826 100.725 32.1618Z" fill="#C4C4C4"/>
<path d="M100.725 32.1618C106.808 37.328 93.2918 73.2863 93.2918 73.2863L65.2465 50.2845C65.2465 50.2845 94.9812 27.2826 100.725 32.1618Z" fill="#EF8F35"/>
<path fill-rule="evenodd" clip-rule="evenodd" d="M98.2226 58.4226C101.332 47.8732 104.168 35.0857 100.725 32.1618C97.639 29.5401 87.6262 34.968 79.0214 40.552C86.761 37.302 94.5303 34.9943 97.2583 37.3114C100.302 39.8972 99.7184 49.2051 98.2226 58.4226Z" fill="#C4C4C4"/>
<path fill-rule="evenodd" clip-rule="evenodd" d="M98.2226 58.4226C101.332 47.8732 104.168 35.0857 100.725 32.1618C97.639 29.5401 87.6262 34.968 79.0214 40.552C86.761 37.302 94.5303 34.9943 97.2583 37.3114C100.302 39.8972 99.7184 49.2051 98.2226 58.4226Z" fill="#542016"/>
<path d="M83.7761 14.3644C68.729 32.3117 65.8218 43.0305 62.6268 68.6479" stroke="#5EA985" stroke-width="1.84133" stroke-linecap="round"/>
<path d="M85.3072 7.47773C84.33 8.48458 83.5941 9.7914 83.0444 11.1102C81.8925 13.874 84.4418 16.2972 87.0516 14.9519C88.2607 14.3287 89.4624 13.5393 90.4144 12.5584C91.328 11.6172 92.071 10.4387 92.6646 9.24367C94.0171 6.52128 91.5994 3.86956 88.8846 5.09866C87.5768 5.69072 86.2868 6.46853 85.3072 7.47773Z" fill="#5EA985"/>
<path d="M81.4925 20.1401C80.496 20.2595 79.4874 20.5935 78.5812 20.9889C77.0291 21.6661 77.2515 23.639 78.9127 23.9308C79.8827 24.1013 80.9388 24.1877 81.9352 24.0682C82.9317 23.9488 83.9404 23.6147 84.8466 23.2194C86.3986 22.5422 86.1763 20.5693 84.515 20.2774C83.545 20.107 82.489 20.0206 81.4925 20.1401Z" fill="#5EA985"/>
<path d="M74.8253 18.445C74.9548 19.4189 75.2722 20.4001 75.6482 21.29C76.3241 22.8898 78.3407 22.6045 78.574 20.8761C78.7038 19.9146 78.7533 18.8814 78.6238 17.9076C78.4943 16.9337 78.1769 15.9525 77.8009 15.0625C77.1249 13.4628 75.1084 13.7481 74.8751 15.4765C74.7453 16.438 74.6957 17.4711 74.8253 18.445Z" fill="#5EA985"/>
<path d="M75.9175 29.0058C74.921 29.1253 73.9123 29.4593 73.0061 29.8546C71.4541 30.5318 71.6764 32.5047 73.3377 32.7966C74.3077 32.967 75.3637 33.0534 76.3602 32.934C77.3567 32.8145 78.3653 32.4805 79.2715 32.0851C80.8236 31.4079 80.6012 29.435 78.94 29.1432C77.97 28.9728 76.9139 28.8863 75.9175 29.0058Z" fill="#5EA985"/>
<path d="M68.4281 28.5243C68.7818 29.4401 69.3208 30.3163 69.8951 31.0886C70.9246 32.473 72.8098 31.6984 72.6344 29.9631C72.5365 28.995 72.3437 27.9766 71.99 27.0607C71.6362 26.1448 71.0973 25.2686 70.523 24.4964C69.4935 23.112 67.6083 23.8866 67.7837 25.6219C67.8815 26.59 68.0743 27.6084 68.4281 28.5243Z" fill="#5EA985"/>
<path d="M71.021 38.7389C70.0349 38.929 69.051 39.3339 68.1734 39.7927C66.6703 40.5786 67.024 42.5311 68.7008 42.7041C69.6799 42.8052 70.7391 42.8163 71.7252 42.6263C72.7112 42.4363 73.6951 42.0314 74.5727 41.5726C76.0758 40.7867 75.7221 38.8342 74.0453 38.6611C73.0663 38.5601 72.007 38.5489 71.021 38.7389Z" fill="#5EA985"/>
<path d="M64.3019 38.827C64.7816 39.6848 65.4407 40.4753 66.1197 41.1565C67.332 42.3726 69.0817 41.3316 68.668 39.6404C68.4363 38.693 68.1028 37.7088 67.6231 36.851C67.1434 35.9932 66.4843 35.2027 65.8053 34.5215C64.593 33.3054 62.8433 34.3464 63.257 36.0376C63.4887 36.985 63.8222 37.9692 64.3019 38.827Z" fill="#5EA985"/>
<path d="M68.4273 49.0995C67.4609 49.3742 66.5141 49.8624 65.6774 50.3952C64.2434 51.3085 64.7553 53.2249 66.4404 53.2518C67.4236 53.2675 68.4793 53.1867 69.4457 52.9121C70.4121 52.6375 71.3589 52.1492 72.1956 51.6164C73.6296 50.7032 73.1176 48.7867 71.4325 48.7598C70.4493 48.7441 69.3937 48.8249 68.4273 49.0995Z" fill="#5EA985"/>
<path d="M60.8496 50.3323C61.4271 51.1294 62.1766 51.837 62.9327 52.4325C64.2763 53.4906 65.8863 52.2498 65.2833 50.6209C64.944 49.7042 64.4985 48.7623 63.921 47.9652C63.3436 47.1681 62.5941 46.4605 61.838 45.8651C60.4944 44.8069 58.8844 46.0477 59.4874 47.6766C59.8267 48.5933 60.2721 49.5352 60.8496 50.3323Z" fill="#5EA985"/>
<path d="M15.2413 94.4487C15.1973 94.3344 15.1126 94.2425 15.0053 94.1928C7.41352 90.6712 1.12167 83.1807 0.0222785 79.9175C-0.07015 79.6432 0.137545 79.3825 0.414133 79.3823C5.02869 79.38 6.13459 79.3161 9.79946 77.5399C10.0854 77.4013 10.1459 77.0003 9.91444 76.7758L6.34481 73.3134C6.03665 73.0145 6.25925 72.4351 6.67732 72.4044C8.36132 72.2807 10.4433 71.7497 12.7048 70.968C12.8587 70.9148 12.9721 70.776 13.002 70.6085C16.5214 50.9191 32.9472 36.0228 52.679 36.0228H64.2145C83.5207 36.0228 99.662 50.2834 103.646 69.3412C103.678 69.4936 103.779 69.6207 103.917 69.6778C107.452 71.1419 110.825 72.221 113.322 72.4044C113.74 72.4351 113.963 73.0145 113.654 73.3134L110.085 76.7758C109.853 77.0003 109.914 77.4013 110.2 77.5399C113.865 79.3161 114.971 79.38 119.585 79.3823C119.862 79.3825 120.07 79.6404 119.978 79.9148C118.713 83.677 110.534 93.0698 101.42 95.5043C101.286 95.5401 101.174 95.6385 101.118 95.7717C94.8311 110.636 80.6728 121 64.2145 121H52.679C35.7366 121 21.2317 110.018 15.2413 94.4487Z" fill="#EF8F35"/>
<path fill-rule="evenodd" clip-rule="evenodd" d="M101.319 95.5454C101.231 95.5947 101.16 95.6739 101.118 95.7718C94.8311 110.636 80.6728 121 64.2145 121H52.679C35.7427 121 21.2421 110.026 15.2477 94.4656C24.0478 84.2068 41.4585 77.5879 58.209 77.5879C75.5401 77.5879 93.1007 84.6736 101.319 95.5454Z" fill="#FFCEB9"/>
<ellipse cx="5.73134" cy="7.38931" rx="5.73134" ry="7.38931" transform="matrix(-1 0 0 1 37.4328 65.5802)" fill="#542016"/>
<ellipse cx="2.14925" cy="2.58626" rx="2.14925" ry="2.58626" transform="matrix(-1 0 0 1 35.2836 67.797)" fill="white"/>
<ellipse cx="1.07463" cy="1.1084" rx="1.07463" ry="1.1084" transform="matrix(-1 0 0 1 30.9851 72.9695)" fill="white"/>
<ellipse cx="5.73134" cy="7.38931" rx="5.73134" ry="7.38931" transform="matrix(-1 0 0 1 92.9553 65.5802)" fill="#542016"/>
<ellipse cx="2.14925" cy="2.58626" rx="2.14925" ry="2.58626" transform="matrix(-1 0 0 1 90.806 67.797)" fill="white"/>
<ellipse cx="1.07463" cy="1.1084" rx="1.07463" ry="1.1084" transform="matrix(-1 0 0 1 86.5075 72.9695)" fill="white"/>
<rect x="58.4305" y="79.8434" width="2.00314" height="8.92551" rx="1.00157" fill="#542016"/>
<ellipse cx="59.392" cy="78.5114" rx="6.81068" ry="4.61832" fill="#542016"/>
<ellipse cx="55.9066" cy="76.4963" rx="1.0817" ry="1.11569" fill="white"/>
<path d="M51.9403 86.3455C55.546 89.6925 63.5585 89.6925 67.1642 86.3455" stroke="#542016" stroke-width="2.23684" stroke-linecap="round"/>
<path d="M83.1516 40.1539C83.2558 40.0632 83.3568 39.9666 83.4542 39.8642C85.119 38.1136 85.102 35.3118 83.4162 33.6061C81.7304 31.9005 79.0141 31.9369 77.3492 33.6875C77.1876 33.8574 77.0418 34.0373 76.9118 34.2251C76.4984 32.5615 75.193 31.2181 73.4825 30.9104C71.1686 30.4941 68.9896 32.131 68.6156 34.5664C68.4162 35.8647 68.7701 37.1279 69.4945 38.0875C69.3185 38.0978 69.1413 38.119 68.9636 38.1516C66.61 38.5842 65.0653 40.8628 65.5133 43.2409C65.9613 45.6191 68.2325 47.1963 70.586 46.7637C70.7131 46.7403 70.8377 46.7116 70.9599 46.6778C70.9294 46.8044 70.904 46.9335 70.8838 47.0649C70.5098 49.5003 72.0823 51.812 74.3962 52.2283C76.7101 52.6445 78.8891 51.0076 79.2631 48.5722C79.2964 48.356 79.3142 48.1406 79.3176 47.9276C80.2117 48.4992 81.3107 48.747 82.4284 48.5415C84.782 48.1089 86.3267 45.8304 85.8787 43.4522C85.586 41.8985 84.5152 40.6867 83.1516 40.1539Z" fill="#F6D384"/>
<ellipse cx="3.276" cy="3.27727" rx="3.276" ry="3.27727" transform="matrix(0.351193 0.948747 -0.919484 0.362089 78.1397 37.1742)" fill="white" fill-opacity="0.6"/>
<g filter="url(#filter0_f_205_15)">
<ellipse cx="25.9701" cy="84.423" rx="8.0597" ry="4.98779" fill="#FF6E41"/>
<ellipse cx="90.4477" cy="84.423" rx="8.0597" ry="4.98779" fill="#FF6E41"/>
</g>
<defs>
<filter id="filter0_f_205_15" x="11.9104" y="73.4352" width="92.597" height="21.9756" filterUnits="userSpaceOnUse" color-interpolation-filters="sRGB">
<feFlood flood-opacity="0" result="BackgroundImageFix"/>
<feBlend mode="normal" in="SourceGraphic" in2="BackgroundImageFix" result="shape"/>
<feGaussianBlur stdDeviation="3" result="effect1_foregroundBlur_205_15"/>
</filter>
</defs>
</svg>
