<svg width="134" height="131" viewBox="0 0 134 131" fill="none" xmlns="http://www.w3.org/2000/svg">
<path d="M33.9263 21.4632C26.3573 23.2417 23.1038 59.9953 23.1038 59.9953L57.6579 52.4981C57.6579 52.4981 41.0747 19.7835 33.9263 21.4632Z" fill="#C4C4C4"/>
<g style="mix-blend-mode:multiply">
<path d="M35.5091 27.8228C29.8743 29.1469 27.4522 56.5086 27.4522 56.5086L53.1765 50.9272C53.1765 50.9272 40.8309 26.5723 35.5091 27.8228Z" fill="#C4C4C4"/>
</g>
<path d="M96.3151 21.4632C103.884 23.2417 107.138 59.9953 107.138 59.9953L72.5834 52.4981C72.5834 52.4981 89.1667 19.7835 96.3151 21.4632Z" fill="#C4C4C4"/>
<g style="mix-blend-mode:multiply">
<path d="M94.7322 27.8228C100.367 29.1469 102.789 56.5086 102.789 56.5086L77.0648 50.9272C77.0648 50.9272 89.4105 26.5723 94.7322 27.8228Z" fill="#C4C4C4"/>
</g>
<path d="M69.2589 12.7495C59.5887 24.8161 57.897 31.8699 56.3751 48.6338" stroke="#5EA985" stroke-width="1.10842" stroke-linecap="round"/>
<path d="M65.0564 23.1084C63.0194 23.4227 60.9546 25.0453 60.9546 25.0453C60.9546 25.0453 63.4125 25.9699 65.4495 25.6555C67.4865 25.3411 69.5513 23.7185 69.5513 23.7185C69.5513 23.7185 67.0934 22.794 65.0564 23.1084Z" fill="#5EA985"/>
<path d="M58.2391 21.6355C59.0729 23.5205 61.1771 25.0916 61.1771 25.0916C61.1771 25.0916 61.4299 22.4778 60.5961 20.5929C59.7622 18.7079 57.6581 17.1368 57.6581 17.1368C57.6581 17.1368 57.4052 19.7506 58.2391 21.6355Z" fill="#5EA985"/>
<path d="M62.6824 29.6662C60.6719 30.1203 58.7239 31.8813 58.7239 31.8813C58.7239 31.8813 61.2397 32.6343 63.2502 32.1802C65.2607 31.7262 67.2087 29.9652 67.2087 29.9652C67.2087 29.9652 64.6929 29.2122 62.6824 29.6662Z" fill="#5EA985"/>
<path d="M61.0146 36.0951C59.1184 36.903 57.5185 38.9854 57.5185 38.9854C57.5185 38.9854 60.1285 39.2741 62.0248 38.4662C63.921 37.6583 65.5209 35.576 65.5209 35.576C65.5209 35.576 62.9108 35.2872 61.0146 36.0951Z" fill="#5EA985"/>
<path d="M55.5091 28.4278C56.3972 30.2878 58.546 31.7973 58.546 31.7973C58.546 31.7973 58.723 29.1773 57.8349 27.3173C56.9468 25.4573 54.7981 23.9478 54.7981 23.9478C54.7981 23.9478 54.621 26.5678 55.5091 28.4278Z" fill="#5EA985"/>
<path d="M53.9155 36.2808C55.01 38.0273 57.3169 39.2819 57.3169 39.2819C57.3169 39.2819 57.1939 36.6588 56.0995 34.9122C55.005 33.1657 52.6981 31.9111 52.6981 31.9111C52.6981 31.9111 52.8211 34.5342 53.9155 36.2808Z" fill="#5EA985"/>
<path fill-rule="evenodd" clip-rule="evenodd" d="M66.0496 17.4845C66.1097 17.2129 66.1779 16.9503 66.2528 16.6995C66.0429 16.8559 65.8196 17.0101 65.5852 17.1597C63.8194 18.2861 62.0836 18.7221 61.7081 18.1335C61.3326 17.5449 62.4597 16.1546 64.2255 15.0282C64.4599 14.8786 64.6939 14.7412 64.9242 14.6168C64.6652 14.5789 64.3983 14.5302 64.1267 14.4701C62.0816 14.0181 60.5459 13.0989 60.6966 12.4173C60.8473 11.7356 62.6273 11.5494 64.6724 12.0015C64.944 12.0615 65.2066 12.1298 65.4574 12.2047C65.301 11.9947 65.1468 11.7715 64.9972 11.5371C63.8708 9.77129 63.4348 8.03548 64.0234 7.66001C64.612 7.28454 66.0023 8.41159 67.1287 10.1773C67.2783 10.4118 67.4157 10.6457 67.5401 10.876C67.578 10.617 67.6267 10.3501 67.6868 10.0786C68.1388 8.0335 69.0579 6.49779 69.7396 6.64849C70.4213 6.79918 70.6075 8.57921 70.1554 10.6243C70.0954 10.8959 70.0271 11.1585 69.9522 11.4093C70.1622 11.2529 70.3854 11.0987 70.6198 10.9491C72.3856 9.8227 74.1214 9.3867 74.4969 9.97529C74.8724 10.5639 73.7453 11.9542 71.9795 13.0806C71.7451 13.2301 71.5112 13.3675 71.2809 13.492C71.5399 13.5298 71.8068 13.5786 72.0783 13.6386C74.1234 14.0907 75.6591 15.0098 75.5084 15.6915C75.3577 16.3732 73.5777 16.5594 71.5326 16.1073C71.261 16.0472 70.9984 15.979 70.7476 15.9041C70.904 16.114 71.0582 16.3373 71.2078 16.5717C72.3342 18.3375 72.7702 20.0733 72.1816 20.4488C71.593 20.8243 70.2028 19.6972 69.0763 17.9315C68.9268 17.697 68.7894 17.4631 68.6649 17.2328C68.6271 17.4918 68.5783 17.7586 68.5183 18.0302C68.0662 20.0753 67.1471 21.611 66.4654 21.4603C65.7837 21.3096 65.5976 19.5296 66.0496 17.4845Z" fill="white"/>
<circle cx="68.1025" cy="14.0544" r="1.73816" transform="rotate(-167.535 68.1025 14.0544)" fill="#FFCE05"/>
<path d="M79.8186 20.5833C71.3386 33.5141 70.3249 40.6968 70.4026 57.5295" stroke="#5EA985" stroke-width="1.10842" stroke-linecap="round"/>
<path d="M76.6194 31.2946C74.6214 31.8011 72.7202 33.6125 72.7202 33.6125C72.7202 33.6125 75.2548 34.2994 77.2527 33.7929C79.2506 33.2864 81.1519 31.475 81.1519 31.475C81.1519 31.475 78.6173 30.7881 76.6194 31.2946Z" fill="#5EA985"/>
<path d="M69.6929 30.4762C70.7021 32.2734 72.946 33.6375 72.946 33.6375C72.946 33.6375 72.9494 31.0115 71.9402 29.2143C70.931 27.4171 68.6871 26.053 68.6871 26.053C68.6871 26.053 68.6838 28.679 69.6929 30.4762Z" fill="#5EA985"/>
<path d="M74.8792 38.0484C72.921 38.6914 71.1491 40.6296 71.1491 40.6296C71.1491 40.6296 73.725 41.1401 75.6833 40.4971C77.6415 39.854 79.4134 37.9159 79.4134 37.9159C79.4134 37.9159 76.8375 37.4054 74.8792 38.0484Z" fill="#5EA985"/>
<path d="M67.6207 37.4971C68.6815 39.2643 70.964 40.5629 70.964 40.5629C70.964 40.5629 70.8913 37.9379 69.8305 36.1707C68.7697 34.4035 66.4872 33.1049 66.4872 33.1049C66.4872 33.1049 66.5599 35.7299 67.6207 37.4971Z" fill="#5EA985"/>
<path fill-rule="evenodd" clip-rule="evenodd" d="M77.0738 25.6018C77.1077 25.3258 77.1507 25.0579 77.2014 24.8011C77.0073 24.9767 76.7997 25.1514 76.5805 25.3226C74.9298 26.6117 73.2432 27.2107 72.8136 26.6604C72.3839 26.1102 73.3737 24.6191 75.0244 23.33C75.2436 23.1588 75.4635 22.9998 75.6809 22.854C75.4195 22.841 75.1491 22.8178 74.8731 22.7838C72.7943 22.5281 71.1782 21.759 71.2635 21.0661C71.3487 20.3732 73.103 20.0188 75.1818 20.2745C75.4578 20.3085 75.7257 20.3515 75.9826 20.4021C75.8069 20.208 75.6322 20.0005 75.461 19.7813C74.1719 18.1305 73.573 16.444 74.1232 16.0143C74.6735 15.5846 76.1645 16.5745 77.4536 18.2252C77.6248 18.4444 77.7838 18.6642 77.9296 18.8817C77.9426 18.6202 77.9658 18.3499 77.9998 18.0739C78.2555 15.9951 79.0246 14.379 79.7175 14.4642C80.4104 14.5495 80.7648 16.3038 80.5091 18.3825C80.4752 18.6586 80.4321 18.9265 80.3815 19.1833C80.5756 19.0077 80.7831 18.833 81.0023 18.6618C82.6531 17.3727 84.3396 16.7737 84.7693 17.324C85.199 17.8742 84.2091 19.3653 82.5584 20.6544C82.3392 20.8256 82.1194 20.9846 81.902 21.1303C82.1634 21.1434 82.4337 21.1666 82.7098 21.2006C84.7885 21.4563 86.4046 22.2253 86.3194 22.9182C86.2341 23.6112 84.4799 23.9656 82.4011 23.7099C82.125 23.6759 81.8571 23.6329 81.6003 23.5822C81.7759 23.7763 81.9507 23.9839 82.1219 24.2031C83.411 25.8538 84.0099 27.5404 83.4597 27.9701C82.9094 28.3998 81.4183 27.4099 80.1292 25.7592C79.9581 25.54 79.7991 25.3202 79.6533 25.1027C79.6402 25.3642 79.617 25.6345 79.5831 25.9105C79.3273 27.9893 78.5583 29.6054 77.8654 29.5201C77.1725 29.4349 76.818 27.6806 77.0738 25.6018Z" fill="white"/>
<circle cx="78.7915" cy="21.9922" r="1.73816" transform="rotate(-172.987 78.7915 21.9922)" fill="#FFCE05"/>
<path d="M17.0195 67.5728C16.9703 67.6966 16.8757 67.7961 16.7559 67.85C8.27843 71.6626 1.25253 79.7722 0.0248777 83.305C-0.0783341 83.602 0.153592 83.8842 0.462448 83.8844C5.61537 83.8869 6.85029 83.9561 10.9427 85.8791C11.262 86.0291 11.3296 86.4633 11.0711 86.7063L7.08503 90.4549C6.74093 90.7785 6.9895 91.4058 7.45634 91.439C9.33681 91.5729 11.6617 92.1478 14.187 92.9941C14.3588 93.0517 14.4855 93.202 14.5189 93.3834C18.4489 114.7 36.791 130.827 58.8249 130.827H71.7062C93.2648 130.827 111.289 115.388 115.738 94.7553C115.773 94.5904 115.887 94.4528 116.041 94.3909C119.989 92.8058 123.754 91.6376 126.543 91.439C127.01 91.4058 127.258 90.7785 126.914 90.4549L122.928 86.7063C122.669 86.4633 122.737 86.0291 123.056 85.8791C127.149 83.9561 128.384 83.8869 133.537 83.8844C133.845 83.8842 134.078 83.605 133.975 83.308C132.563 79.2348 123.43 69.0657 113.252 66.4301C113.102 66.3912 112.978 66.2847 112.915 66.1405C105.895 50.0475 90.0847 38.8273 71.7062 38.8273H58.8249C39.9059 38.8273 23.7087 50.7172 17.0195 67.5728Z" fill="#CFCFCE"/>
<path fill-rule="evenodd" clip-rule="evenodd" d="M113.535 66.5053C110.42 65.8323 107.264 65.651 104.155 66.0034C86.71 66.0034 72.1453 82.7129 66.5795 105.66C60.3758 82.6302 43.8055 66.8518 26.1548 66.8518C22.7307 66.8518 19.4175 67.2502 16.2687 68.0745C8.0105 71.9726 1.22894 79.84 0.0248777 83.305C-0.0783341 83.602 0.153592 83.8842 0.462448 83.8844C5.61537 83.8869 6.85029 83.9561 10.9427 85.8791C11.262 86.0291 11.3296 86.4632 11.0711 86.7063L7.08503 90.4549C6.74093 90.7785 6.9895 91.4058 7.45634 91.439C9.33681 91.5729 11.6617 92.1478 14.187 92.9941C14.3588 93.0517 14.4855 93.202 14.5189 93.3833C17.2073 107.965 26.6397 120.119 39.3846 126.343C39.4486 126.374 39.5127 126.405 39.5769 126.436C45.4142 129.252 51.9393 130.827 58.8249 130.827L64.2682 130.827L69 130.827L71.7062 130.827C78.4278 130.827 84.8059 129.326 90.5361 126.635C103.185 120.695 112.676 108.955 115.738 94.7553C115.773 94.5904 115.887 94.4528 116.041 94.3909C119.989 92.8058 123.754 91.6376 126.543 91.439C127.01 91.4058 127.258 90.7785 126.914 90.4549L122.928 86.7063C122.669 86.4632 122.737 86.0291 123.056 85.8791C127.149 83.9561 128.384 83.8869 133.537 83.8844C133.845 83.8842 134.078 83.605 133.975 83.308C132.576 79.2726 123.598 69.2537 113.535 66.5053Z" fill="#F4F4F4"/>
<ellipse cx="36.5" cy="101.127" rx="5.5" ry="3.3" fill="#FFC7AF"/>
<ellipse cx="95.5" cy="101.127" rx="5.5" ry="3.3" fill="#FFC7AF"/>
<circle cx="6.5" cy="6.5" r="6.5" transform="matrix(-1 0 0 1 48 83.8273)" fill="#282828"/>
<circle cx="2.25" cy="2.25" r="2.25" transform="matrix(-1 0 0 1 41.5 86.8273)" fill="white"/>
<circle cx="1.5" cy="1.5" r="1.5" transform="matrix(-1 0 0 1 44 90.8273)" fill="white"/>
<circle cx="6.5" cy="6.5" r="6.5" transform="matrix(-1 0 0 1 97 83.8273)" fill="#282828"/>
<circle cx="2.25" cy="2.25" r="2.25" transform="matrix(-1 0 0 1 90.5 86.8273)" fill="white"/>
<circle cx="1.5" cy="1.5" r="1.5" transform="matrix(-1 0 0 1 93 90.8273)" fill="white"/>
<rect x="66.2634" y="103.395" width="1.93315" height="8.35123" rx="0.966577" fill="#282828"/>
<ellipse cx="67.1913" cy="101.148" rx="6.57272" ry="4.32117" fill="#282828"/>
<circle cx="63.8277" cy="99.2631" r="1.0439" fill="white"/>
<path d="M60.5 108.827C63.9797 111.959 70.5203 111.959 74 108.827" stroke="#282828" stroke-width="1.93315" stroke-linecap="round"/>
<path d="M21.6592 60.3511C23.4917 61.0191 25.9267 60.4626 27.2854 60.0431C27.8456 59.8701 28.0755 59.2396 27.758 58.7467C26.988 57.5512 25.4823 55.5583 23.6498 54.8903C21.8173 54.2223 19.3823 54.7788 18.0236 55.1983C17.4634 55.3713 17.2335 56.0017 17.551 56.4947C18.321 57.6901 19.8267 59.6831 21.6592 60.3511Z" fill="#5EA985"/>
<path d="M36.1864 59.0903C34.5289 60.1185 32.0316 60.0709 30.6159 59.9377C30.0321 59.8828 29.6784 59.3125 29.8885 58.7651C30.3981 57.4376 31.4651 55.1792 33.1226 54.151C34.7801 53.1229 37.2775 53.1704 38.6932 53.3037C39.2769 53.3586 39.6306 53.9289 39.4205 54.4763C38.9109 55.8037 37.8439 58.0622 36.1864 59.0903Z" fill="#5EA985"/>
<path d="M103.512 56.3129C105.515 58.0585 109.308 58.0876 111.036 57.9982C111.549 57.9717 111.925 57.5396 111.881 57.0283C111.734 55.304 111.186 51.5511 109.183 49.8055C107.179 48.0599 103.387 48.0308 101.658 48.1202C101.146 48.1467 100.77 48.5788 100.813 49.0901C100.961 50.8144 101.509 54.5673 103.512 56.3129Z" fill="#5EA985"/>
<path d="M69.9579 100.052C68.3852 99.289 67.2202 97.3905 66.6217 96.2183C66.3564 95.6988 66.6471 95.0993 67.2193 94.9858C68.5102 94.7297 70.7224 94.4686 72.2951 95.2312C73.8678 95.9937 75.0328 97.8922 75.6313 99.0644C75.8966 99.5839 75.6059 100.183 75.0337 100.297C73.7427 100.553 71.5306 100.814 69.9579 100.052Z" fill="#5EA985"/>
<path d="M108.154 77.9784C105.741 79.0909 102.093 78.0533 100.46 77.4819C99.9753 77.3125 99.7354 76.792 99.9211 76.3137C100.548 74.7004 102.127 71.2525 104.54 70.14C106.953 69.0275 110.601 70.0651 112.235 70.6364C112.719 70.8058 112.959 71.3263 112.774 71.8046C112.147 73.418 110.567 76.8659 108.154 77.9784Z" fill="#5EA985"/>
<path fill-rule="evenodd" clip-rule="evenodd" d="M25.9901 55.3004C26.0502 55.0289 26.1184 54.7663 26.1933 54.5154C25.9834 54.6718 25.7601 54.826 25.5257 54.9756C23.7599 56.102 22.0241 56.538 21.6486 55.9495C21.2732 55.3609 22.4002 53.9706 24.166 52.8442C24.4004 52.6946 24.6344 52.5572 24.8647 52.4327C24.6057 52.3949 24.3388 52.3461 24.0672 52.2861C22.0221 51.834 20.4864 50.9149 20.6371 50.2332C20.7878 49.5515 22.5678 49.3654 24.6129 49.8174C24.8845 49.8775 25.1471 49.9457 25.3979 50.0206C25.2415 49.8107 25.0873 49.5875 24.9377 49.353C23.8113 47.5872 23.3753 45.8514 23.9639 45.476C24.5525 45.1005 25.9428 46.2275 27.0692 47.9933C27.2188 48.2278 27.3562 48.4617 27.4806 48.692C27.5185 48.433 27.5672 48.1661 27.6273 47.8945C28.0793 45.8494 28.9985 44.3137 29.6801 44.4644C30.3618 44.6151 30.548 46.3951 30.0959 48.4402C30.0359 48.7118 29.9676 48.9744 29.8927 49.2253C30.1027 49.0689 30.3259 48.9146 30.5603 48.7651C32.3261 47.6386 34.0619 47.2026 34.4374 47.7912C34.8129 48.3798 33.6858 49.7701 31.9201 50.8965C31.6856 51.0461 31.4517 51.1835 31.2214 51.3079C31.4804 51.3458 31.7473 51.3946 32.0188 51.4546C34.0639 51.9067 35.5996 52.8258 35.4489 53.5075C35.2982 54.1892 33.5182 54.3753 31.4731 53.9232C31.2015 53.8632 30.9389 53.7949 30.6881 53.72C30.8445 53.93 30.9987 54.1532 31.1483 54.3877C32.2747 56.1534 32.7107 57.8893 32.1221 58.2647C31.5335 58.6402 30.1433 57.5132 29.0168 55.7474C28.8673 55.5129 28.7299 55.279 28.6054 55.0487C28.5676 55.3077 28.5188 55.5746 28.4588 55.8461C28.0067 57.8912 27.0876 59.4269 26.4059 59.2762C25.7242 59.1255 25.5381 57.3455 25.9901 55.3004Z" fill="white"/>
<circle cx="28.043" cy="51.8703" r="1.73816" transform="rotate(-167.535 28.043 51.8703)" fill="#FFCE05"/>
</svg>
